<svg width="239" height="75" viewBox="0 0 239 75" fill="none" xmlns="http://www.w3.org/2000/svg">
<path d="M238.478 14.1066C238.455 12.8485 238.339 11.5938 238.129 10.3529C237.924 9.11137 237.532 7.90804 236.964 6.7842M238.478 14.1066L237.978 14.113C237.978 14.1139 237.978 14.1148 237.978 14.1157M238.478 14.1066L237.978 14.1157M238.478 14.1066C238.485 14.6816 238.485 15.2584 238.485 15.8333C238.5 16.5119 238.5 17.1924 238.5 17.8783V17.8804V57.1216V57.1237C238.5 57.8152 238.5 58.4919 238.485 59.1724C238.485 59.7546 238.485 60.3186 238.478 60.901C238.455 62.1591 238.339 63.4137 238.129 64.6545L222.609 0.503741M237.978 14.1157C237.956 12.8824 237.841 11.6526 237.636 10.4363L237.635 10.4342C237.439 9.24328 237.063 8.089 236.518 7.01088M237.978 14.1157C237.985 14.686 237.985 15.2587 237.985 15.8333L237.985 15.8441C238 16.5171 238 17.1929 238 17.8804V57.1216C238 57.8147 238 58.4868 237.985 59.1617H237.985V59.1724C237.985 59.7542 237.985 60.3142 237.978 60.892C237.956 62.1251 237.841 63.3549 237.636 64.5712L237.635 64.5736C237.44 65.7647 237.063 66.9192 236.519 67.9973C235.966 69.069 235.247 70.0473 234.389 70.8965L234.387 70.8993C233.536 71.7552 232.552 72.4696 231.474 73.0153C230.387 73.562 229.225 73.945 228.026 74.1517C226.807 74.3523 225.575 74.4608 224.34 74.4762L224.335 74.4763C223.765 74.489 223.181 74.4963 222.612 74.4962L222.609 74.4963C221.934 74.5 221.249 74.5 220.572 74.5H18.4377C17.7476 74.5 17.0673 74.5 16.3809 74.4963H16.3782C15.8065 74.4963 15.2388 74.489 14.6603 74.4763L14.6559 74.4762C13.4182 74.46 12.1834 74.3514 10.9619 74.1515C9.76706 73.9464 8.60994 73.5636 7.52926 73.0159L7.5287 73.0157C6.44916 72.4703 5.46457 71.7557 4.61253 70.8992L4.6086 70.8954C3.74907 70.0502 3.03267 69.0719 2.4872 67.9986L2.48696 67.9981C1.93779 66.9202 1.55736 65.7649 1.35885 64.5724L1.35866 64.5713C1.15351 63.3562 1.04312 62.1271 1.02847 60.895L1.02855 60.895L1.02828 60.886C1.01649 60.4927 1.01194 60.1109 1.0073 59.721C1.00513 59.5393 1.00295 59.3558 1 59.1685V15.8373C1.00299 15.6499 1.00519 15.4644 1.00738 15.28C1.01199 14.8915 1.01655 14.5079 1.02827 14.1219L1.02836 14.1219L1.02847 14.1127C1.04311 12.8805 1.1535 11.6514 1.35866 10.4362L1.3588 10.4354C1.55788 9.24344 1.93833 8.08874 2.48702 7.01115L2.48745 7.01029C3.03337 5.93304 3.74993 4.95042 4.60963 4.10026L4.60963 4.10026L4.61106 4.09884C5.46709 3.24545 6.45185 2.53071 7.52964 1.98056C8.61016 1.43454 9.76722 1.05417 10.9617 0.852308C12.1828 0.65078 13.4176 0.542287 14.6552 0.527776L14.6572 0.527744C14.7787 0.525828 14.8995 0.523842 15.0198 0.521864C15.4774 0.514342 15.9276 0.50694 16.3812 0.503985C17.0675 0.500245 17.7477 0.500244 18.4377 0.500244H220.572L220.689 0.500242C221.327 0.500229 221.973 0.500216 222.609 0.503741M236.518 7.01088C236.519 7.01161 236.519 7.01234 236.52 7.01308L236.964 6.7842M236.518 7.01088C236.518 7.01045 236.518 7.01002 236.518 7.00959L236.964 6.7842M236.518 7.01088C235.405 4.85016 233.641 3.09093 231.473 1.9806M236.964 6.7842C235.803 4.52872 233.961 2.69278 231.699 1.53459M231.699 1.53459L231.474 1.98149C231.474 1.98119 231.473 1.98089 231.473 1.9806M231.699 1.53459C230.567 0.966929 229.357 0.570692 228.109 0.358968M231.699 1.53459L231.471 1.97967C231.471 1.97998 231.472 1.98029 231.473 1.9806M231.473 1.9806C230.387 1.43582 229.225 1.05546 228.026 0.852098M228.109 0.358968L228.027 0.852206C228.027 0.85217 228.026 0.852134 228.026 0.852098M228.109 0.358968C226.865 0.152311 225.607 0.0415082 224.346 0.0275437L222.609 0.503742C222.609 0.503742 222.609 0.503741 222.609 0.503741M228.109 0.358968L228.025 0.851931C228.025 0.851987 228.026 0.852042 228.026 0.852098M228.026 0.852098C226.808 0.649708 225.576 0.541192 224.341 0.527513L224.338 0.527486C224.232 0.525789 224.126 0.52404 224.02 0.522287C223.548 0.514524 223.074 0.506709 222.609 0.503741" stroke="#074020"/>
<path d="M14.6928 72.8391L14.6975 72.8392C15.2631 72.8519 15.8186 72.8591 16.3875 72.8591L220.572 72.8629H220.573L222.611 72.8591H222.612C223.168 72.8591 223.741 72.8519 224.289 72.8392L224.294 72.8391C225.447 72.8251 226.598 72.7251 227.736 72.5399C228.778 72.3635 229.787 72.0319 230.73 71.556C231.657 71.0863 232.502 70.4708 233.232 69.7333L233.236 69.7295C233.968 69.0064 234.581 68.1729 235.053 67.2597C235.527 66.3205 235.853 65.3142 236.02 64.2763L236.021 64.2733C236.209 63.1488 236.314 62.012 236.336 60.8722C236.336 60.8718 236.336 60.8715 236.336 60.8711L236.836 60.8805C236.843 60.3056 236.843 59.7471 236.843 59.1373L14.6928 72.8391ZM14.6928 72.8391C13.5401 72.8242 12.3901 72.7242 11.2522 72.5401C10.2174 72.3622 9.21512 72.0318 8.27821 71.5595C7.35304 71.0928 6.50929 70.4809 5.77927 69.7471L5.77459 69.7426C5.03458 69.0181 4.41856 68.1779 3.95088 67.2553L3.95047 67.2545C3.47589 66.3225 3.14747 65.3236 2.97663 64.2924L2.97657 64.292C2.7872 63.1548 2.68474 62.0049 2.67008 60.8522H2.67016L2.66989 60.8435C2.66408 60.6506 2.65724 60.2271 2.65183 59.8471C2.64913 59.6582 2.64681 59.4815 2.64516 59.352L2.64323 59.1977L2.64272 59.1554L2.64259 59.1443L2.64258 59.1435V15.8363L2.64258 15.8358L2.64273 15.8249L2.64327 15.7832L2.6453 15.6314C2.64703 15.504 2.64945 15.3303 2.65221 15.1447C2.65777 14.7718 2.66463 14.3564 2.67001 14.1703L2.67008 14.1703L2.67018 14.1619C2.68421 13.0112 2.78606 11.8631 2.97484 10.7277L2.9749 10.7274C3.14611 9.69315 3.47488 8.69101 3.94986 7.75567L3.95029 7.75482C4.41649 6.8324 5.0294 5.99116 5.76532 5.26374L5.76532 5.26374L5.76719 5.26188C6.50329 4.52656 7.35058 3.91076 8.27822 3.43695C9.21247 2.96665 10.2123 2.6388 11.2443 2.46439C12.3861 2.27835 13.5402 2.17777 14.6971 2.16348L14.6976 2.16347L16.3918 2.14062H222.599H222.603L224.314 2.16439L224.315 2.1644C225.461 2.17797 226.604 2.27762 227.735 2.46249C228.778 2.63918 229.789 2.96946 230.734 3.44247C232.593 4.39761 234.104 5.90788 235.059 7.76158C235.525 8.68967 235.848 9.68265 236.017 10.7069L236.017 10.7079C236.208 11.8531 236.316 13.0108 236.338 14.1716M14.6928 72.8391L236.338 14.1716M236.338 14.1716C236.338 14.1722 236.338 14.1729 236.338 14.1735L236.837 14.1641C236.843 14.6951 236.843 15.2655 236.843 15.8331L236.338 14.1716Z" stroke="#074020"/>
<path d="M47.1035 38.0637C47.1237 36.4987 47.5408 34.9642 48.316 33.6031C49.0911 32.2419 50.1991 31.0983 51.5369 30.2786C50.6871 29.0689 49.5659 28.0734 48.2625 27.3711C46.959 26.6689 45.5093 26.2791 44.0283 26.233C40.8691 25.9025 37.8064 28.117 36.1966 28.117C34.5556 28.117 32.0769 26.2658 29.4079 26.3205C27.6814 26.3761 25.9989 26.8764 24.5242 27.7728C23.0495 28.6692 21.8329 29.931 20.9929 31.4352C17.3545 37.7135 20.0684 46.9405 23.5538 52.0153C25.2975 54.5004 27.3355 57.2762 30.0022 57.1778C32.6117 57.0699 33.5863 55.5194 36.7362 55.5194C39.8568 55.5194 40.7712 57.1777 43.492 57.1152C46.2921 57.0699 48.0563 54.6191 49.7389 52.1105C50.9918 50.3399 51.9558 48.3829 52.5954 46.3121C50.9686 45.6264 49.5804 44.4785 48.6038 43.0117C47.6272 41.5449 47.1054 39.8241 47.1035 38.0637Z" fill="#074020"/>
<path d="M41.9642 22.8954C43.491 21.0687 44.2431 18.7209 44.061 16.3505C41.7285 16.5946 39.5739 17.7057 38.0265 19.4622C37.27 20.3203 36.6905 21.3187 36.3213 22.4001C35.9521 23.4815 35.8004 24.6249 35.8749 25.7648C37.0415 25.7768 38.1957 25.5248 39.2505 25.0277C40.3053 24.5307 41.2332 23.8016 41.9642 22.8954Z" fill="#074020"/>
<path d="M67.5786 27.5655V17.9589H64.0474V16.3778H72.8458V17.9589H69.322V27.5655H67.5786Z" fill="#074020"/>
<path d="M80.9537 25.2859C80.7265 26.0575 80.2344 26.725 79.5633 27.1715C78.8923 27.6181 78.0851 27.8152 77.2829 27.7285C76.7248 27.7432 76.1701 27.6367 75.6575 27.4163C75.1448 27.1959 74.6864 26.867 74.3141 26.4524C73.9418 26.0378 73.6644 25.5473 73.5013 25.0152C73.3382 24.483 73.2933 23.9218 73.3696 23.3706C73.2953 22.8177 73.341 22.2553 73.5038 21.7216C73.6665 21.1878 73.9423 20.6951 74.3127 20.2769C74.6831 19.8586 75.1393 19.5245 75.6505 19.2973C76.1616 19.07 76.7158 18.9549 77.2756 18.9596C79.6327 18.9596 81.0547 20.5646 81.0547 23.2159V23.7972H75.0727V23.8906C75.0465 24.2004 75.0856 24.5123 75.1874 24.8062C75.2893 25.1001 75.4516 25.3696 75.664 25.5973C75.8764 25.825 76.1342 26.006 76.4209 26.1286C76.7076 26.2512 77.0169 26.3128 77.3288 26.3093C77.7287 26.3572 78.1339 26.2854 78.4928 26.1032C78.8517 25.9209 79.1481 25.6364 79.3443 25.2858L80.9537 25.2859ZM75.0727 22.565H79.3516C79.3727 22.2816 79.3341 21.997 79.2382 21.7294C79.1423 21.4618 78.9913 21.2171 78.795 21.0112C78.5986 20.8052 78.3611 20.6424 78.0979 20.5333C77.8346 20.4243 77.5514 20.3713 77.2664 20.3778C76.9772 20.3742 76.6903 20.4283 76.4224 20.5369C76.1546 20.6456 75.9112 20.8065 75.7068 21.0104C75.5023 21.2142 75.3409 21.4568 75.232 21.7238C75.1231 21.9908 75.0689 22.2768 75.0727 22.565ZM76.2706 17.7109L78.2236 15.0439H80.1839L77.9976 17.7109H76.2706Z" fill="#074020"/>
<path d="M83.377 15.8267H85.0488V27.5655H83.377V15.8267Z" fill="#074020"/>
<path d="M94.9566 25.2859C94.7294 26.0575 94.2373 26.725 93.5663 27.1715C92.8952 27.6181 92.088 27.8152 91.2858 27.7285C90.7277 27.7432 90.1731 27.6367 89.6604 27.4163C89.1478 27.1959 88.6894 26.867 88.317 26.4524C87.9447 26.0378 87.6674 25.5473 87.5043 25.0152C87.3412 24.483 87.2962 23.9218 87.3726 23.3706C87.2982 22.8177 87.344 22.2553 87.5067 21.7216C87.6694 21.1878 87.9453 20.6951 88.3156 20.2769C88.686 19.8586 89.1422 19.5245 89.6534 19.2973C90.1646 19.07 90.7188 18.9549 91.2785 18.9596C93.6356 18.9596 95.0576 20.5646 95.0576 23.2159V23.7972H89.0756V23.8906C89.0494 24.2004 89.0885 24.5123 89.1903 24.8062C89.2922 25.1001 89.4545 25.3696 89.6669 25.5973C89.8793 25.825 90.1371 26.006 90.4238 26.1286C90.7105 26.2512 91.0198 26.3128 91.3317 26.3093C91.7316 26.3572 92.1368 26.2854 92.4957 26.1032C92.8546 25.9209 93.1509 25.6364 93.3471 25.2858L94.9566 25.2859ZM89.0756 22.565H93.3545C93.3756 22.2816 93.3369 21.997 93.2411 21.7294C93.1452 21.4618 92.9942 21.2171 92.7978 21.0112C92.6015 20.8052 92.364 20.6424 92.1008 20.5333C91.8375 20.4243 91.5543 20.3713 91.2692 20.3778C90.9801 20.3742 90.6931 20.4283 90.4253 20.5369C90.1574 20.6456 89.9141 20.8065 89.7097 21.0104C89.5052 21.2142 89.3438 21.4568 89.2349 21.7238C89.126 21.9908 89.0719 22.2768 89.0756 22.565ZM90.2735 17.7109L92.2264 15.0439H94.1868L92.0005 17.7109H90.2735Z" fill="#074020"/>
<path d="M102.849 21.882C102.743 21.4442 102.482 21.0589 102.115 20.7959C101.748 20.5329 101.299 20.4096 100.849 20.4483C99.4487 20.4483 98.5926 21.5176 98.5926 23.3167C98.5926 25.1468 99.4561 26.2399 100.849 26.2399C101.295 26.2914 101.744 26.1788 102.112 25.9232C102.481 25.6676 102.743 25.2867 102.849 24.852H104.475C104.368 25.7069 103.929 26.4862 103.254 27.0236C102.578 27.5609 101.718 27.8139 100.858 27.7286C100.291 27.7464 99.7279 27.6407 99.2068 27.4188C98.6856 27.1969 98.2194 26.8642 97.8407 26.444C97.462 26.0238 97.18 25.5262 97.0145 24.986C96.8489 24.4458 96.8037 23.8761 96.8821 23.3167C96.8077 22.7614 96.8557 22.1967 97.0229 21.6618C97.1901 21.127 97.4724 20.6349 97.8501 20.22C98.2278 19.8052 98.6918 19.4774 99.2097 19.2598C99.7276 19.0421 100.287 18.9397 100.849 18.9597C101.716 18.8801 102.58 19.1409 103.258 19.6867C103.935 20.2325 104.372 21.0202 104.475 21.8821L102.849 21.882Z" fill="#074020"/>
<path d="M106.695 15.8267H108.352V20.4794H108.484C108.707 19.9931 109.074 19.587 109.536 19.3164C109.998 19.0457 110.533 18.9237 111.067 18.9669C111.477 18.9447 111.887 19.0129 112.268 19.1667C112.648 19.3206 112.99 19.5562 113.269 19.8568C113.548 20.1575 113.756 20.5157 113.88 20.9059C114.004 21.2962 114.04 21.7089 113.985 22.1145V27.5655H112.311V22.5255C112.311 21.177 111.681 20.494 110.5 20.494C110.212 20.4705 109.923 20.5099 109.653 20.6093C109.382 20.7088 109.137 20.866 108.934 21.0699C108.731 21.2738 108.575 21.5194 108.477 21.7897C108.379 22.0599 108.341 22.3483 108.367 22.6345V27.5655H106.695L106.695 15.8267Z" fill="#074020"/>
<path d="M116.086 25.1778C116.086 23.658 117.222 22.7819 119.237 22.6574L121.532 22.5256V21.7968C121.532 20.9051 120.94 20.4015 119.798 20.4015C118.864 20.4015 118.218 20.743 118.032 21.34H116.413C116.584 19.8898 117.953 18.9596 119.875 18.9596C121.999 18.9596 123.196 20.0133 123.196 21.7968V27.5655H121.587V26.379H121.455C121.186 26.8046 120.809 27.1516 120.362 27.3845C119.915 27.6174 119.414 27.7278 118.91 27.7046C118.555 27.7415 118.195 27.7037 117.855 27.5936C117.515 27.4836 117.202 27.3037 116.936 27.0656C116.67 26.8276 116.457 26.5366 116.31 26.2114C116.164 25.8863 116.088 25.5342 116.086 25.1778ZM121.532 24.4564V23.7505L119.463 23.8824C118.297 23.9602 117.767 24.3557 117.767 25.1C117.767 25.8599 118.429 26.3021 119.338 26.3021C119.605 26.329 119.874 26.3022 120.13 26.2232C120.386 26.1443 120.623 26.0149 120.828 25.8427C121.032 25.6705 121.2 25.459 121.321 25.2209C121.442 24.9827 121.514 24.7227 121.532 24.4564Z" fill="#074020"/>
<path d="M125.814 19.1226H127.423V20.4171H127.548C127.728 19.9677 128.047 19.5868 128.458 19.329C128.869 19.0713 129.351 18.9499 129.836 18.9825C130.086 18.9791 130.336 19.0024 130.582 19.0521V20.6964C130.275 20.6311 129.962 20.5973 129.648 20.5957C129.372 20.571 129.095 20.6041 128.832 20.6928C128.57 20.7816 128.33 20.924 128.126 21.1109C127.922 21.2978 127.76 21.5251 127.65 21.7782C127.54 22.0313 127.484 22.3046 127.486 22.5805V27.5656H125.814L125.814 19.1226Z" fill="#074020"/>
<path d="M132.119 28.4106H133.83C133.971 29.023 134.678 29.4186 135.806 29.4186C137.199 29.4186 138.024 28.7594 138.024 27.6433V26.0229H137.899C137.637 26.4765 137.254 26.849 136.792 27.0993C136.331 27.3495 135.809 27.4678 135.285 27.441C133.122 27.441 131.785 25.7748 131.785 23.247C131.785 20.6726 133.137 18.9825 135.301 18.9825C135.839 18.9638 136.371 19.0928 136.841 19.3553C137.31 19.6179 137.697 20.0039 137.961 20.4711H138.094V19.1226H139.696V27.635C139.696 29.5659 138.178 30.7909 135.782 30.7909C133.666 30.7909 132.297 29.8452 132.119 28.4106ZM138.055 23.2388C138.055 21.5569 137.182 20.4794 135.759 20.4794C134.32 20.4794 133.512 21.5569 133.512 23.2388C133.512 24.9215 134.32 25.9991 135.759 25.9991C137.192 25.9991 138.055 24.9298 138.055 23.2388Z" fill="#074020"/>
<path d="M149.523 25.2859C149.296 26.0575 148.804 26.725 148.133 27.1715C147.462 27.6181 146.654 27.8152 145.852 27.7285C145.294 27.7432 144.739 27.6367 144.227 27.4163C143.714 27.1959 143.256 26.867 142.883 26.4524C142.511 26.0377 142.234 25.5473 142.071 25.0152C141.908 24.483 141.863 23.9218 141.939 23.3706C141.865 22.8177 141.91 22.2553 142.073 21.7216C142.236 21.1878 142.512 20.6951 142.882 20.2769C143.252 19.8586 143.709 19.5245 144.22 19.2973C144.731 19.07 145.285 18.9549 145.845 18.9596C148.202 18.9596 149.624 20.5646 149.624 23.2159V23.7972H143.642V23.8906C143.616 24.2004 143.655 24.5123 143.757 24.8062C143.859 25.1001 144.021 25.3696 144.233 25.5973C144.446 25.825 144.704 26.006 144.99 26.1286C145.277 26.2512 145.586 26.3128 145.898 26.3093C146.298 26.3572 146.703 26.2854 147.062 26.1031C147.421 25.9209 147.717 25.6364 147.914 25.2858L149.523 25.2859ZM143.642 22.565H147.921C147.942 22.2816 147.903 21.997 147.807 21.7294C147.712 21.4618 147.561 21.2171 147.364 21.0112C147.168 20.8052 146.93 20.6424 146.667 20.5333C146.404 20.4243 146.121 20.3713 145.836 20.3778C145.546 20.3742 145.26 20.4283 144.992 20.5369C144.724 20.6456 144.481 20.8066 144.276 21.0104C144.072 21.2142 143.91 21.4568 143.801 21.7238C143.692 21.9908 143.638 22.2768 143.642 22.565Z" fill="#074020"/>
<path d="M151.869 19.1226H153.479V20.4171H153.604C153.784 19.9677 154.102 19.5868 154.513 19.329C154.924 19.0713 155.406 18.9499 155.891 18.9825C156.141 18.9791 156.391 19.0024 156.637 19.0521V20.6964C156.33 20.6311 156.017 20.5973 155.704 20.5957C155.428 20.571 155.15 20.6041 154.888 20.6928C154.626 20.7815 154.385 20.9239 154.181 21.1108C153.978 21.2978 153.815 21.5251 153.705 21.7782C153.595 22.0313 153.539 22.3046 153.541 22.5805V27.5656H151.869V19.1226Z" fill="#074020"/>
<path d="M162.661 23.3404C162.661 20.6725 164.037 18.9825 166.178 18.9825C166.707 18.9581 167.232 19.0845 167.692 19.3468C168.152 19.6091 168.528 19.9965 168.775 20.4637H168.9V15.8267H170.572V27.5655H168.97V26.2316H168.838C168.571 26.6956 168.183 27.0782 167.714 27.3378C167.245 27.5975 166.714 27.7243 166.178 27.7047C164.023 27.7047 162.661 26.0146 162.661 23.3404ZM164.388 23.3404C164.388 25.1311 165.235 26.2087 166.652 26.2087C168.061 26.2087 168.932 25.1156 168.932 23.3477C168.932 21.588 168.052 20.4793 166.652 20.4793C165.244 20.4793 164.388 21.5643 164.388 23.3404Z" fill="#074020"/>
<path d="M172.832 25.1778C172.832 23.658 173.967 22.7819 175.983 22.6574L178.278 22.5256V21.7968C178.278 20.9051 177.686 20.4015 176.543 20.4015C175.61 20.4015 174.963 20.743 174.778 21.34H173.159C173.33 19.8898 174.699 18.9596 176.62 18.9596C178.744 18.9596 179.942 20.0133 179.942 21.7968V27.5655H178.333V26.379H178.2C177.932 26.8046 177.555 27.1516 177.108 27.3845C176.661 27.6174 176.16 27.7278 175.656 27.7046C175.3 27.7415 174.941 27.7037 174.601 27.5936C174.261 27.4836 173.947 27.3037 173.681 27.0656C173.415 26.8276 173.202 26.5366 173.056 26.2114C172.91 25.8863 172.833 25.5342 172.832 25.1778ZM178.278 24.4564V23.7505L176.209 23.8824C175.042 23.9602 174.513 24.3557 174.513 25.1C174.513 25.8599 175.175 26.3021 176.084 26.3021C176.35 26.3289 176.62 26.3021 176.876 26.2232C177.131 26.1443 177.369 26.0149 177.573 25.8427C177.778 25.6705 177.946 25.459 178.067 25.2209C178.188 24.9827 178.259 24.7227 178.278 24.4564Z" fill="#074020"/>
<path d="M182.56 19.1226H184.169V20.4638H184.294C184.506 19.9821 184.864 19.5783 185.317 19.3086C185.77 19.039 186.296 18.917 186.822 18.9596C187.235 18.9287 187.648 18.9907 188.033 19.1408C188.418 19.291 188.764 19.5256 189.046 19.8272C189.328 20.1288 189.538 20.4896 189.66 20.883C189.783 21.2764 189.815 21.6923 189.755 22.0998V27.5655H188.083V22.5183C188.083 21.1615 187.491 20.4867 186.255 20.4867C185.975 20.4737 185.695 20.5212 185.436 20.6259C185.176 20.7306 184.942 20.89 184.75 21.0932C184.558 21.2964 184.412 21.5386 184.323 21.8033C184.233 22.0679 184.202 22.3486 184.232 22.6263V27.5655H182.56V19.1226Z" fill="#074020"/>
<path d="M195.437 18.9596C197.342 18.9596 198.588 19.8431 198.751 21.3317H197.147C196.993 20.7119 196.385 20.3164 195.437 20.3164C194.504 20.3164 193.794 20.7577 193.794 21.4169C193.794 21.9212 194.223 22.239 195.141 22.4487L196.548 22.7737C198.16 23.1463 198.915 23.8366 198.915 25.0771C198.915 26.6665 197.428 27.7285 195.406 27.7285C193.39 27.7285 192.077 26.8212 191.928 25.3252H193.601C193.746 25.6813 194.006 25.9787 194.34 26.1698C194.674 26.3609 195.063 26.4346 195.444 26.379C196.486 26.379 197.226 25.914 197.226 25.2392C197.226 24.7356 196.829 24.4097 195.981 24.2083L194.504 23.8668C192.892 23.4868 192.146 22.7663 192.146 21.5102C192.146 20.0134 193.522 18.9596 195.437 18.9596Z" fill="#074020"/>
<path d="M66.7188 33.8754H70.2168V57.1599H66.7188V33.8754Z" fill="#074020"/>
<path d="M74.4312 42.3952L76.3419 33.8754H79.7407L77.4258 42.3952H74.4312Z" fill="#074020"/>
<path d="M92.9599 50.8666H84.0549L81.9164 57.1599H78.1445L86.5792 33.8754H90.498L98.9326 57.1599H95.0966L92.9599 50.8666ZM84.9772 47.9625H92.0358L88.5561 37.748H88.4588L84.9772 47.9625Z" fill="#074020"/>
<path d="M117.147 48.673C117.147 53.9483 114.314 57.3375 110.038 57.3375C108.955 57.394 107.878 57.1454 106.931 56.6201C105.983 56.0949 105.202 55.3142 104.679 54.3675H104.598V62.7757H101.102V40.1833H104.486V43.0068H104.551C105.098 42.0647 105.891 41.2881 106.846 40.7596C107.801 40.2311 108.882 39.9706 109.974 40.0057C114.297 40.0057 117.147 43.4115 117.147 48.673ZM113.553 48.673C113.553 45.2352 111.771 42.9757 109.052 42.9757C106.38 42.9757 104.584 45.2828 104.584 48.673C104.584 52.0934 106.38 54.3841 109.052 54.3841C111.771 54.384 113.553 52.141 113.553 48.673Z" fill="#074020"/>
<path d="M135.893 48.673C135.893 53.9483 133.06 57.3375 128.784 57.3375C127.701 57.394 126.624 57.1454 125.677 56.6201C124.729 56.0949 123.949 55.3142 123.425 54.3675H123.344V62.7757H119.849V40.1833H123.232V43.0068H123.297C123.844 42.0647 124.637 41.2881 125.592 40.7596C126.548 40.2311 127.628 39.9706 128.72 40.0057C133.043 40.0057 135.893 43.4115 135.893 48.673ZM132.299 48.673C132.299 45.2352 130.517 42.9757 127.798 42.9757C125.127 42.9757 123.33 45.2828 123.33 48.673C123.33 52.0934 125.127 54.3841 127.798 54.3841C130.517 54.384 132.299 52.141 132.299 48.673Z" fill="#074020"/>
<path d="M148.283 50.6725C148.542 52.9815 150.793 54.4975 153.868 54.4975C156.815 54.4975 158.935 52.9814 158.935 50.8995C158.935 49.0922 157.657 48.0101 154.629 47.2685L151.601 46.5407C147.311 45.508 145.32 43.5085 145.32 40.2639C145.32 36.2466 148.832 33.4872 153.82 33.4872C158.757 33.4872 162.141 36.2466 162.255 40.2639H158.726C158.514 37.9403 156.587 36.5377 153.771 36.5377C150.954 36.5377 149.027 37.9568 149.027 40.0222C149.027 41.6683 150.258 42.6369 153.269 43.3785L155.843 44.0083C160.636 45.1381 162.628 47.0579 162.628 50.4637C162.628 54.8198 159.146 57.548 153.609 57.548C148.428 57.548 144.93 54.8838 144.704 50.6724L148.283 50.6725Z" fill="#074020"/>
<path d="M170.175 36.166V40.1833H173.414V42.9427H170.175V52.3021C170.175 53.756 170.824 54.4335 172.248 54.4335C172.632 54.4268 173.016 54.3999 173.398 54.3529V57.0958C172.758 57.215 172.107 57.269 171.456 57.2569C168.008 57.2569 166.663 55.966 166.663 52.6738V42.9427H164.186V40.1833H166.663V36.166H170.175Z" fill="#074020"/>
<path d="M175.288 48.673C175.288 43.3309 178.444 39.9746 183.366 39.9746C188.305 39.9746 191.446 43.3308 191.446 48.673C191.446 54.0288 188.321 57.3705 183.366 57.3705C178.413 57.3705 175.288 54.0288 175.288 48.673ZM187.884 48.673C187.884 45.0082 186.199 42.8457 183.366 42.8457C180.533 42.8457 178.85 45.0246 178.85 48.673C178.85 52.3516 180.533 54.4976 183.366 54.4976C186.199 54.4976 187.884 52.3516 187.884 48.673Z" fill="#074020"/>
<path d="M194.329 40.1833H197.664V43.0726H197.745C197.97 42.1702 198.501 41.3727 199.247 40.8142C199.993 40.2557 200.909 39.9702 201.842 40.0056C202.244 40.0042 202.646 40.0478 203.039 40.1356V43.3949C202.531 43.2399 202 43.1688 201.469 43.1843C200.961 43.1638 200.454 43.2531 199.984 43.4461C199.514 43.6391 199.091 43.9311 198.745 44.3023C198.399 44.6734 198.138 45.1148 197.979 45.5962C197.82 46.0775 197.768 46.5874 197.825 47.0908V57.1598H194.329L194.329 40.1833Z" fill="#074020"/>
<path d="M219.157 52.174C218.687 55.2556 215.676 57.3705 211.823 57.3705C206.868 57.3705 203.792 54.0618 203.792 48.7536C203.792 43.428 206.885 39.9746 211.676 39.9746C216.388 39.9746 219.352 43.2009 219.352 48.3489V49.5428H207.322V49.7533C207.266 50.3781 207.345 51.0074 207.552 51.5996C207.759 52.1918 208.091 52.7333 208.524 53.1881C208.957 53.6429 209.483 54.0005 210.066 54.2374C210.648 54.4742 211.275 54.5847 211.904 54.5616C212.73 54.6388 213.559 54.4481 214.268 54.0179C214.977 53.5877 215.527 52.941 215.837 52.174L219.157 52.174ZM207.338 47.1074H215.854C215.885 46.5456 215.8 45.9834 215.603 45.456C215.406 44.9287 215.102 44.4476 214.71 44.0429C214.317 43.6383 213.845 43.3188 213.323 43.1046C212.801 42.8904 212.24 42.786 211.676 42.7981C211.107 42.7947 210.542 42.9038 210.015 43.119C209.488 43.3342 209.009 43.6513 208.606 44.0519C208.203 44.4526 207.883 44.9289 207.666 45.4533C207.448 45.9777 207.337 46.5399 207.338 47.1074Z" fill="#074020"/>
</svg>
