<?xml version="1.0" encoding="UTF-8"?>
<svg id="Calque_1" data-name="Calque 1" xmlns="http://www.w3.org/2000/svg" version="1.1" viewBox="0 0 239 75">
  <defs>
    <style>
      .cls-1 {
        fill: #fefbf3;
        stroke-width: 0px;
      }
    </style>
  </defs>
  <path class="cls-1" d="M47.1,38.1c0-1.6.4-3.1,1.2-4.5s1.9-2.5,3.2-3.3c-.8-1.2-2-2.2-3.3-2.9-1.3-.7-2.8-1.1-4.2-1.1-3.2-.3-6.2,1.9-7.8,1.9s-4.1-1.9-6.8-1.8c-1.7,0-3.4.6-4.9,1.5s-2.7,2.2-3.5,3.7c-3.6,6.3-.9,15.5,2.6,20.6,1.7,2.5,3.8,5.3,6.4,5.2s3.6-1.7,6.7-1.7,4,1.7,6.8,1.6c2.8,0,4.6-2.5,6.2-5,1.3-1.8,2.2-3.7,2.9-5.8-1.6-.7-3-1.8-4-3.3s-1.5-3.2-1.5-4.9v-.2Z"/>
  <path class="cls-1" d="M42,22.9c1.5-1.8,2.3-4.2,2.1-6.5-2.3.2-4.5,1.4-6,3.1-.8.9-1.3,1.9-1.7,2.9-.4,1.1-.5,2.2-.4,3.4,1.2,0,2.3-.2,3.4-.7,1.1-.5,2-1.2,2.7-2.1h0Z"/>
  <path class="cls-1" d="M67.6,27.6v-9.6h-3.5v-1.6h8.8v1.6h-3.5v9.6h-1.8Z"/>
  <path class="cls-1" d="M81,25.3c-.2.8-.7,1.4-1.4,1.9-.7.4-1.5.6-2.3.6s-1.1,0-1.6-.3c-.5-.2-1-.5-1.3-1s-.6-.9-.8-1.4c-.2-.5-.2-1.1,0-1.6,0-.6,0-1.1,0-1.6.2-.5.4-1,.8-1.4s.8-.8,1.3-1,1.1-.3,1.6-.3c2.4,0,3.8,1.6,3.8,4.3v.6h-6c0,.4,0,.7,0,1s.3.6.5.8c.2.2.5.4.8.5s.6.2.9.2.8,0,1.2-.2c.4-.2.7-.5.9-.8h1.6v-.3ZM75.1,22.6h4.3c0-.3,0-.6,0-.8,0-.3-.2-.5-.4-.7-.2-.2-.4-.4-.7-.5-.3-.1-.5-.2-.8-.2s-.6,0-.8.2c-.3.1-.5.3-.7.5s-.4.4-.5.7c0,.3-.2.6-.2.8h-.1ZM76.3,17.7l2-2.7h2l-2.2,2.7h-1.8Z"/>
  <path class="cls-1" d="M83.4,15.8h1.7v11.7h-1.7v-11.7Z"/>
  <path class="cls-1" d="M95,25.3c-.2.8-.7,1.4-1.4,1.9-.7.4-1.5.6-2.3.6s-1.1,0-1.6-.3c-.5-.2-1-.5-1.3-1-.4-.4-.6-.9-.8-1.4-.2-.5-.2-1.1,0-1.6,0-.6,0-1.1,0-1.6.2-.5.4-1,.8-1.4s.8-.8,1.3-1,1.1-.3,1.6-.3c2.4,0,3.8,1.6,3.8,4.3v.6h-6c0,.4,0,.7,0,1s.3.6.5.8c.2.2.5.4.8.5s.6.2.9.2.8,0,1.2-.2c.4-.2.7-.5.9-.8h1.6v-.3ZM89.1,22.6h4.3c0-.3,0-.6,0-.8,0-.3-.2-.5-.4-.7-.2-.2-.4-.4-.7-.5-.3-.1-.5-.2-.8-.2s-.6,0-.8.2c-.3.1-.5.3-.7.5s-.4.4-.5.7-.2.6-.2.8h-.1ZM90.3,17.7l2-2.7h2l-2.2,2.7h-1.8Z"/>
  <path class="cls-1" d="M102.8,21.9c0-.4-.4-.8-.7-1.1-.4-.3-.8-.4-1.3-.3-1.4,0-2.3,1.1-2.3,2.9s.9,2.9,2.3,2.9.9,0,1.3-.3.6-.6.7-1.1h1.6c0,.9-.5,1.6-1.2,2.2-.7.5-1.5.8-2.4.7-.6,0-1.1,0-1.7-.3-.5-.2-1-.6-1.4-1s-.7-.9-.8-1.5c-.2-.5-.2-1.1,0-1.7,0-.6,0-1.1,0-1.7.2-.5.4-1,.8-1.4s.8-.7,1.4-1c.5-.2,1.1-.3,1.6-.3.9,0,1.7.2,2.4.7.7.5,1.1,1.3,1.2,2.2h-1.6,0Z"/>
  <path class="cls-1" d="M106.7,15.8h1.7v4.7h0c.2-.5.6-.9,1.1-1.2.5-.3,1-.4,1.5-.3.4,0,.8,0,1.2.2.4.2.7.4,1,.7.3.3.5.7.6,1,0,.4.2.8,0,1.2v5.5h-1.7v-5c0-1.3-.6-2-1.8-2s-.6,0-.8.1c-.3,0-.5.3-.7.5s-.4.4-.5.7c0,.3,0,.6,0,.8v4.9h-1.7v-11.7h0Z"/>
  <path class="cls-1" d="M116.1,25.2c0-1.5,1.1-2.4,3.2-2.5h2.3v-.9c0-.9-.6-1.4-1.7-1.4s-1.6.3-1.8.9h-1.6c.2-1.5,1.5-2.4,3.5-2.4s3.3,1.1,3.3,2.8v5.8h-1.6v-1.2h0c-.3.4-.6.8-1.1,1-.4.2-.9.3-1.5.3s-.7,0-1.1-.1c-.3-.1-.7-.3-.9-.5-.3-.2-.5-.5-.6-.9,0-.3-.2-.7-.2-1h-.1ZM121.5,24.5v-.7h-2.1c-1.2.2-1.7.6-1.7,1.3s.7,1.2,1.6,1.2h.8c.3,0,.5-.2.7-.4.2-.2.4-.4.5-.6s.2-.5.2-.8Z"/>
  <path class="cls-1" d="M125.8,19.1h1.6v1.3h0c.2-.4.5-.8.9-1.1.4-.3.9-.4,1.4-.3h.7v1.6c-.3,0-.6,0-.9-.1h-.8c-.3,0-.5.2-.7.4-.2.2-.4.4-.5.7s-.2.5-.2.8v5h-1.7v-8.4h.1Z"/>
  <path class="cls-1" d="M132.1,28.4h1.7c.1.6.8,1,2,1s2.2-.7,2.2-1.8v-1.6h-.1c-.3.5-.6.8-1.1,1.1-.5.3-1,.4-1.5.3-2.2,0-3.5-1.7-3.5-4.2s1.4-4.3,3.5-4.3,1.1.1,1.5.4c.5.3.9.6,1.1,1.1h.1v-1.3h1.6v8.5c0,1.9-1.5,3.2-3.9,3.2s-3.5-.9-3.7-2.4h0ZM138.1,23.2c0-1.7-.9-2.8-2.3-2.8s-2.2,1.1-2.2,2.8.8,2.8,2.2,2.8,2.3-1.1,2.3-2.8Z"/>
  <path class="cls-1" d="M149.5,25.3c-.2.8-.7,1.4-1.4,1.9-.7.4-1.5.6-2.3.6s-1.1,0-1.6-.3c-.5-.2-1-.5-1.3-1-.4-.4-.6-.9-.8-1.4s-.2-1.1-.1-1.6c0-.6,0-1.1.1-1.6.2-.5.4-1,.8-1.4.4-.4.8-.8,1.3-1s1.1-.3,1.6-.3c2.4,0,3.8,1.6,3.8,4.3v.6h-6c0,.4,0,.7.1,1s.3.6.5.8c.2.2.5.4.8.5s.6.2.9.2.8,0,1.2-.2.7-.5.9-.8h1.6v-.3ZM143.6,22.6h4.3c0-.3,0-.6-.1-.8,0-.3-.2-.5-.4-.7s-.4-.4-.7-.5-.5-.2-.8-.2-.6,0-.8.2c-.3.1-.5.3-.7.5s-.4.4-.5.7c-.1.3-.2.6-.2.8h-.1Z"/>
  <path class="cls-1" d="M151.9,19.1h1.6v1.3h.1c.2-.4.5-.8.9-1.1.4-.3.9-.4,1.4-.3h.7v1.6c-.3,0-.6,0-.9-.1h-.8c-.3,0-.5.2-.7.4-.2.2-.4.4-.5.7s-.2.5-.2.8v5h-1.7v-8.4h0Z"/>
  <path class="cls-1" d="M162.7,23.3c0-2.7,1.4-4.4,3.5-4.4s1.1.1,1.5.4c.5.3.8.6,1.1,1.1h.1v-4.6h1.7v11.7h-1.6v-1.3h-.1c-.3.5-.7.8-1.1,1.1-.5.3-1,.4-1.5.4-2.2,0-3.5-1.7-3.5-4.4h0ZM164.4,23.3c0,1.8.8,2.9,2.3,2.9s2.3-1.1,2.3-2.9-.9-2.9-2.3-2.9-2.3,1.1-2.3,2.9Z"/>
  <path class="cls-1" d="M172.8,25.2c0-1.5,1.1-2.4,3.2-2.5h2.3v-.9c0-.9-.6-1.4-1.7-1.4s-1.6.3-1.8.9h-1.6c.2-1.5,1.5-2.4,3.5-2.4s3.3,1.1,3.3,2.8v5.8h-1.6v-1.2h-.1c-.3.4-.6.8-1.1,1-.4.2-.9.3-1.5.3s-.7,0-1.1-.1c-.3-.1-.7-.3-.9-.5-.3-.2-.5-.5-.6-.9-.1-.3-.2-.7-.2-1h0ZM178.3,24.5v-.7h-2.1c-1.2.2-1.7.6-1.7,1.3s.7,1.2,1.6,1.2h.8c.3,0,.5-.2.7-.4.2-.2.4-.4.5-.6s.2-.5.2-.8Z"/>
  <path class="cls-1" d="M182.6,19.1h1.6v1.3h.1c.2-.5.6-.9,1-1.2.5-.3,1-.4,1.5-.3.4,0,.8,0,1.2.2s.7.4,1,.7.5.7.6,1.1.2.8,0,1.2v5.5h-1.7v-5c0-1.4-.6-2-1.8-2s-.6,0-.8.1c-.3.1-.5.3-.7.5s-.3.4-.4.7c0,.3-.1.5,0,.8v4.9h-1.7v-8.4h0Z"/>
  <path class="cls-1" d="M195.4,19c1.9,0,3.2.9,3.3,2.4h-1.6c-.2-.6-.8-1-1.7-1s-1.6.4-1.6,1.1.4.8,1.3,1l1.4.3c1.6.4,2.4,1.1,2.4,2.3s-1.5,2.7-3.5,2.7-3.3-.9-3.5-2.4h1.7c.1.4.4.7.7.8.3.2.7.3,1.1.2,1,0,1.8-.5,1.8-1.1s-.4-.8-1.2-1l-1.5-.3c-1.6-.4-2.4-1.1-2.4-2.4s1.4-2.6,3.3-2.6Z"/>
  <path class="cls-1" d="M66.7,33.9h3.5v23.3h-3.5v-23.3Z"/>
  <path class="cls-1" d="M74.4,42.4l1.9-8.5h3.4l-2.3,8.5h-3Z"/>
  <path class="cls-1" d="M93,50.9h-8.9l-2.1,6.3h-3.8l8.4-23.3h3.9l8.4,23.3h-3.8l-2.1-6.3ZM85,48h7.1l-3.5-10.2h0l-3.5,10.2h0Z"/>
  <path class="cls-1" d="M117.1,48.7c0,5.3-2.8,8.7-7.1,8.7s-2.2-.2-3.1-.7-1.7-1.3-2.3-2.3h0v8.4h-3.5v-22.6h3.4v2.8h0c.5-.9,1.3-1.7,2.3-2.2s2-.8,3.1-.8c4.3,0,7.2,3.4,7.2,8.7ZM113.6,48.7c0-3.4-1.8-5.7-4.5-5.7s-4.5,2.3-4.5,5.7,1.8,5.7,4.5,5.7,4.5-2.2,4.5-5.7Z"/>
  <path class="cls-1" d="M135.9,48.7c0,5.3-2.8,8.7-7.1,8.7s-2.2-.2-3.1-.7-1.7-1.3-2.3-2.3h0v8.4h-3.5v-22.6h3.4v2.8h0c.5-.9,1.3-1.7,2.3-2.2s2-.8,3.1-.8c4.3,0,7.2,3.4,7.2,8.7ZM132.3,48.7c0-3.4-1.8-5.7-4.5-5.7s-4.5,2.3-4.5,5.7,1.8,5.7,4.5,5.7,4.5-2.2,4.5-5.7Z"/>
  <path class="cls-1" d="M148.3,50.7c.3,2.3,2.5,3.8,5.6,3.8s5.1-1.5,5.1-3.6-1.3-2.9-4.3-3.6l-3-.7c-4.3-1-6.3-3-6.3-6.3s3.5-6.8,8.5-6.8,8.3,2.8,8.4,6.8h-3.5c-.2-2.3-2.1-3.7-5-3.7s-4.7,1.4-4.7,3.5,1.2,2.6,4.2,3.4l2.6.6c4.8,1.1,6.8,3,6.8,6.5s-3.5,7.1-9,7.1-8.7-2.7-8.9-6.9h3.6-.1Z"/>
  <path class="cls-1" d="M170.2,36.2v4h3.2v2.8h-3.2v9.4c0,1.5.6,2.1,2.1,2.1h1.1v2.7c-.6,0-1.3.2-1.9.2-3.4,0-4.8-1.3-4.8-4.6v-9.7h-2.5v-2.8h2.5v-4h3.5,0Z"/>
  <path class="cls-1" d="M175.3,48.7c0-5.3,3.2-8.7,8.1-8.7s8.1,3.4,8.1,8.7-3.1,8.7-8.1,8.7-8.1-3.3-8.1-8.7ZM187.9,48.7c0-3.7-1.7-5.8-4.5-5.8s-4.5,2.2-4.5,5.8,1.7,5.8,4.5,5.8,4.5-2.1,4.5-5.8Z"/>
  <path class="cls-1" d="M194.3,40.2h3.3v2.9h0c.2-.9.8-1.7,1.5-2.3s1.7-.8,2.6-.8.8,0,1.2,0v3.3c-.5-.2-1-.2-1.6-.2s-1,0-1.5.3c-.5.2-.9.5-1.2.9s-.6.8-.8,1.3-.2,1-.2,1.5v10.1h-3.5v-17h.2Z"/>
  <path class="cls-1" d="M219.2,52.2c-.5,3.1-3.5,5.2-7.3,5.2s-8-3.3-8-8.6,3.1-8.8,7.9-8.8,7.7,3.2,7.7,8.4v1.2h-12v.2c0,.6,0,1.3.2,1.8.2.6.5,1.1,1,1.6s1,.8,1.5,1c.6.2,1.2.3,1.8.3s1.7,0,2.4-.5,1.3-1.1,1.6-1.8h3.3,0ZM207.3,47.1h8.5c0-.6,0-1.1-.3-1.7-.2-.5-.5-1-.9-1.4s-.9-.7-1.4-.9-1.1-.3-1.6-.3-1.1,0-1.7.3c-.5.2-1,.5-1.4.9s-.7.9-.9,1.4-.3,1.1-.3,1.7h0Z"/>
  <path class="cls-1" d="M228.5,2c4.7,0,8.5,3.8,8.5,8.5v54.1c0,4.7-3.8,8.5-8.5,8.5H10.5c-4.7,0-8.5-3.8-8.5-8.5V10.5C2,5.8,5.8,2,10.5,2h218.1M228.5,0H10.5C4.7,0,0,4.7,0,10.5v54.1c0,5.8,4.7,10.5,10.5,10.5h218.1c5.8,0,10.5-4.7,10.5-10.5V10.5c0-5.8-4.7-10.5-10.5-10.5h-.1Z"/>
</svg>