<?xml version="1.0" encoding="UTF-8"?><svg id="Calque_2" xmlns="http://www.w3.org/2000/svg" xmlns:xlink="http://www.w3.org/1999/xlink" viewBox="0 0 53.46 89.96"><defs><style>.cls-1{clip-path:url(#clippath);}.cls-2{fill:none;}.cls-2,.cls-3{stroke-width:0px;}.cls-3{fill:#fff;}</style><clipPath id="clippath"><rect class="cls-2" width="53.46" height="89.96"/></clipPath></defs><g id="Calque_1-2"><g class="cls-1"><path class="cls-3" d="M8.28,55.87c0,1.06-.55,1.85-1.5,2.15-.37.12-.85.18-1.48.18s-1.12-.06-1.49-.18c-.95-.3-1.5-1.09-1.5-2.15,0-.82.36-1.51.97-1.87.06-.04.13-.05.22-.05.19,0,.35.15.35.35,0,.14-.07.26-.21.35-.4.29-.59.68-.59,1.23,0,.71.35,1.2,1,1.41.32.11.68.15,1.25.15s.92-.04,1.24-.15c.66-.21,1-.69,1-1.41,0-.55-.19-.94-.59-1.23-.14-.09-.2-.21-.2-.35,0-.19.15-.35.35-.35.09,0,.16.02.22.06.61.35.97,1.05.97,1.86"/><path class="cls-3" d="M8.28,51.42c0,1.2-.67,1.98-1.72,1.98-1.12,0-1.73-.78-1.73-2.19v-1.43h-.4c-.98,0-1.38.4-1.38,1.39,0,.49.18.97.34,1.25.05.08.08.17.08.26,0,.21-.15.36-.36.36-.11,0-.23-.06-.31-.15-.31-.4-.49-1.05-.49-1.74,0-1.43.65-2.1,2.06-2.1h2.27c.31,0,.42-.03.57-.11l.42-.22c.05-.03.13-.06.21-.06.22,0,.37.16.37.39,0,.15-.07.27-.23.36l-.39.24c.48.45.69.99.69,1.79M5.53,51.12c0,1.07.31,1.52,1.03,1.52.82,0,.99-.72.99-1.32,0-.95-.45-1.54-1.18-1.54h-.83v1.35Z"/><path class="cls-3" d="M8.21,43.62c0,.24-.15.38-.4.38h-3.14c-1.09,0-1.61.46-1.61,1.4,0,.86.61,1.46,1.5,1.46h3.25c.25,0,.4.15.4.38s-.15.38-.4.38H2.79c-.25,0-.41-.15-.41-.38s.15-.38.41-.38h.2c-.44-.35-.68-.9-.68-1.6,0-1.27.82-2.03,2.2-2.03h3.29c.25,0,.4.15.4.38"/><path class="cls-3" d="M8.2,40.06v.15c0,1.08-.44,1.5-1.57,1.5h-3.5v.46c0,.23-.14.37-.35.37s-.35-.14-.35-.37v-.46H.99c-.25,0-.41-.15-.41-.39s.16-.38.41-.38h1.43v-.9c0-.23.14-.37.35-.37s.35.15.35.37v.89h3.48c.68,0,.85-.18.85-.88,0-.23.15-.39.37-.39s.37.16.37.39"/><path class="cls-3" d="M8.28,36.84c0,1.05-.55,1.84-1.5,2.15-.43.14-.86.19-1.49.19s-1.04-.05-1.48-.19c-.95-.31-1.5-1.1-1.5-2.15s.55-1.85,1.5-2.16c.44-.14.86-.19,1.48-.19s1.05.06,1.49.19c.96.32,1.5,1.1,1.5,2.16M3.05,36.84c0,.69.37,1.21,1,1.42.32.11.67.15,1.24.15s.93-.04,1.25-.15c.64-.21,1-.73,1-1.42s-.35-1.21-1-1.43c-.32-.11-.67-.15-1.25-.15s-.91.04-1.24.15c-.65.21-1,.72-1,1.43"/><path class="cls-3" d="M8.21,29.41c0,.23-.15.38-.4.38h-3.14c-1.09,0-1.61.46-1.61,1.4,0,.86.61,1.46,1.5,1.46h3.25c.25,0,.4.15.4.38s-.15.38-.4.38H2.79c-.25,0-.41-.15-.41-.38s.15-.38.41-.38h.2c-.44-.35-.68-.9-.68-1.6,0-1.27.82-2.03,2.2-2.03h3.29c.25,0,.4.15.4.38"/><path class="cls-3" d="M8.28,23.75c0,.97-.51,1.68-1.43,1.99-.48.15-.91.2-1.56.2s-1.08-.06-1.55-.2c-.92-.31-1.43-1.01-1.43-1.99,0-.76.22-1.29.68-1.63H.41c-.25,0-.41-.15-.41-.38s.16-.38.41-.38h7.4c.25,0,.4.15.4.38s-.15.38-.4.38h-.21c.46.33.68.87.68,1.63M3.05,23.65c0,.68.34,1.16.97,1.37.33.11.69.15,1.27.15s.95-.04,1.28-.15c.62-.21.97-.69.97-1.37s-.32-1.18-.93-1.38c-.29-.09-.75-.14-1.32-.14s-1.02.05-1.31.14c-.61.21-.93.68-.93,1.38"/><path class="cls-3" d="M8.28,17.92c0,1.11-.52,1.87-1.51,2.2-.39.13-.8.18-1.48.18s-1.08-.05-1.48-.18c-.95-.31-1.5-1.09-1.5-2.13s.55-1.83,1.5-2.14c.37-.12.8-.18,1.36-.18.21,0,.36.15.36.36v3.49c.48,0,.7-.02.96-.11.69-.23,1.05-.76,1.05-1.52,0-.61-.18-1.05-.61-1.47-.09-.09-.14-.19-.14-.28,0-.2.15-.35.34-.35.1,0,.18.03.25.08.58.46.9,1.19.9,2.05M3.03,17.99c0,.71.36,1.22,1.01,1.43.22.07.46.1.78.1v-3.07c-.32,0-.56.03-.78.1-.65.21-1.01.72-1.01,1.44"/><path class="cls-3" d="M26.24,52.65l-13.85,5.32c-.2.07-.34.1-.51.1-.44,0-.88-.3-.88-.91,0-.47.3-.74.67-.88l12.67-4.85v-.03l-12.67-4.75c-.37-.13-.67-.4-.67-.88,0-.61.44-.91.88-.91.17,0,.3.03.51.1l13.85,5.32c.84.3,1.11.61,1.11,1.18s-.27.88-1.11,1.18"/><path class="cls-3" d="M26.48,30.75c.51,0,.88.37.88.94,0,.37-.17.64-.57.88l-1.28.78v.07c1.32,1.18,2.06,2.6,2.06,5.12,0,3.1-1.68,5.49-4.75,5.49s-4.79-2.22-4.79-6.1v-4.11c0-.14-.07-.2-.2-.2h-1.15c-2.66,0-4.15,1.01-4.15,4.18,0,1.38.47,2.76,1.01,3.68.13.2.2.44.2.64,0,.51-.34.84-.84.84-.27,0-.54-.13-.74-.37-.74-.98-1.35-2.7-1.35-4.89,0-3.98,1.79-5.83,5.73-5.83h6.51c.91,0,1.25-.1,1.72-.34l1.21-.64c.13-.07.34-.13.5-.13M22.27,33.62h-2.39c-.14,0-.2.07-.2.2v3.84c0,3.2.98,4.55,3.14,4.55,1.99,0,3.03-1.38,3.03-3.98,0-2.76-1.35-4.62-3.57-4.62"/><path class="cls-3" d="M26.38,17.54h-1.11v.03c1.45.91,2.29,2.43,2.29,4.68,0,3.54-2.22,5.56-6.13,5.56h-9.44c-.64,0-.98-.37-.98-.91s.34-.91.98-.91h9c3.2,0,4.82-1.35,4.82-4.15,0-2.43-1.72-4.31-4.48-4.31h-9.34c-.64,0-.98-.37-.98-.91s.34-.91.98-.91h14.39c.64,0,.98.37.98.91s-.34.91-.98.91"/><path class="cls-3" d="M26.38,1.84h-1.18v.03c1.38.77,2.36,2.19,2.36,4.82s-1.45,4.69-3.98,5.53c-1.31.4-2.56.57-4.42.57s-3.07-.17-4.38-.57c-2.53-.84-3.98-2.8-3.98-5.53s.98-4.05,2.36-4.82v-.03H5.14c-.64,0-.98-.37-.98-.91S4.5.02,5.14.02h21.24c.64,0,.98.37.98.91s-.34.91-.98.91M23.01,2.24c-.88-.27-2.22-.4-3.84-.4s-2.93.13-3.81.4c-1.89.64-2.8,2.12-2.8,4.15s1.08,3.51,2.9,4.11c1.05.34,2.12.44,3.71.44s2.69-.1,3.74-.44c1.82-.61,2.9-2.06,2.9-4.11s-.91-3.51-2.8-4.15"/><path class="cls-3" d="M27.5,61.16c0-.22-.19-.4-.41-.4H2.92c-.22,0-.41.18-.41.4,0,.01-.03,1.17,0,2.86.04,1.55.14,3.88.44,6.19.11.89.27,1.77.49,2.68h0l.13.52h0c.54,2.08,1.35,4.12,2.42,6.06,1.48,2.71,3.49,5.36,6.12,8.1.16.17.32.33.47.49.45.47.84.88,1.17,1.19.52.49.89.7,1.24.73h.03s.03,0,.03,0c.36-.02.71-.24,1.23-.73.28-.26.59-.59.96-.97.21-.22.43-.45.68-.71,2.64-2.76,4.64-5.4,6.11-8.1,1.07-1.94,1.89-3.98,2.43-6.06l.14-.52h0c.22-.9.39-1.8.5-2.68.22-1.83.36-3.91.41-6.19.03-1.68,0-2.85,0-2.86M13.18,87.48c-.15-.16-.3-.32-.47-.49-2.59-2.69-4.55-5.28-5.99-7.92-.61-1.11-1.13-2.24-1.56-3.4l9.76,13.44c-.12-.05-.31-.18-.61-.46-.31-.29-.69-.69-1.13-1.15M15.71,88.63c-.12.11-.21.19-.3.26l-10.8-14.87c-.03-.1-.06-.21-.09-.31h1.38l10.41,14.32c-.22.23-.42.43-.6.6M16.67,87.66l-10.13-13.95h1.52l9.48,13.05c-.07.07-.14.15-.21.22-.24.24-.45.47-.65.68M23.15,73.71l1.62,2.23c-.17.44-.36.88-.56,1.32l-2.58-3.55h1.52ZM20.99,73.71l2.97,4.08c-.2.41-.41.82-.63,1.22l-3.85-5.31h1.52ZM18.84,73.71l4.22,5.8c-.22.38-.45.76-.69,1.14l-5.04-6.94h1.52ZM16.68,73.71l5.38,7.41c-.23.36-.48.72-.74,1.07l-6.17-8.49h1.52ZM14.52,73.71l6.48,8.93c-.25.34-.51.68-.78,1.02l-7.22-9.94h1.52ZM12.37,73.71l7.53,10.36c-.26.32-.53.65-.81.97l-8.23-11.33h1.52ZM10.21,73.71l8.52,11.73c-.27.31-.55.62-.84.93l-9.2-12.66h1.52ZM24.98,75.36l-1.2-1.65h1.73c-.16.55-.34,1.1-.53,1.65M26.67,64c-.05,2.25-.19,4.3-.41,6.1-.12.91-.29,1.84-.52,2.78H4.3c-.23-.95-.4-1.86-.52-2.78-.29-2.27-.4-4.57-.43-6.11-.03-1.08-.02-1.94-.01-2.41h23.35c0,.47.01,1.33-.01,2.41"/><path class="cls-3" d="M7.63,63.46c0-.11.07-.18.17-.18s.17.07.17.18v2.08s0,.02.02.02h1.12c.1,0,.17.07.17.16s-.06.16-.17.16h-1.32c-.1,0-.16-.07-.16-.17v-2.25Z"/><path class="cls-3" d="M9.9,63.46c0-.11.07-.18.17-.18s.17.07.17.18v2.25c0,.11-.07.18-.17.18-.1,0-.17-.07-.17-.18v-2.25Z"/><path class="cls-3" d="M11.1,63.45c0-.09.06-.15.15-.15h.8c.51,0,.78.27.78.68,0,.3-.14.49-.35.56h0c.19.06.4.27.4.6,0,.49-.31.74-.83.74h-.79c-.09,0-.15-.06-.15-.15v-2.28ZM12.05,64.41c.29,0,.45-.16.45-.4s-.17-.4-.45-.4h-.58s-.02,0-.02.02v.76s0,.02.02.02h.58ZM11.46,65.57h.6c.31,0,.47-.17.47-.43s-.17-.42-.47-.42h-.6s-.02,0-.02.02v.8s0,.02.02.02"/><path class="cls-3" d="M13.62,63.45c0-.09.06-.15.15-.15h1.33c.1,0,.17.07.17.16s-.07.16-.17.16h-1.12s-.02,0-.02.02v.76s0,.02.02.02h.93c.1,0,.17.07.17.15,0,.09-.06.16-.17.16h-.93s-.02,0-.02.02v.79s0,.02.02.02h1.12c.1,0,.17.07.17.16s-.07.16-.17.16h-1.33c-.1,0-.15-.06-.15-.15v-2.28Z"/><path class="cls-3" d="M15.98,65.71v-2.26c0-.09.06-.15.15-.15h.81c.5,0,.82.29.82.74,0,.35-.18.6-.49.69l.46.91s.02.06.02.09c0,.08-.06.16-.16.16-.07,0-.12-.03-.16-.11l-.51-1.01h-.58s-.02,0-.02.02v.91c0,.11-.07.18-.17.18-.1,0-.17-.07-.17-.18M17.42,64.04c0-.27-.18-.43-.48-.43h-.6s-.02,0-.02.02v.81s0,.02.02.02h.6c.3,0,.48-.16.48-.43"/><path class="cls-3" d="M20.02,63.3c.1,0,.17.07.17.16s-.07.16-.17.16h-.6s-.02,0-.02.02v2.08c0,.11-.07.18-.17.18s-.17-.07-.17-.18v-2.08s0-.02-.02-.02h-.6c-.1,0-.17-.07-.17-.16s.06-.16.17-.16h1.57Z"/><path class="cls-3" d="M20.8,63.45c0-.09.06-.15.15-.15h1.33c.1,0,.17.07.17.16s-.06.16-.17.16h-1.12s-.02,0-.02.02v.76s0,.02.02.02h.93c.1,0,.17.07.17.16s-.06.16-.17.16h-.93s-.02,0-.02.02v.78s0,.02.02.02h1.12c.1,0,.17.07.17.16s-.06.16-.17.16h-1.33c-.1,0-.15-.06-.15-.15v-2.28ZM21.75,62.5s.06-.05.1-.05c.07,0,.13.05.13.12,0,.04-.01.07-.04.1l-.26.29s-.07.06-.11.06c-.07,0-.12-.05-.12-.12,0-.04.02-.07.04-.1l.26-.3Z"/><path class="cls-3" d="M13.62,66.72c0-.06.04-.1.1-.1h.93c.07,0,.11.06.11.11,0,.06-.04.12-.11.12h-.76s-.01,0-.01.01v.45s0,.01.01.01h.64c.07,0,.11.06.11.12,0,.06-.04.12-.11.12h-.64s-.01,0-.01.01v.47s0,.01.01.01h.76c.07,0,.11.06.11.12,0,.06-.04.12-.11.12h-.93c-.06,0-.1-.04-.1-.1v-1.47Z"/><path class="cls-3" d="M16.37,66.61c.07,0,.12.06.12.12s-.05.12-.12.12h-.41s-.01,0-.01.02v1.31c0,.08-.06.13-.12.13s-.13-.06-.13-.13v-1.31s0-.02-.01-.02h-.41c-.07,0-.12-.06-.12-.12s.05-.12.12-.12h1.09Z"/><path class="cls-3" d="M8.97,69.17c0-.09.06-.15.15-.15h.8c.52,0,.83.31.83.77s-.31.77-.83.77h-.59s-.02,0-.02.02v.85c0,.11-.07.18-.17.18s-.17-.07-.17-.18v-2.26ZM10.41,69.79c0-.28-.19-.46-.5-.46h-.58s-.02,0-.02.02v.86s0,.02.02.02h.58c.32,0,.5-.17.5-.46"/><path class="cls-3" d="M11.02,71.39l.79-2.2c.04-.12.11-.19.22-.19s.19.07.23.19l.78,2.2s.01.05.01.08c0,.1-.07.15-.16.15-.07,0-.14-.04-.16-.12l-.17-.5h-1.06l-.18.5c-.03.08-.09.12-.16.12-.09,0-.16-.06-.16-.15,0-.03,0-.05.01-.08M12.45,70.69l-.41-1.17h-.01l-.42,1.17h.84Z"/><path class="cls-3" d="M14.91,69.02c.1,0,.17.07.17.16s-.07.16-.17.16h-.6s-.02,0-.02.02v2.08c0,.11-.07.18-.17.18s-.17-.07-.17-.18v-2.08s0-.02-.02-.02h-.6c-.1,0-.17-.07-.17-.16s.06-.16.17-.16h1.57Z"/><path class="cls-3" d="M15.69,71.44v-2.26c0-.09.06-.15.15-.15h.81c.5,0,.82.29.82.74,0,.35-.18.6-.49.69l.46.91s.02.06.02.09c0,.08-.06.16-.16.16-.07,0-.12-.03-.16-.11l-.51-1.01h-.58s-.02,0-.02.02v.91c0,.11-.07.18-.17.18-.1,0-.17-.07-.17-.18M17.13,69.77c0-.27-.18-.43-.48-.43h-.6s-.02,0-.02.02v.81s0,.02.02.02h.6c.3,0,.48-.16.48-.43"/><path class="cls-3" d="M18.26,69.19c0-.11.07-.18.17-.18s.17.07.17.18v2.25c0,.11-.07.18-.17.18-.1,0-.17-.07-.17-.18v-2.25Z"/><path class="cls-3" d="M19.46,69.17c0-.09.06-.15.15-.15h1.33c.1,0,.17.07.17.16s-.07.16-.17.16h-1.12s-.02,0-.02.02v.76s0,.02.02.02h.93c.1,0,.17.07.17.16s-.07.16-.17.16h-.93s-.02,0-.02.02v.79s0,.02.02.02h1.12c.1,0,.17.07.17.16s-.07.16-.17.16h-1.33c-.1,0-.15-.06-.15-.15v-2.28Z"/><path class="cls-3" d="M53.05,89.96c-.23,0-.41-.18-.41-.41V.41c0-.23.19-.41.41-.41s.41.19.41.41v89.13c0,.23-.19.41-.41.41"/></g></g></svg>