<?xml version="1.0" encoding="UTF-8"?>
<svg id="Calque_1" data-name="Calque 1" xmlns="http://www.w3.org/2000/svg" version="1.1" viewBox="0 0 1947.1 445.7">
  <defs>
    <style>
      .cls-1 {
        fill: #476728;
      }

      .cls-1, .cls-2 {
        stroke-width: 0px;
      }

      .cls-2 {
        fill: #fff;
      }
    </style>
  </defs>
  <g id="g37">
    <polygon class="cls-1" points="0 .1 0 26.7 0 81.1 26.8 81.1 26.8 26.7 81 26.7 81 0 0 0 0 .1"/>
    <polygon class="cls-1" points="0 364.7 0 445.6 .1 445.6 26.7 445.6 81.1 445.6 81.1 418.9 26.7 418.9 26.7 364.7 0 364.7"/>
    <polygon class="cls-1" points="364.5 419 364.5 445.7 445.4 445.7 445.4 445.6 445.4 419 445.4 364.6 418.7 364.6 418.7 419 364.5 419"/>
    <polygon class="cls-1" points="364.4 0 364.4 26.8 418.8 26.8 418.8 81 445.5 81 445.5 0 445.4 0 418.8 0 364.4 0"/>
  </g>
  <g>
    <path class="cls-1" d="M246.3,77.2c-13.7,42.2-16.6,86.3-23.1,129.7-4.2,28.2-6.6,56.8-10.4,85.1-2.2,16.9-3.7,34.2-13.2,49.2-1.5,2.4-3.1,4.8-4.9,7-19.9,24.9-47.8,23.6-65.1-3.3-13.9-21.5-18.7-46-20.3-71-4.4-68.6,17.8-128.2,63.8-178.8,15.6-17.2,34.7-29.7,58.5-33.2,12.4-1.8,16.6,2.3,14.6,15.1Z"/>
    <path class="cls-1" d="M338.7,245.8c-4.7,32.8-18.1,65.7-27.8,99.4-2,6.7-5.5,13.2-9.3,19.2-9.7,15.7-23.8,23.3-42.6,21-18.3-2.3-30.5-12.8-34.3-30.1-3-13.4-4.7-28.1-2.2-41.3,6.7-35.6,16.6-70.5,23.9-106,5.4-26.5,8.7-53.5,13-80.2,2.7-17.2,5.6-34.3,8.1-51.5,1-7,5.1-8.3,10.1-5.4,8.8,5.1,18,10.1,25.3,17,25.1,24.1,35.1,55.1,36.5,88.8.9,22.2,2.8,44.7-.7,69.1Z"/>
  </g>
  <g>
    <path class="cls-2" d="M727,90.4h-125.7v86.7h121.3v51.2h-121.3v171.7h-54.4V39.2h180.1v51.2Z"/>
    <path class="cls-2" d="M922,172.4h52.8v227.6h-52.8v-23.8c-21.7,20.2-44.9,30.4-69.9,30.4s-57.5-11.4-78-34.1c-20.4-23.2-30.6-52.2-30.6-86.9s10.2-62.5,30.6-85.3c20.4-22.7,45.9-34.1,76.6-34.1s50.2,10.9,71.3,32.7v-26.4ZM797.3,285.5c0,21.8,5.8,39.6,17.5,53.3,12,13.9,27.1,20.8,45.3,20.8s35.2-6.7,47.2-20.1c12-13.9,18-31.5,18-52.8s-6-38.9-18-52.8c-12-13.6-27.6-20.3-46.7-20.3s-33.2,6.9-45.3,20.6c-12,13.9-18,31-18,51.4Z"/>
    <path class="cls-2" d="M1071.2,172.4v130.6c0,37.7,14.9,56.5,44.6,56.5s44.6-18.8,44.6-56.5v-130.6h52.6v131.8c0,18.2-2.3,34-6.8,47.2-4.4,11.8-11.9,22.5-22.7,32-17.8,15.4-40.3,23.1-67.8,23.1s-49.8-7.7-67.5-23.1c-10.9-9.5-18.6-20.2-23.1-32-4.4-10.6-6.5-26.3-6.5-47.2v-131.8h52.6Z"/>
    <path class="cls-2" d="M1256.9,172.4h52.8v21c18.4-18.2,39.1-27.3,62.1-27.3s47.1,8.3,61.9,25c12.8,14.2,19.2,37.3,19.2,69.4v139.5h-52.8v-127.1c0-22.4-3.1-37.9-9.3-46.5-6.1-8.7-17.1-13.1-33.2-13.1s-29.8,5.8-37.1,17.3c-7.2,11.4-10.7,31.2-10.7,59.6v109.8h-52.8v-227.6Z"/>
    <path class="cls-2" d="M1561.3,39.2v360.7h-54.4V39.2h54.4Z"/>
    <path class="cls-2" d="M1625.5,399.9V39.2h75.7c36.3,0,64.9,3.6,86,10.7,22.6,7,43.1,18.9,61.4,35.7,37.2,34,55.8,78.6,55.8,133.9s-19.4,100.3-58.2,134.6c-19.5,17.1-39.9,29.1-61.2,35.7-19.9,6.7-48.2,10-84.8,10h-74.8ZM1679.9,348.8h24.5c24.5,0,44.8-2.6,61-7.7,16.2-5.5,30.8-14.1,43.9-25.9,26.8-24.5,40.2-56.3,40.2-95.6s-13.2-71.6-39.7-96.3c-23.8-22-59-32.9-105.4-32.9h-24.5v258.4Z"/>
  </g>
</svg>