<?xml version="1.0" encoding="UTF-8"?>
<svg id="Calque_1" data-name="Calque 1" xmlns="http://www.w3.org/2000/svg" version="1.1" viewBox="0 0 1947.1 445.7">
  <defs>
    <style>
      .cls-1 {
        fill: #476728;
      }

      .cls-1, .cls-2 {
        stroke-width: 0px;
      }

      .cls-2 {
        fill: #fff;
      }
    </style>
  </defs>
  <g id="florid-logo-text">
    <g id="g41">
      <g id="g37">
        <polygon class="cls-1" points="0 .1 0 26.7 0 81.1 26.8 81.1 26.8 26.7 81 26.7 81 0 0 0 0 .1"/>
        <polygon class="cls-1" points="0 364.7 0 445.6 .1 445.6 26.7 445.6 81.1 445.6 81.1 418.9 26.7 418.9 26.7 364.7 0 364.7"/>
        <polygon class="cls-1" points="364.5 419 364.5 445.7 445.4 445.7 445.4 445.6 445.4 419 445.4 364.6 418.7 364.6 418.7 419 364.5 419"/>
        <polygon class="cls-1" points="364.4 0 364.4 26.8 418.8 26.8 418.8 81 445.5 81 445.5 0 445.4 0 418.8 0 364.4 0"/>
      </g>
      <path class="cls-1" d="M339.5,155.4c-19.9.1-63.1,8.5-63.1,8.5,0,0,4-41.1,3-64.1-1.6-36.8-17.6-57.2-17.6-57.2,0,0-21.7,13.5-39.9,45.6-9.8,17.3-24.2,58.9-24.2,58.9,0,0-36.1-25.2-54.2-33.4-33.6-15.3-59.1-13.5-59.1-13.5,0,0-1,25.9,19.3,56.6,12.7,19.2,40.1,50.1,40.1,50.1,0,0-39.9,18.6-56,30.2-30,21.5-41.2,44.5-41.2,44.5,0,0,21.9,13.8,58.7,11.6,23-1.4,63.4-9.7,63.4-9.7,0,0-3.8,43.9-1.9,63.6,3.6,36.8,17.9,57.9,17.9,57.9,0,0,22.9-12.1,39.4-45,10.3-20.6,23.3-59.8,23.3-59.8,0,0,33.5,24,54,34.6,32.7,17,58.3,13.3,58.3,13.3,0,0-.9-25.5-19.6-57.4-10.1-17.1-38.9-50.4-38.9-50.4,0,0,37.5-17.1,57-29.5,31-19.8,40.7-43.9,40.7-43.9,0,0-22.5-12-59.5-11.8h0Z"/>
    </g>
  </g>
  <g>
    <path class="cls-2" d="M801.9,50.7v58.5h-144.3v92.6h110.6v57.5h-110.6v152.7h-69.4V50.7h213.8Z"/>
    <path class="cls-2" d="M920.4,29v383h-69.4V29h69.4Z"/>
    <path class="cls-2" d="M1110.9,416.7c-26.5,0-50.3-6-71.4-18.1-21.2-12.4-37.9-29.8-50.1-52.3-11.9-22.4-17.9-48.3-17.9-77.6s6.1-55.2,18.4-77.6c12.6-22.4,29.6-39.7,51.1-51.8,21.5-12.4,45.5-18.6,71.9-18.6s50.4,6.2,71.9,18.6c21.5,12.1,38.4,29.3,50.6,51.8,12.6,22.4,18.8,48.3,18.8,77.6s-6.4,55.2-19.3,77.6c-12.6,22.4-29.8,39.9-51.6,52.3-21.5,12.1-45.6,18.1-72.4,18.1h0ZM1110.9,353.5c12.6,0,24.3-3.1,35.2-9.3,11.2-6.6,20.2-16.2,26.8-29s9.9-28.3,9.9-46.6c0-27.3-6.9-48.1-20.8-62.6-13.6-14.8-30.3-22.3-50.1-22.3s-36.5,7.4-50.1,22.3c-13.2,14.5-19.8,35.4-19.8,62.6s6.4,48.3,19.3,63.1c13.2,14.5,29.8,21.7,49.6,21.7Z"/>
    <path class="cls-2" d="M1374.7,169.8c8.9-15.2,20.5-27.1,34.7-35.7,14.5-8.6,31.1-12.9,49.6-12.9v76.1h-18.4c-21.8,0-38.4,5.3-49.6,16-10.9,10.7-16.4,29.3-16.4,55.9v142.9h-69.4V125.3h69.4v44.5Z"/>
    <path class="cls-2" d="M1575.1,50.7v361.3h-69.4V50.7h69.4Z"/>
    <path class="cls-2" d="M1764.6,50.7c36.4,0,68.3,7.4,95.7,22.3,27.8,14.8,49.1,36.1,64,63.7,15.2,27.3,22.8,59,22.8,95.2s-7.6,68-22.8,95.2c-14.9,26.9-36.2,47.8-64,62.6-27.4,14.8-59.4,22.3-95.7,22.3h-121V50.7h121ZM1762.1,350.4c36.4,0,64.5-10.4,84.3-31.1,19.8-20.7,29.8-49.9,29.8-87.5s-9.9-66.9-29.8-88c-19.8-21.4-47.9-32.1-84.3-32.1h-49.1v238.6h49.1Z"/>
  </g>
</svg>