<?xml version="1.0" encoding="UTF-8"?>
<svg id="Calque_1" data-name="Calque 1" xmlns="http://www.w3.org/2000/svg" version="1.1" viewBox="0 0 237 75">
  <defs>
    <style>
      .cls-1 {
        fill: none;
        stroke: #fefbf3;
      }

      .cls-2 {
        fill: #fefbf3;
        stroke-width: 0px;
      }
    </style>
  </defs>
  <path class="cls-1" d="M52.9,38.5L20.6,21.4c-.7-.4-1.5.1-1.5.9v34.2c0,.8.8,1.2,1.5.9l32.3-17.1c.7-.4.7-1.4,0-1.8Z"/>
  <path class="cls-1" d="M22,22.5l21.5,22.5M21,56.2l22.4-22.5"/>
  <path class="cls-2" d="M64.7,25.8h3c.2,0,.5,0,.8-.2.3-.1.5-.2.8-.4.3-.2.5-.4.7-.7.2-.3.4-.7.5-1.2s.2-1,.2-1.7,0-1.2-.2-1.7c0-.5-.3-.9-.6-1.3-.3-.4-.6-.6-1.1-.8-.4-.2-1-.3-1.7-.3h-2.4s0,8.3,0,8.3ZM63.2,16.3h3.7c1.7,0,2.9.4,3.8,1.3s1.3,2.1,1.3,3.8,0,1.7-.3,2.4c-.2.7-.5,1.3-.9,1.8s-1,.8-1.6,1.1-1.4.4-2.3.4h-3.7v-10.7h0ZM73,16.3h1.4v10.7h-1.4v-10.7ZM82.1,19.4c0-.8-.4-1.3-.8-1.7-.5-.4-1.1-.5-1.8-.5h-.9c-.3,0-.6.2-.8.3-.2.1-.4.3-.5.6,0,.2-.2.5-.2.9s0,.6.3.8c.2.2.5.4.8.5s.7.2,1.1.3c.4,0,.8.2,1.2.3s.8.2,1.3.4c.4.1.8.3,1.1.5.3.2.6.5.8.9.2.4.3.8.3,1.3s0,1.1-.4,1.5c-.2.4-.6.7-1,1-.4.2-.8.4-1.3.5s-1,.2-1.5.2-1.2,0-1.7-.2c-.5-.1-1-.4-1.4-.7-.4-.3-.7-.7-1-1.2-.2-.5-.3-1-.3-1.7h1.3c0,.4,0,.8.3,1.2.2.3.4.6.7.8.3.2.6.4,1,.5.4,0,.8.1,1.2.1h1c.3,0,.6-.2.9-.3.3-.2.5-.4.6-.6.2-.2.2-.6.2-1s0-.7-.3-.9c-.2-.2-.4-.4-.8-.6-.3-.1-.7-.3-1.1-.4-.4,0-.8-.2-1.3-.3l-1.2-.3c-.4-.1-.8-.3-1.1-.5-.3-.2-.6-.5-.8-.8-.2-.3-.3-.7-.3-1.2s0-1,.3-1.4c.2-.4.5-.7.9-1s.8-.4,1.2-.6c.5-.1,1-.2,1.4-.2s1.1,0,1.5.2c.5.1.9.3,1.2.6.4.3.6.6.8,1.1.2.4.3.9.3,1.5h-1.3.1ZM86.1,21.4h2.8c.8,0,1.4-.2,1.8-.5s.6-.8.6-1.5-.2-1.1-.6-1.5c-.4-.3-1-.5-1.8-.5h-2.8v3.9h0ZM84.7,16.3h4.7c1.1,0,1.9.3,2.4.8.6.6.8,1.3.8,2.3s-.3,1.8-.8,2.3c-.6.6-1.4.8-2.4.8h-3.3v4.4h-1.4v-10.7h0ZM94.4,21.6c0,.5,0,1.1.2,1.6,0,.5.4,1,.7,1.4s.7.8,1.2,1,1,.4,1.7.4,1.2-.1,1.7-.4.9-.6,1.2-1c.3-.4.5-.9.7-1.4,0-.5.2-1.1.2-1.6s0-1.1-.2-1.6c0-.5-.4-1-.7-1.4-.3-.4-.7-.8-1.2-1-.5-.3-1-.4-1.7-.4s-1.2.1-1.7.4c-.5.2-.9.6-1.2,1s-.5.9-.7,1.4c0,.5-.2,1-.2,1.6ZM92.9,21.6c0-.7,0-1.4.3-2.1.2-.7.5-1.3,1-1.8.4-.5,1-.9,1.6-1.2s1.4-.5,2.2-.5,1.6.2,2.2.5,1.2.7,1.6,1.2.8,1.1,1,1.8c.2.7.3,1.4.3,2.1s0,1.4-.3,2.1c-.2.7-.5,1.3-1,1.8s-1,.9-1.6,1.2c-.6.3-1.4.4-2.2.4s-1.6-.1-2.2-.4-1.2-.7-1.6-1.2-.8-1.1-1-1.8c-.2-.7-.3-1.4-.3-2.1ZM104,16.3h1.5l5.6,8.7h0v-8.7h1.3v10.7h-1.6l-5.6-8.6h0v8.6h-1.3v-10.7h0ZM114,16.3h1.4v10.7h-1.4v-10.7ZM118.4,20.9h2.8c.8,0,1.4-.1,1.7-.4.4-.3.5-.7.5-1.3s0-.7-.2-.9-.3-.4-.5-.5-.5-.2-.7-.2h-3.7v3.4h0ZM116.9,16.3h5.4c.3,0,.5,0,.7.1.2,0,.4.1.6.2.3.2.6.5.9.9.2.4.4.8.4,1.4s0,1.1-.4,1.5-.7.7-1.2.9h0c.7.2,1.2.5,1.5.9.3.5.5,1,.5,1.7s0,.8-.2,1.1c0,.4-.3.7-.6,1-.3.3-.6.5-1,.7s-.9.3-1.4.3h-5.2s0-10.7,0-10.7ZM118.4,25.8h3.6c.6,0,1.1-.2,1.5-.5s.5-.8.5-1.4,0-.6-.2-.9c0-.2-.3-.4-.5-.5s-.5-.2-.7-.3h-4.2v3.7h0ZM126.3,16.3h1.4v9.5h5.7v1.2h-7.1s0-10.7,0-10.7ZM133.7,16.3h7.4v1.2h-6v3.4h5.6v1.2h-5.6v3.7h6v1.2h-7.4v-10.7ZM151.5,19.4c0-.8-.4-1.3-.8-1.7-.5-.4-1.1-.5-1.8-.5h-.9c-.3,0-.6.2-.8.3-.2.1-.4.3-.5.6-.1.2-.2.5-.2.9s0,.6.3.8c.2.2.5.4.8.5s.7.2,1.1.3c.4,0,.8.2,1.2.3.4.1.9.2,1.3.4.4.1.8.3,1.1.5s.6.5.8.9.3.8.3,1.3-.1,1.1-.4,1.5c-.2.4-.6.7-1,1-.4.2-.9.4-1.4.5s-1,.2-1.5.2-1.2,0-1.7-.2c-.5-.1-1-.4-1.4-.7-.4-.3-.7-.7-1-1.2-.2-.5-.3-1-.3-1.7h1.4c0,.4,0,.8.3,1.2.2.3.4.6.7.8.3.2.6.4,1,.5.4,0,.8.1,1.2.1h1c.3,0,.6-.2.9-.3.3-.2.5-.4.6-.6s.2-.6.2-1-.1-.7-.3-.9c-.2-.2-.4-.4-.8-.6-.3-.1-.7-.3-1.1-.4-.4,0-.8-.2-1.3-.3-.4-.1-.8-.2-1.2-.3-.4-.1-.8-.3-1.1-.5s-.6-.5-.8-.8-.3-.7-.3-1.2.1-1,.3-1.4.5-.7.9-1,.8-.4,1.2-.6c.5-.1.9-.2,1.4-.2s1.1,0,1.5.2c.5.1.9.3,1.2.6.4.3.6.6.8,1.1.2.4.3.9.3,1.5h-1.3.1ZM162.7,23.1c0,1.4-.4,2.4-1.1,3.1-.7.7-1.8,1-3.1,1s-2.5-.3-3.2-1c-.8-.7-1.2-1.7-1.2-3.1v-6.8h1.4v6.8c0,1,.3,1.7.8,2.2s1.2.7,2.2.7,1.6-.2,2.1-.7.7-1.2.7-2.2v-6.8h1.4v6.8h0ZM164,16.3h5c1,0,1.8.2,2.4.8.6.5.9,1.2.9,2.1s-.1,1.2-.4,1.7c-.3.5-.8.8-1.4,1h0c.3,0,.6.2.8.3.2.1.4.3.5.5s.2.4.3.6c0,.2.1.5.1.8v1.6c0,.3,0,.5.2.8,0,.2.2.4.3.6h-1.6c-.1-.1-.2-.3-.2-.5v-2.2c0-.3,0-.5-.1-.7,0-.2-.2-.4-.3-.6s-.3-.3-.5-.4-.5-.2-.8-.2h-3.5v4.6h-1.4v-10.7h-.3ZM168.4,21.2h.9c.3,0,.6-.1.8-.3.2-.1.4-.3.5-.6.1-.2.2-.6.2-1s-.1-1-.4-1.3-.8-.5-1.5-.5h-3.5v3.7s3,0,3,0Z"/>
  <path class="cls-2" d="M77.4,53.1c-.7.9-1.6,1.6-2.6,2s-2.1.6-3.1.6-2.5-.2-3.6-.7-1.9-1.2-2.7-2c-.7-.8-1.3-1.8-1.7-2.9-.4-1.1-.6-2.2-.6-3.4s.2-2.5.5-3.7c.4-1.2.9-2.2,1.6-3.1.7-.9,1.6-1.6,2.7-2.1s2.3-.8,3.7-.8,1.9,0,2.7.4c.9.2,1.6.6,2.3,1,.7.5,1.2,1.1,1.7,1.8s.8,1.6.9,2.7h-2.4c0-.7-.3-1.3-.7-1.8-.3-.5-.7-.9-1.2-1.2s-1-.5-1.6-.7-1.2-.2-1.9-.2c-1.1,0-2,.2-2.8.7-.8.4-1.4,1-1.9,1.7s-.8,1.5-1.1,2.4c-.2.9-.4,1.8-.4,2.8s0,1.8.4,2.7c.3.8.7,1.6,1.2,2.3s1.2,1.2,1.9,1.6c.8.4,1.6.6,2.6.6s1.8-.2,2.5-.5,1.3-.7,1.8-1.2.9-1.2,1.1-1.9.4-1.5.3-2.3h-5.7v-2h7.8v9.4h-1.5l-.6-2.2h.4ZM82.7,48.9c0,.8,0,1.5.3,2.1.2.6.5,1.1.9,1.5s.8.7,1.3.9,1,.3,1.6.3,1.1,0,1.6-.3.9-.5,1.3-.9.7-.9.9-1.5c.2-.6.3-1.3.3-2.1s0-1.5-.3-2.1c-.2-.6-.5-1.1-.9-1.5s-.8-.7-1.3-1c-.5-.2-1-.3-1.6-.3s-1.1,0-1.6.3-.9.5-1.3,1c-.4.4-.7.9-.9,1.5-.2.6-.3,1.3-.3,2.1ZM80.4,48.9c0-1,0-1.8.4-2.7.3-.8.7-1.5,1.2-2.1s1.2-1.1,2-1.5c.8-.3,1.7-.5,2.7-.5s1.9.2,2.7.5c.8.3,1.4.8,2,1.5.5.6.9,1.3,1.2,2.1.3.8.4,1.7.4,2.7s0,1.8-.4,2.7c-.3.8-.7,1.5-1.2,2.1s-1.2,1.1-2,1.4c-.8.3-1.7.5-2.7.5s-1.9-.2-2.7-.5c-.8-.3-1.4-.8-2-1.4-.5-.6-.9-1.3-1.2-2.1-.3-.8-.4-1.7-.4-2.7ZM95.5,48.9c0,.8,0,1.5.3,2.1.2.6.5,1.1.9,1.5s.8.7,1.3.9,1,.3,1.6.3,1.1,0,1.6-.3.9-.5,1.3-.9.6-.9.8-1.5c.2-.6.3-1.3.3-2.1s0-1.5-.3-2.1c-.2-.6-.5-1.1-.8-1.5-.4-.4-.8-.7-1.3-1-.5-.2-1-.3-1.6-.3s-1.1,0-1.6.3-.9.5-1.3,1c-.4.4-.7.9-.9,1.5-.2.6-.3,1.3-.3,2.1ZM93.3,48.9c0-1,0-1.8.4-2.7.3-.8.7-1.5,1.2-2.1s1.2-1.1,2-1.5c.8-.3,1.7-.5,2.7-.5s1.9.2,2.7.5c.8.3,1.4.8,2,1.5.5.6.9,1.3,1.2,2.1.3.8.4,1.7.4,2.7s0,1.8-.4,2.7c-.3.8-.7,1.5-1.2,2.1s-1.2,1.1-2,1.4c-.8.3-1.7.5-2.7.5s-1.9-.2-2.7-.5c-.8-.3-1.4-.8-2-1.4-.5-.6-.9-1.3-1.2-2.1-.3-.8-.4-1.7-.4-2.7ZM118,54.3c0,2.1-.5,3.7-1.4,4.8-1,1.1-2.5,1.6-4.6,1.6s-1.2,0-1.8-.2c-.6,0-1.2-.3-1.7-.6s-.9-.7-1.2-1.2c-.3-.5-.5-1.1-.6-1.8h2.1c0,.4,0,.7.3,1,.2.3.5.5.8.7s.7.3,1.1.3.8,0,1.1,0c.7,0,1.3,0,1.8-.4.5-.2.9-.6,1.2-1,.3-.4.5-.9.7-1.5s.2-1.3.2-2v-.8h0c-.4.8-.9,1.4-1.7,1.8-.7.4-1.5.5-2.3.5s-1.8-.2-2.5-.5-1.3-.8-1.8-1.4c-.5-.6-.9-1.3-1.1-2.1s-.3-1.6-.3-2.5,0-1.5.3-2.3c.2-.8.5-1.5,1-2.2s1.1-1.2,1.8-1.6c.8-.4,1.7-.7,2.8-.7s1.6.2,2.2.6c.7.3,1.2.9,1.6,1.6h0v-1.8h2v11.8-.2ZM112,53.6c.7,0,1.3,0,1.8-.4.5-.3.9-.7,1.2-1.1.3-.5.5-1,.7-1.6s.2-1.2.2-1.8,0-1.1-.2-1.7c0-.5-.3-1-.7-1.5-.3-.5-.7-.8-1.1-1.1-.5-.3-1-.4-1.7-.4s-1.3,0-1.8.4c-.5.2-.9.6-1.2,1-.3.4-.5.9-.7,1.5,0,.6-.2,1.2-.2,1.8s0,1.2.2,1.8c0,.6.3,1.1.6,1.6.3.5.7.8,1.1,1.1.5.3,1.1.4,1.8.4ZM119.8,37.5h2.1v17.9h-2.1v-17.9ZM132.7,47.7c0-.5-.1-1-.3-1.4-.2-.5-.4-.8-.8-1.2-.3-.3-.7-.6-1.1-.8-.4-.2-.9-.3-1.4-.3s-1.1,0-1.5.3-.8.4-1.1.8c-.3.3-.6.7-.8,1.2-.2.4-.3.9-.3,1.4h7.4,0ZM134.8,51.3c-.3,1.5-.9,2.5-1.9,3.3-1,.7-2.2,1.1-3.6,1.1s-1.9-.2-2.7-.5c-.8-.3-1.4-.8-1.9-1.4-.5-.6-.9-1.3-1.2-2.2-.2-.8-.4-1.7-.4-2.7s.2-1.9.4-2.7c.3-.8.7-1.5,1.2-2.1.6-.6,1.2-1.1,1.9-1.4.8-.3,1.6-.5,2.5-.5s2.1.2,2.8.7c.8.5,1.4,1.1,1.8,1.8.5.7.8,1.5,1,2.4s.3,1.7.2,2.5h-9.7c0,.6,0,1.1.2,1.6s.4,1,.7,1.3c.3.4.8.7,1.3.9s1.1.3,1.8.3,1.6-.2,2.2-.6c.6-.4,1-1,1.1-1.9h2.3ZM143.9,46.1h4.6c1.4,0,2.3-.3,2.9-.8.6-.6.9-1.4.9-2.5s-.3-1.9-.9-2.4c-.6-.6-1.6-.9-2.9-.9h-4.6v6.6ZM141.5,37.5h7.8c1.8,0,3.2.5,4.1,1.4.9.9,1.4,2.2,1.4,3.9s-.5,3-1.4,3.9-2.3,1.4-4.1,1.4h-5.4v7.3h-2.4v-17.9h0ZM156,37.5h2.1v17.9h-2.1v-17.9ZM171.3,55.3c-.4.2-.9.3-1.5.3s-1,0-1.3-.4c-.3-.3-.5-.8-.5-1.5-.6.7-1.3,1.2-2.1,1.5s-1.6.4-2.5.4-1.1,0-1.7-.2c-.5,0-1-.3-1.4-.6s-.7-.7-.9-1.1c-.2-.5-.3-1-.3-1.7s.1-1.3.4-1.8c.2-.5.6-.8,1-1.1s.9-.5,1.4-.7,1.1-.3,1.6-.4c.6,0,1.1-.2,1.7-.2s1-.2,1.4-.2c.4,0,.7-.3.9-.5s.4-.5.4-.9,0-.8-.3-1.1c-.2-.3-.4-.5-.7-.7-.3,0-.6-.2-.9-.3h-1c-.9,0-1.6.2-2.2.5-.6.3-.9,1-1,1.9h-2.1c0-.8.2-1.5.5-2,.3-.6.7-1,1.2-1.3.5-.4,1.1-.6,1.7-.8.6-.2,1.3-.2,2.1-.2s1.2,0,1.7,0c.6,0,1.1.3,1.6.5s.8.6,1.1,1.1.4,1.1.4,1.8v7.7c0,.2.3.3.6.3s.4,0,.7,0v1.7h0ZM167.9,48.7c-.3.2-.6.3-1.1.4-.4,0-.9.2-1.4.2s-.9,0-1.4.2c-.5,0-.9.2-1.3.3-.4.2-.7.4-.9.7s-.4.7-.4,1.2,0,.7.2.9c.1.2.3.4.5.6.2,0,.5.3.8.3h.9c.7,0,1.3,0,1.8-.3.5-.2.9-.4,1.2-.7s.6-.6.7-1c.1-.3.2-.7.2-1v-2.2l.2.4ZM176.9,57.1c-.2.6-.5,1.2-.8,1.6-.2.4-.5.8-.8,1-.3.3-.6.5-1,.6s-.8.2-1.2.2h-.8c-.2,0-.5,0-.7-.2v-2c.2,0,.4,0,.6.2h.6c.4,0,.8,0,1.1-.3s.5-.5.7-.9l.9-2.2-5.1-12.8h2.4l3.8,10.6h0l3.6-10.6h2.2l-5.6,14.6v.2Z"/>
  <path class="cls-2" d="M227.2,2c4.3,0,7.8,3.5,7.8,7.8v55.3c0,4.3-3.5,7.8-7.8,7.8H9.8c-4.3,0-7.8-3.5-7.8-7.8V9.8c0-4.3,3.5-7.8,7.8-7.8h217.3M227.2,0H9.8C4.4,0,0,4.4,0,9.8v55.3c0,5.4,4.4,9.8,9.8,9.8h217.3c5.4,0,9.8-4.4,9.8-9.8V9.8c0-5.4-4.4-9.8-9.8-9.8h0Z"/>
</svg>