<svg width="237" height="75" viewBox="0 0 237 75" fill="none" xmlns="http://www.w3.org/2000/svg">
<path d="M0.528262 60.901C0.516435 60.5031 0.511835 60.1138 0.507198 59.7214C0.505048 59.5395 0.50289 59.3569 0.5 59.1724M0.528262 60.901L220.742 0.503741C221.203 0.506708 221.674 0.514523 222.141 0.522286C222.247 0.524038 222.352 0.525788 222.457 0.527485L222.459 0.527512C223.684 0.541186 224.905 0.649656 226.113 0.851962C227.301 1.05517 228.452 1.43526 229.528 1.97973C231.677 3.08943 233.426 4.84806 234.53 7.00901C235.07 8.08739 235.444 9.24208 235.638 10.4335L235.639 10.4356C235.843 11.6521 235.956 12.8821 235.978 14.1156C235.985 14.686 235.985 15.2587 235.985 15.8333L235.986 15.844C236 16.5171 236 17.1929 236 17.8804V57.1216C236 57.8147 236 58.4868 235.985 59.1617V59.1724C235.985 59.7542 235.985 60.3143 235.978 60.8921C235.956 62.1254 235.843 63.3554 235.639 64.5719L235.638 64.5742C235.445 65.7657 235.071 66.9206 234.531 67.9989C233.983 69.0707 233.27 70.049 232.42 70.898L232.417 70.9008C231.573 71.7566 230.598 72.4707 229.53 73.016C228.453 73.5624 227.301 73.9451 226.113 74.1517C224.905 74.3524 223.683 74.4609 222.459 74.4762L222.454 74.4763C221.889 74.489 221.31 74.4963 220.745 74.4962L220.742 74.4963C220.074 74.5 219.394 74.5 218.723 74.5H18.287C17.6027 74.5 16.9281 74.5 16.2475 74.4963H16.2447C15.6779 74.4963 15.1151 74.489 14.5415 74.4763L14.5371 74.4762C13.3099 74.46 12.0857 74.3515 10.8747 74.1516C9.69097 73.9465 8.54448 73.564 7.47361 73.0167L7.47304 73.0164C6.40314 72.4713 5.42716 71.757 4.58244 70.9007L4.57853 70.8968C3.72638 70.0519 3.01598 69.0736 2.47501 68.0001L2.47478 67.9996C1.93014 66.9216 1.5528 65.766 1.35589 64.5731L1.3557 64.572C1.15224 63.3567 1.04276 62.1274 1.02823 60.8951L1.02831 60.8951L1.02804 60.8861C1.01635 60.4927 1.01184 60.111 1.00724 59.721C1.00509 59.5393 1.00292 59.3558 1 59.1685M0.528262 60.901C0.543095 62.159 0.654862 63.4139 0.86256 64.6545L0.528262 60.901ZM0.5 59.1724H1V59.1685M0.5 59.1724V15.8333M0.5 59.1724V15.8333M1 59.1685V15.8373M1 59.1685V15.8373M1 15.8373C1.00296 15.6499 1.00515 15.4644 1.00732 15.28C1.01189 14.8914 1.01641 14.5078 1.02804 14.1218L1.02812 14.1218L1.02823 14.1126C1.04275 12.8803 1.15224 11.6509 1.3557 10.4355L1.35584 10.4347C1.55332 9.24236 1.93067 8.08738 2.47483 7.00963L2.47526 7.00878C3.01668 5.93136 3.72724 4.94877 4.57955 4.09877L4.58097 4.09735C5.42964 3.24412 6.40579 2.52966 7.47397 1.97979C8.54488 1.43405 9.69153 1.05392 10.8752 0.852194C12.0856 0.650736 13.3095 0.542281 14.5364 0.527775L14.5384 0.527743C14.6589 0.525827 14.7787 0.523841 14.898 0.521863C15.3517 0.514341 15.798 0.506939 16.2478 0.503985C16.9283 0.500245 17.6028 0.500244 18.287 0.500244H218.723L218.838 0.500242C219.472 0.500229 220.112 0.500216 220.742 0.50374L1 15.8373ZM0.5 15.8333C0.502924 15.649 0.505099 15.4645 0.507274 15.28C0.511885 14.8888 0.5165 14.4973 0.528262 14.1067C0.54309 12.8487 0.654857 11.5937 0.86256 10.353C1.06831 9.11072 1.46148 7.9073 2.0285 6.78427C2.59396 5.65901 3.33613 4.63267 4.22647 3.74474L0.5 15.8333ZM220.745 74.9963C220.075 75 219.394 75 218.723 75H18.287C17.6029 75 16.927 75 16.2447 74.9963C15.6736 74.9963 15.107 74.9889 14.5304 74.9762C13.2779 74.9596 12.0283 74.8488 10.7922 74.6447L220.745 74.9963ZM220.745 74.9963C221.314 74.9963 221.897 74.9889 222.465 74.9762L220.745 74.9963ZM236.132 64.6545C236.34 63.4137 236.456 62.1591 236.478 60.901L234.977 68.2251C235.54 67.1008 235.93 65.8968 236.132 64.6545Z" stroke="#074020"/>
<path d="M14.5733 72.8391L14.578 72.8392C15.1388 72.8519 15.6896 72.8591 16.2537 72.8591L218.722 72.8629H218.723L220.744 72.8591H220.745C221.296 72.8591 221.865 72.8519 222.408 72.8392L222.413 72.8391C223.556 72.8251 224.695 72.7252 225.823 72.5402C226.856 72.3641 227.856 72.0327 228.79 71.5571C229.709 71.0877 230.547 70.4724 231.272 69.7348L231.276 69.731C232.001 69.008 232.609 68.1745 233.077 67.2611C233.547 66.3217 233.871 65.3152 234.037 64.2769L234.037 64.274C234.224 63.1493 234.328 62.0123 234.349 60.8723C234.349 60.8719 234.349 60.8716 234.349 60.8712L234.849 60.8805C234.857 60.3056 234.857 59.7471 234.857 59.1373L14.5733 72.8391ZM14.5733 72.8391C13.4308 72.8242 12.2911 72.7243 11.1633 72.5403C10.1379 72.3626 9.14444 72.0323 8.21574 71.5602C7.29897 71.0938 6.4627 70.4822 5.73902 69.7486L5.73435 69.744C5.00073 69.0197 4.38987 68.1796 3.92604 67.2569L3.92563 67.2561C3.45496 66.3239 3.12919 65.3246 2.95972 64.2931L2.95966 64.2927C2.77184 63.1553 2.67023 62.0052 2.65569 60.8523H2.65576L2.65551 60.8436C2.64974 60.6507 2.64296 60.2271 2.63759 59.8472C2.63492 59.6582 2.63262 59.4815 2.63098 59.3521L2.62907 59.1978L2.62856 59.1554L2.62843 59.1444L2.62842 59.1435V15.8363L2.62842 15.8358L2.62856 15.8249L2.62911 15.7832L2.63112 15.6313C2.63283 15.504 2.63523 15.3302 2.63797 15.1447C2.64348 14.7717 2.65028 14.3563 2.65562 14.1702L2.65569 14.1702L2.65579 14.1619C2.66971 13.0109 2.77072 11.8626 2.95794 10.7271L2.958 10.7267C3.12784 9.69207 3.45396 8.68966 3.92502 7.75416L3.92545 7.75331C4.38782 6.83072 4.9956 5.98952 5.72517 5.26225L5.72517 5.26226L5.72703 5.26039C6.45678 4.52522 7.29662 3.9097 8.21591 3.43618C9.14177 2.96616 10.1325 2.63855 11.1551 2.46428C12.2868 2.27831 13.4308 2.17776 14.5775 2.16348L14.5781 2.16347L16.258 2.14062H220.732H220.736L222.432 2.16439L222.433 2.1644C223.569 2.17797 224.703 2.27758 225.823 2.4624C226.857 2.63896 227.859 2.96897 228.796 3.44167C230.637 4.39608 232.136 5.90552 233.082 7.75915C233.545 8.68765 233.866 9.68124 234.033 10.7063L234.034 10.7072C234.223 11.8526 234.329 13.0104 234.351 14.1714M14.5733 72.8391L234.351 14.1714M234.351 14.1714C234.351 14.1721 234.351 14.1728 234.351 14.1735L234.851 14.1641C234.857 14.6951 234.857 15.2655 234.857 15.8331L234.351 14.1714Z" stroke="#074020"/>
<path d="M52.9283 38.4909L20.6224 21.4012C19.9564 21.0489 19.1548 21.5317 19.1548 22.2852V56.4645C19.1548 57.2179 19.9564 57.7007 20.6224 57.3484L52.9283 40.2588C53.6382 39.8832 53.6382 38.8664 52.9283 38.4909Z" stroke="#074020"/>
<path d="M21.9533 22.4999L43.4065 44.9998M21.0205 56.2498L43.4065 33.7498" stroke="#074020"/>
<path d="M64.6565 25.8H67.0265C67.1865 25.8 67.3865 25.79 67.6265 25.77C67.8665 25.74 68.1215 25.68 68.3915 25.59C68.6615 25.49 68.9265 25.35 69.1865 25.17C69.4565 24.99 69.6965 24.745 69.9065 24.435C70.1165 24.125 70.2865 23.74 70.4165 23.28C70.5565 22.81 70.6265 22.245 70.6265 21.585C70.6265 20.945 70.5615 20.375 70.4315 19.875C70.3115 19.365 70.1065 18.935 69.8165 18.585C69.5365 18.225 69.1715 17.955 68.7215 17.775C68.2715 17.585 67.7165 17.49 67.0565 17.49H64.6565V25.8ZM63.2315 16.29H66.9065C68.5565 16.29 69.8265 16.71 70.7165 17.55C71.6065 18.39 72.0515 19.67 72.0515 21.39C72.0515 22.29 71.9515 23.09 71.7515 23.79C71.5515 24.48 71.2415 25.065 70.8215 25.545C70.4015 26.015 69.8665 26.375 69.2165 26.625C68.5665 26.875 67.7965 27 66.9065 27H63.2315V16.29ZM72.953 16.29H74.378V27H72.953V16.29ZM82.0699 19.425C81.9899 18.655 81.7099 18.1 81.2299 17.76C80.7599 17.41 80.1549 17.235 79.4149 17.235C79.1149 17.235 78.8199 17.265 78.5299 17.325C78.2399 17.385 77.9799 17.485 77.7499 17.625C77.5299 17.765 77.3499 17.955 77.2099 18.195C77.0799 18.425 77.0149 18.715 77.0149 19.065C77.0149 19.395 77.1099 19.665 77.2999 19.875C77.4999 20.075 77.7599 20.24 78.0799 20.37C78.4099 20.5 78.7799 20.61 79.1899 20.7C79.5999 20.78 80.0149 20.87 80.4349 20.97C80.8649 21.07 81.2849 21.19 81.6949 21.33C82.1049 21.46 82.4699 21.64 82.7899 21.87C83.1199 22.1 83.3799 22.39 83.5699 22.74C83.7699 23.09 83.8699 23.53 83.8699 24.06C83.8699 24.63 83.7399 25.12 83.4799 25.53C83.2299 25.93 82.9049 26.26 82.5049 26.52C82.1049 26.77 81.6549 26.95 81.1549 27.06C80.6649 27.18 80.1749 27.24 79.6849 27.24C79.0849 27.24 78.5149 27.165 77.9749 27.015C77.4449 26.865 76.9749 26.64 76.5649 26.34C76.1649 26.03 75.8449 25.64 75.6049 25.17C75.3749 24.69 75.2599 24.125 75.2599 23.475H76.6099C76.6099 23.925 76.6949 24.315 76.8649 24.645C77.0449 24.965 77.2749 25.23 77.5549 25.44C77.8449 25.65 78.1799 25.805 78.5599 25.905C78.9399 26.005 79.3299 26.055 79.7299 26.055C80.0499 26.055 80.3699 26.025 80.6899 25.965C81.0199 25.905 81.3149 25.805 81.5749 25.665C81.8349 25.515 82.0449 25.315 82.2049 25.065C82.3649 24.815 82.4449 24.495 82.4449 24.105C82.4449 23.735 82.3449 23.435 82.1449 23.205C81.9549 22.975 81.6949 22.79 81.3649 22.65C81.0449 22.5 80.6799 22.38 80.2699 22.29C79.8599 22.2 79.4399 22.11 79.0099 22.02C78.5899 21.92 78.1749 21.81 77.7649 21.69C77.3549 21.56 76.9849 21.395 76.6549 21.195C76.3349 20.985 76.0749 20.72 75.8749 20.4C75.6849 20.07 75.5899 19.66 75.5899 19.17C75.5899 18.63 75.6999 18.165 75.9199 17.775C76.1399 17.375 76.4299 17.05 76.7899 16.8C77.1599 16.54 77.5749 16.35 78.0349 16.23C78.5049 16.1 78.9849 16.035 79.4749 16.035C80.0249 16.035 80.5349 16.1 81.0049 16.23C81.4749 16.36 81.8849 16.565 82.2349 16.845C82.5949 17.125 82.8749 17.48 83.0749 17.91C83.2849 18.33 83.3999 18.835 83.4199 19.425H82.0699ZM86.1264 21.42H88.9164C89.7264 21.43 90.3164 21.265 90.6864 20.925C91.0664 20.585 91.2564 20.095 91.2564 19.455C91.2564 18.815 91.0664 18.33 90.6864 18C90.3164 17.66 89.7264 17.49 88.9164 17.49H86.1264V21.42ZM84.7014 16.29H89.3964C90.4764 16.29 91.2914 16.57 91.8414 17.13C92.4014 17.68 92.6814 18.455 92.6814 19.455C92.6814 20.455 92.4014 21.235 91.8414 21.795C91.2914 22.355 90.4764 22.63 89.3964 22.62H86.1264V27H84.7014V16.29ZM94.353 21.645C94.353 22.185 94.423 22.72 94.563 23.25C94.703 23.77 94.923 24.24 95.223 24.66C95.523 25.08 95.908 25.42 96.378 25.68C96.848 25.93 97.408 26.055 98.058 26.055C98.708 26.055 99.268 25.93 99.738 25.68C100.208 25.42 100.593 25.08 100.893 24.66C101.193 24.24 101.413 23.77 101.553 23.25C101.693 22.72 101.763 22.185 101.763 21.645C101.763 21.105 101.693 20.575 101.553 20.055C101.413 19.525 101.193 19.05 100.893 18.63C100.593 18.21 100.208 17.875 99.738 17.625C99.268 17.365 98.708 17.235 98.058 17.235C97.408 17.235 96.848 17.365 96.378 17.625C95.908 17.875 95.523 18.21 95.223 18.63C94.923 19.05 94.703 19.525 94.563 20.055C94.423 20.575 94.353 21.105 94.353 21.645ZM92.928 21.645C92.928 20.915 93.033 20.215 93.243 19.545C93.463 18.865 93.788 18.265 94.218 17.745C94.648 17.225 95.183 16.81 95.823 16.5C96.463 16.19 97.208 16.035 98.058 16.035C98.908 16.035 99.653 16.19 100.293 16.5C100.933 16.81 101.468 17.225 101.898 17.745C102.328 18.265 102.648 18.865 102.858 19.545C103.078 20.215 103.188 20.915 103.188 21.645C103.188 22.375 103.078 23.08 102.858 23.76C102.648 24.43 102.328 25.025 101.898 25.545C101.468 26.065 100.933 26.48 100.293 26.79C99.653 27.09 98.908 27.24 98.058 27.24C97.208 27.24 96.463 27.09 95.823 26.79C95.183 26.48 94.648 26.065 94.218 25.545C93.788 25.025 93.463 24.43 93.243 23.76C93.033 23.08 92.928 22.375 92.928 21.645ZM104.009 16.29H105.524L111.164 24.975H111.194V16.29H112.544V27H110.984L105.389 18.405H105.359V27H104.009V16.29ZM114.01 16.29H115.435V27H114.01V16.29ZM118.357 20.895H121.207C122.017 20.895 122.597 20.755 122.947 20.475C123.307 20.185 123.487 19.755 123.487 19.185C123.487 18.805 123.427 18.505 123.307 18.285C123.187 18.065 123.022 17.895 122.812 17.775C122.602 17.655 122.357 17.58 122.077 17.55C121.807 17.51 121.517 17.49 121.207 17.49H118.357V20.895ZM116.932 16.29H120.817C121.047 16.29 121.292 16.295 121.552 16.305C121.822 16.305 122.087 16.32 122.347 16.35C122.607 16.37 122.847 16.405 123.067 16.455C123.297 16.505 123.492 16.58 123.652 16.68C124.002 16.89 124.297 17.18 124.537 17.55C124.787 17.92 124.912 18.375 124.912 18.915C124.912 19.485 124.772 19.98 124.492 20.4C124.222 20.81 123.832 21.115 123.322 21.315V21.345C123.982 21.485 124.487 21.785 124.837 22.245C125.187 22.705 125.362 23.265 125.362 23.925C125.362 24.315 125.292 24.695 125.152 25.065C125.012 25.435 124.802 25.765 124.522 26.055C124.252 26.335 123.912 26.565 123.502 26.745C123.102 26.915 122.637 27 122.107 27H116.932V16.29ZM118.357 25.8H121.927C122.557 25.8 123.047 25.63 123.397 25.29C123.757 24.95 123.937 24.48 123.937 23.88C123.937 23.53 123.872 23.24 123.742 23.01C123.612 22.78 123.437 22.6 123.217 22.47C123.007 22.33 122.762 22.235 122.482 22.185C122.202 22.125 121.912 22.095 121.612 22.095H118.357V25.8ZM126.3 16.29H127.725V25.8H133.395V27H126.3V16.29ZM133.735 16.29H141.13V17.49H135.16V20.895H140.725V22.095H135.16V25.8H141.175V27H133.735V16.29ZM151.475 19.425C151.395 18.655 151.115 18.1 150.635 17.76C150.165 17.41 149.56 17.235 148.82 17.235C148.52 17.235 148.225 17.265 147.935 17.325C147.645 17.385 147.385 17.485 147.155 17.625C146.935 17.765 146.755 17.955 146.615 18.195C146.485 18.425 146.42 18.715 146.42 19.065C146.42 19.395 146.515 19.665 146.705 19.875C146.905 20.075 147.165 20.24 147.485 20.37C147.815 20.5 148.185 20.61 148.595 20.7C149.005 20.78 149.42 20.87 149.84 20.97C150.27 21.07 150.69 21.19 151.1 21.33C151.51 21.46 151.875 21.64 152.195 21.87C152.525 22.1 152.785 22.39 152.975 22.74C153.175 23.09 153.275 23.53 153.275 24.06C153.275 24.63 153.145 25.12 152.885 25.53C152.635 25.93 152.31 26.26 151.91 26.52C151.51 26.77 151.06 26.95 150.56 27.06C150.07 27.18 149.58 27.24 149.09 27.24C148.49 27.24 147.92 27.165 147.38 27.015C146.85 26.865 146.38 26.64 145.97 26.34C145.57 26.03 145.25 25.64 145.01 25.17C144.78 24.69 144.665 24.125 144.665 23.475H146.015C146.015 23.925 146.1 24.315 146.27 24.645C146.45 24.965 146.68 25.23 146.96 25.44C147.25 25.65 147.585 25.805 147.965 25.905C148.345 26.005 148.735 26.055 149.135 26.055C149.455 26.055 149.775 26.025 150.095 25.965C150.425 25.905 150.72 25.805 150.98 25.665C151.24 25.515 151.45 25.315 151.61 25.065C151.77 24.815 151.85 24.495 151.85 24.105C151.85 23.735 151.75 23.435 151.55 23.205C151.36 22.975 151.1 22.79 150.77 22.65C150.45 22.5 150.085 22.38 149.675 22.29C149.265 22.2 148.845 22.11 148.415 22.02C147.995 21.92 147.58 21.81 147.17 21.69C146.76 21.56 146.39 21.395 146.06 21.195C145.74 20.985 145.48 20.72 145.28 20.4C145.09 20.07 144.995 19.66 144.995 19.17C144.995 18.63 145.105 18.165 145.325 17.775C145.545 17.375 145.835 17.05 146.195 16.8C146.565 16.54 146.98 16.35 147.44 16.23C147.91 16.1 148.39 16.035 148.88 16.035C149.43 16.035 149.94 16.1 150.41 16.23C150.88 16.36 151.29 16.565 151.64 16.845C152 17.125 152.28 17.48 152.48 17.91C152.69 18.33 152.805 18.835 152.825 19.425H151.475ZM162.656 23.13C162.656 24.5 162.291 25.53 161.561 26.22C160.831 26.9 159.791 27.24 158.441 27.24C157.061 27.24 155.981 26.915 155.201 26.265C154.431 25.605 154.046 24.56 154.046 23.13V16.29H155.471V23.13C155.471 24.09 155.726 24.82 156.236 25.32C156.746 25.81 157.481 26.055 158.441 26.055C159.351 26.055 160.041 25.81 160.511 25.32C160.991 24.82 161.231 24.09 161.231 23.13V16.29H162.656V23.13ZM164.032 16.29H169.072C170.092 16.29 170.887 16.54 171.457 17.04C172.037 17.54 172.327 18.225 172.327 19.095C172.327 19.745 172.177 20.315 171.877 20.805C171.587 21.295 171.117 21.63 170.467 21.81V21.84C170.777 21.9 171.027 22 171.217 22.14C171.417 22.28 171.572 22.45 171.682 22.65C171.802 22.84 171.887 23.055 171.937 23.295C171.997 23.535 172.042 23.785 172.072 24.045C172.092 24.305 172.107 24.57 172.117 24.84C172.127 25.11 172.152 25.375 172.192 25.635C172.232 25.895 172.287 26.145 172.357 26.385C172.437 26.615 172.552 26.82 172.702 27H171.112C171.012 26.89 170.942 26.74 170.902 26.55C170.872 26.36 170.852 26.15 170.842 25.92C170.832 25.68 170.822 25.425 170.812 25.155C170.802 24.885 170.772 24.62 170.722 24.36C170.682 24.1 170.632 23.855 170.572 23.625C170.512 23.385 170.417 23.18 170.287 23.01C170.157 22.83 169.987 22.69 169.777 22.59C169.567 22.48 169.287 22.425 168.937 22.425H165.457V27H164.032V16.29ZM168.427 21.225C168.757 21.225 169.072 21.2 169.372 21.15C169.672 21.1 169.932 21.005 170.152 20.865C170.382 20.715 170.562 20.52 170.692 20.28C170.832 20.03 170.902 19.71 170.902 19.32C170.902 18.78 170.752 18.34 170.452 18C170.152 17.66 169.667 17.49 168.997 17.49H165.457V21.225H168.427Z" fill="#074020"/>
<path d="M77.3615 53.1499C76.6615 54.0832 75.7949 54.7582 74.7615 55.1749C73.7282 55.5749 72.6865 55.7749 71.6365 55.7749C70.3032 55.7749 69.1115 55.5332 68.0615 55.0499C67.0115 54.5499 66.1199 53.8832 65.3865 53.0499C64.6532 52.2165 64.0949 51.2582 63.7115 50.1749C63.3282 49.0915 63.1365 47.9665 63.1365 46.7999C63.1365 45.4999 63.3115 44.2665 63.6615 43.0999C64.0282 41.9165 64.5615 40.8832 65.2615 39.9999C65.9782 39.1165 66.8615 38.4165 67.9115 37.8999C68.9782 37.3665 70.2199 37.0999 71.6365 37.0999C72.6032 37.0999 73.5115 37.2165 74.3615 37.4499C75.2282 37.6665 75.9949 38.0165 76.6615 38.4999C77.3449 38.9832 77.9115 39.5999 78.3615 40.3499C78.8282 41.0832 79.1449 41.9749 79.3115 43.0249H76.9365C76.8199 42.3415 76.6032 41.7582 76.2865 41.2749C75.9699 40.7749 75.5782 40.3665 75.1115 40.0499C74.6449 39.7332 74.1115 39.4999 73.5115 39.3499C72.9282 39.1832 72.3032 39.0999 71.6365 39.0999C70.5532 39.0999 69.6199 39.3165 68.8365 39.7499C68.0699 40.1832 67.4365 40.7582 66.9365 41.4749C66.4532 42.1749 66.0949 42.9832 65.8615 43.8999C65.6282 44.7999 65.5115 45.7249 65.5115 46.6749C65.5115 47.6082 65.6449 48.5082 65.9115 49.3749C66.1782 50.2249 66.5699 50.9832 67.0865 51.6499C67.6032 52.2999 68.2365 52.8249 68.9865 53.2249C69.7532 53.6082 70.6365 53.7999 71.6365 53.7999C72.5699 53.7999 73.3949 53.6499 74.1115 53.3499C74.8282 53.0499 75.4282 52.6415 75.9115 52.1249C76.4115 51.5915 76.7865 50.9749 77.0365 50.2749C77.2865 49.5582 77.3949 48.7915 77.3615 47.9749H71.6615V45.9749H79.4865V55.3749H77.9865L77.3615 53.1499ZM82.6813 48.9249C82.6813 49.7082 82.7813 50.4082 82.9813 51.0249C83.1979 51.6249 83.4896 52.1332 83.8563 52.5499C84.2229 52.9499 84.6479 53.2582 85.1313 53.4749C85.6313 53.6915 86.1563 53.7999 86.7063 53.7999C87.2563 53.7999 87.7729 53.6915 88.2563 53.4749C88.7563 53.2582 89.1896 52.9499 89.5563 52.5499C89.9229 52.1332 90.2063 51.6249 90.4063 51.0249C90.6229 50.4082 90.7313 49.7082 90.7313 48.9249C90.7313 48.1415 90.6229 47.4499 90.4063 46.8499C90.2063 46.2332 89.9229 45.7165 89.5563 45.2999C89.1896 44.8832 88.7563 44.5665 88.2563 44.3499C87.7729 44.1332 87.2563 44.0249 86.7063 44.0249C86.1563 44.0249 85.6313 44.1332 85.1313 44.3499C84.6479 44.5665 84.2229 44.8832 83.8563 45.2999C83.4896 45.7165 83.1979 46.2332 82.9813 46.8499C82.7813 47.4499 82.6813 48.1415 82.6813 48.9249ZM80.4313 48.9249C80.4313 47.9749 80.5646 47.0915 80.8313 46.2749C81.0979 45.4415 81.4979 44.7249 82.0313 44.1249C82.5646 43.5082 83.2229 43.0249 84.0063 42.6749C84.7896 42.3249 85.6896 42.1499 86.7063 42.1499C87.7396 42.1499 88.6396 42.3249 89.4063 42.6749C90.1896 43.0249 90.8479 43.5082 91.3813 44.1249C91.9146 44.7249 92.3146 45.4415 92.5813 46.2749C92.8479 47.0915 92.9813 47.9749 92.9813 48.9249C92.9813 49.8749 92.8479 50.7582 92.5813 51.5749C92.3146 52.3915 91.9146 53.1082 91.3813 53.7249C90.8479 54.3249 90.1896 54.7999 89.4063 55.1499C88.6396 55.4832 87.7396 55.6499 86.7063 55.6499C85.6896 55.6499 84.7896 55.4832 84.0063 55.1499C83.2229 54.7999 82.5646 54.3249 82.0313 53.7249C81.4979 53.1082 81.0979 52.3915 80.8313 51.5749C80.5646 50.7582 80.4313 49.8749 80.4313 48.9249ZM95.5367 48.9249C95.5367 49.7082 95.6367 50.4082 95.8367 51.0249C96.0534 51.6249 96.3451 52.1332 96.7117 52.5499C97.0784 52.9499 97.5034 53.2582 97.9867 53.4749C98.4867 53.6915 99.0117 53.7999 99.5617 53.7999C100.112 53.7999 100.628 53.6915 101.112 53.4749C101.612 53.2582 102.045 52.9499 102.412 52.5499C102.778 52.1332 103.062 51.6249 103.262 51.0249C103.478 50.4082 103.587 49.7082 103.587 48.9249C103.587 48.1415 103.478 47.4499 103.262 46.8499C103.062 46.2332 102.778 45.7165 102.412 45.2999C102.045 44.8832 101.612 44.5665 101.112 44.3499C100.628 44.1332 100.112 44.0249 99.5617 44.0249C99.0117 44.0249 98.4867 44.1332 97.9867 44.3499C97.5034 44.5665 97.0784 44.8832 96.7117 45.2999C96.3451 45.7165 96.0534 46.2332 95.8367 46.8499C95.6367 47.4499 95.5367 48.1415 95.5367 48.9249ZM93.2867 48.9249C93.2867 47.9749 93.4201 47.0915 93.6867 46.2749C93.9534 45.4415 94.3534 44.7249 94.8867 44.1249C95.4201 43.5082 96.0784 43.0249 96.8617 42.6749C97.6451 42.3249 98.5451 42.1499 99.5617 42.1499C100.595 42.1499 101.495 42.3249 102.262 42.6749C103.045 43.0249 103.703 43.5082 104.237 44.1249C104.77 44.7249 105.17 45.4415 105.437 46.2749C105.703 47.0915 105.837 47.9749 105.837 48.9249C105.837 49.8749 105.703 50.7582 105.437 51.5749C105.17 52.3915 104.77 53.1082 104.237 53.7249C103.703 54.3249 103.045 54.7999 102.262 55.1499C101.495 55.4832 100.595 55.6499 99.5617 55.6499C98.5451 55.6499 97.6451 55.4832 96.8617 55.1499C96.0784 54.7999 95.4201 54.3249 94.8867 53.7249C94.3534 53.1082 93.9534 52.3915 93.6867 51.5749C93.4201 50.7582 93.2867 49.8749 93.2867 48.9249ZM117.992 54.2749C117.992 56.3915 117.509 57.9749 116.542 59.0249C115.576 60.0749 114.059 60.5999 111.992 60.5999C111.392 60.5999 110.776 60.5332 110.142 60.3999C109.526 60.2665 108.959 60.0499 108.442 59.7499C107.942 59.4499 107.526 59.0582 107.192 58.5749C106.859 58.0915 106.676 57.4999 106.642 56.7999H108.767C108.784 57.1832 108.901 57.5082 109.117 57.7749C109.351 58.0415 109.626 58.2582 109.942 58.4249C110.276 58.5915 110.634 58.7082 111.017 58.7749C111.401 58.8582 111.767 58.8999 112.117 58.8999C112.817 58.8999 113.409 58.7749 113.892 58.5249C114.376 58.2915 114.776 57.9582 115.092 57.5249C115.409 57.1082 115.634 56.5999 115.767 55.9999C115.917 55.3999 115.992 54.7415 115.992 54.0249V53.1749H115.942C115.576 53.9749 115.017 54.5665 114.267 54.9499C113.534 55.3165 112.751 55.4999 111.917 55.4999C110.951 55.4999 110.109 55.3249 109.392 54.9749C108.676 54.6249 108.076 54.1582 107.592 53.5749C107.109 52.9749 106.742 52.2832 106.492 51.4999C106.259 50.6999 106.142 49.8582 106.142 48.9749C106.142 48.2082 106.242 47.4249 106.442 46.6249C106.642 45.8082 106.976 45.0749 107.442 44.4249C107.909 43.7582 108.526 43.2165 109.292 42.7999C110.059 42.3665 111.001 42.1499 112.117 42.1499C112.934 42.1499 113.684 42.3332 114.367 42.6999C115.051 43.0499 115.584 43.5832 115.967 44.2999H115.992V42.4499H117.992V54.2749ZM112.042 53.6499C112.742 53.6499 113.334 53.5082 113.817 53.2249C114.317 52.9249 114.717 52.5415 115.017 52.0749C115.317 51.5915 115.534 51.0499 115.667 50.4499C115.817 49.8499 115.892 49.2499 115.892 48.6499C115.892 48.0832 115.826 47.5249 115.692 46.9749C115.559 46.4249 115.342 45.9332 115.042 45.4999C114.759 45.0499 114.384 44.6915 113.917 44.4249C113.451 44.1582 112.884 44.0249 112.217 44.0249C111.534 44.0249 110.951 44.1582 110.467 44.4249C109.984 44.6749 109.584 45.0165 109.267 45.4499C108.967 45.8832 108.742 46.3832 108.592 46.9499C108.459 47.5165 108.392 48.1082 108.392 48.7249C108.392 49.3082 108.451 49.8915 108.567 50.4749C108.684 51.0582 108.884 51.5915 109.167 52.0749C109.451 52.5415 109.826 52.9249 110.292 53.2249C110.759 53.5082 111.342 53.6499 112.042 53.6499ZM119.823 37.5249H121.948V55.3749H119.823V37.5249ZM132.715 47.6749C132.681 47.1749 132.565 46.6999 132.365 46.2499C132.181 45.7999 131.923 45.4165 131.59 45.0999C131.273 44.7665 130.89 44.5082 130.44 44.3249C130.006 44.1249 129.523 44.0249 128.99 44.0249C128.44 44.0249 127.94 44.1249 127.49 44.3249C127.056 44.5082 126.681 44.7665 126.365 45.0999C126.048 45.4332 125.798 45.8249 125.615 46.2749C125.431 46.7082 125.323 47.1749 125.29 47.6749H132.715ZM134.765 51.2749C134.481 52.7249 133.856 53.8165 132.89 54.5499C131.923 55.2832 130.706 55.6499 129.24 55.6499C128.206 55.6499 127.306 55.4832 126.54 55.1499C125.79 54.8165 125.156 54.3499 124.64 53.7499C124.123 53.1499 123.731 52.4332 123.465 51.5999C123.215 50.7665 123.073 49.8582 123.04 48.8749C123.04 47.8915 123.19 46.9915 123.49 46.1749C123.79 45.3582 124.206 44.6499 124.74 44.0499C125.29 43.4499 125.931 42.9832 126.665 42.6499C127.415 42.3165 128.231 42.1499 129.115 42.1499C130.265 42.1499 131.215 42.3915 131.965 42.8749C132.731 43.3415 133.34 43.9415 133.79 44.6749C134.256 45.4082 134.573 46.2082 134.74 47.0749C134.923 47.9415 134.998 48.7665 134.965 49.5499H125.29C125.273 50.1165 125.34 50.6582 125.49 51.1749C125.64 51.6749 125.881 52.1249 126.215 52.5249C126.548 52.9082 126.973 53.2165 127.49 53.4499C128.006 53.6832 128.615 53.7999 129.315 53.7999C130.215 53.7999 130.948 53.5915 131.515 53.1749C132.098 52.7582 132.481 52.1249 132.665 51.2749H134.765ZM143.85 46.0749H148.5C149.85 46.0915 150.834 45.8165 151.45 45.2499C152.084 44.6832 152.4 43.8665 152.4 42.7999C152.4 41.7332 152.084 40.9249 151.45 40.3749C150.834 39.8082 149.85 39.5249 148.5 39.5249H143.85V46.0749ZM141.475 37.5249H149.3C151.1 37.5249 152.459 37.9915 153.375 38.9249C154.309 39.8415 154.775 41.1332 154.775 42.7999C154.775 44.4665 154.309 45.7665 153.375 46.6999C152.459 47.6332 151.1 48.0915 149.3 48.0749H143.85V55.3749H141.475V37.5249ZM155.961 37.5249H158.086V55.3749H155.961V37.5249ZM171.328 55.3249C170.962 55.5415 170.453 55.6499 169.803 55.6499C169.253 55.6499 168.812 55.4999 168.478 55.1999C168.162 54.8832 168.003 54.3749 168.003 53.6749C167.42 54.3749 166.737 54.8832 165.953 55.1999C165.187 55.4999 164.353 55.6499 163.453 55.6499C162.87 55.6499 162.312 55.5832 161.778 55.4499C161.262 55.3165 160.812 55.1082 160.428 54.8249C160.045 54.5415 159.737 54.1749 159.503 53.7249C159.287 53.2582 159.178 52.6999 159.178 52.0499C159.178 51.3165 159.303 50.7165 159.553 50.2499C159.803 49.7832 160.128 49.4082 160.528 49.1249C160.945 48.8249 161.412 48.5999 161.928 48.4499C162.462 48.2999 163.003 48.1749 163.553 48.0749C164.137 47.9582 164.687 47.8749 165.203 47.8249C165.737 47.7582 166.203 47.6749 166.603 47.5749C167.003 47.4582 167.32 47.2999 167.553 47.0999C167.787 46.8832 167.903 46.5749 167.903 46.1749C167.903 45.7082 167.812 45.3332 167.628 45.0499C167.462 44.7665 167.237 44.5499 166.953 44.3999C166.687 44.2499 166.378 44.1499 166.028 44.0999C165.695 44.0499 165.362 44.0249 165.028 44.0249C164.128 44.0249 163.378 44.1999 162.778 44.5499C162.178 44.8832 161.853 45.5249 161.803 46.4749H159.678C159.712 45.6749 159.878 44.9999 160.178 44.4499C160.478 43.8999 160.878 43.4582 161.378 43.1249C161.878 42.7749 162.445 42.5249 163.078 42.3749C163.728 42.2249 164.42 42.1499 165.153 42.1499C165.737 42.1499 166.312 42.1915 166.878 42.2749C167.462 42.3582 167.987 42.5332 168.453 42.7999C168.92 43.0499 169.295 43.4082 169.578 43.8749C169.862 44.3415 170.003 44.9499 170.003 45.6999V52.3499C170.003 52.8499 170.028 53.2165 170.078 53.4499C170.145 53.6832 170.345 53.7999 170.678 53.7999C170.862 53.7999 171.078 53.7582 171.328 53.6749V55.3249ZM167.878 48.6999C167.612 48.8999 167.262 49.0499 166.828 49.1499C166.395 49.2332 165.937 49.3082 165.453 49.3749C164.987 49.4249 164.512 49.4915 164.028 49.5749C163.545 49.6415 163.112 49.7582 162.728 49.9249C162.345 50.0915 162.028 50.3332 161.778 50.6499C161.545 50.9499 161.428 51.3665 161.428 51.8999C161.428 52.2499 161.495 52.5499 161.628 52.7999C161.778 53.0332 161.962 53.2249 162.178 53.3749C162.412 53.5249 162.678 53.6332 162.978 53.6999C163.278 53.7665 163.595 53.7999 163.928 53.7999C164.628 53.7999 165.228 53.7082 165.728 53.5249C166.228 53.3249 166.637 53.0832 166.953 52.7999C167.27 52.4999 167.503 52.1832 167.653 51.8499C167.803 51.4999 167.878 51.1749 167.878 50.8749V48.6999ZM176.881 57.0999C176.631 57.7332 176.381 58.2665 176.131 58.6999C175.898 59.1332 175.631 59.4832 175.331 59.7499C175.048 60.0332 174.723 60.2332 174.356 60.3499C174.006 60.4832 173.598 60.5499 173.131 60.5499C172.881 60.5499 172.631 60.5332 172.381 60.4999C172.131 60.4665 171.889 60.4082 171.656 60.3249V58.3749C171.839 58.4582 172.048 58.5249 172.281 58.5749C172.531 58.6415 172.739 58.6749 172.906 58.6749C173.339 58.6749 173.698 58.5665 173.981 58.3499C174.281 58.1499 174.506 57.8582 174.656 57.4749L175.531 55.2999L170.406 42.4499H172.806L176.581 53.0249H176.631L180.256 42.4499H182.506L176.881 57.0999Z" fill="#074020"/>
</svg>
