<?xml version="1.0" encoding="UTF-8"?><svg id="Calque_2" xmlns="http://www.w3.org/2000/svg" viewBox="0 0 251.66 282.78"><defs><style>.cls-1{fill:#fff;stroke-width:0px;}</style></defs><g id="svg2"><g id="g92"><path id="path94" class="cls-1" d="M10.73.33c-.14-.2-.33-.27-.51-.27h-.89c-.19,0-.37.14-.51.33-.14.2-.24.47-.24.74v107.39c0,.27.09.47.23.67.14.2.33.27.52.27h.89c.19,0,.38-.14.51-.33.14-.2.24-.47.24-.74V1c0-.27-.09-.47-.23-.67"/></g><g id="g96"><path id="path98" class="cls-1" d="M64.97,67.98h23.55l-5.94-24.36c-1.45-5.82-3.37-14.79-5.78-26.83-1.87,9.43-3.85,18.4-5.94,26.9l-5.89,24.29ZM45.92,109.4c-1.23,0-2.19-.4-2.89-1.21s-1.02-1.87-1.02-3.15c0-.33.06-.87.21-1.61L65.93,4.82C66.74,1.61,68.34,0,70.8,0h11.93c2.46,0,4.07,1.61,4.81,4.82l23.6,98.49c.16.73.27,1.27.27,1.61,0,1.2-.32,2.21-.96,3.08-.64.87-1.61,1.27-2.84,1.27h-5.89c-1.34,0-2.35-.4-3.05-1.2-.69-.8-1.23-2.01-1.61-3.61l-5.51-22.02h-29.54l-5.46,22.08c-.38,1.61-.91,2.81-1.61,3.61-.7.8-1.71,1.21-3.05,1.21l-5.99.07Z"/></g><g id="g100"><path id="path102" class="cls-1" d="M157.03,53.73c3.43,0,5.94-.94,7.49-2.81,1.55-1.87,2.35-4.82,2.35-8.77v-14.99c0-4.22-.75-7.29-2.3-9.17-1.55-1.87-4.01-2.81-7.44-2.81h-15.63v38.47l15.52.07ZM126.96,4.35c0-1.4.32-2.48,1.01-3.21.7-.74,1.61-1.14,2.78-1.14h26.01c16.54,0,24.78,9.43,24.78,28.37v13.18c0,18.47-8.24,27.7-24.78,27.7h-15.25v35.4c0,1.41-.32,2.54-1.02,3.41-.7.87-1.61,1.27-2.73,1.27h-7.01c-1.18,0-2.09-.4-2.78-1.27-.7-.87-1.01-2.01-1.01-3.41V4.35Z"/></g><g id="g104"><path id="path106" class="cls-1" d="M227.15,53.73c3.43,0,5.94-.94,7.49-2.81,1.55-1.87,2.35-4.82,2.35-8.77v-14.99c0-4.22-.75-7.29-2.3-9.17-1.55-1.87-4.02-2.81-7.44-2.81h-15.62v38.47l15.52.07ZM197.08,4.35c0-1.4.32-2.48,1.02-3.21.69-.74,1.61-1.14,2.78-1.14h26.01c16.53,0,24.77,9.43,24.77,28.37v13.18c0,18.47-8.24,27.7-24.77,27.7h-15.25v35.4c0,1.41-.32,2.54-1.02,3.41-.7.87-1.61,1.27-2.73,1.27h-7.01c-1.18,0-2.09-.4-2.78-1.27-.7-.87-1.02-2.01-1.02-3.41V4.35Z"/></g><g id="g108"><path id="path110" class="cls-1" d="M8.57,121.78H.72c-.49,0-.72-.26-.72-.81v-.7c0-.54.23-.8.72-.8h18.09c.49,0,.72.26.72.8v.7c0,.54-.24.81-.72.81h-7.85v29.73c0,.54-.23.8-.71.8h-.98c-.47,0-.7-.26-.7-.8v-29.73Z"/></g><g id="g112"><path id="path114" class="cls-1" d="M24.48,120.28c0-.54.23-.8.72-.8h.98c.47,0,.7.26.7.8v14.19h14.03v-14.19c0-.54.25-.8.74-.8h.94c.49,0,.74.26.74.8v31.23c0,.54-.25.8-.74.8h-.94c-.49,0-.74-.26-.74-.8v-14.71h-14.03v14.71c0,.54-.23.8-.7.8h-.98c-.49,0-.72-.26-.72-.8v-31.23Z"/></g><g id="g116"><path id="path118" class="cls-1" d="M51.5,120.25c0-.52.23-.78.72-.78h14.39c.49,0,.74.26.74.8v.7c0,.54-.25.81-.74.81h-12.69v12.68h12.69c.49,0,.74.26.74.81v.7c0,.54-.25.82-.74.82h-12.69v13.21h12.69c.49,0,.74.26.74.8v.71c0,.54-.25.8-.74.8h-14.39c-.49,0-.72-.26-.72-.8v-31.25Z"/></g><g id="g120"><path id="path122" class="cls-1" d="M84.43,134.89c1.9,0,3.29-.48,4.17-1.43.89-.94,1.34-2.39,1.34-4.34v-1.79c0-1.91-.43-3.31-1.3-4.22-.87-.91-2.24-1.35-4.14-1.35h-7.33v13.1l7.26.02ZM74.77,120.28c0-.54.23-.8.72-.8h9.01c5.22,0,7.84,2.61,7.84,7.84v1.69c0,1.87-.36,3.4-1.1,4.58-.74,1.19-1.82,1.99-3.25,2.41,2.91.76,4.37,3.11,4.37,7.07v8.44c0,.54-.25.8-.74.8h-.94c-.49,0-.72-.26-.72-.8v-8.56c0-1.95-.45-3.4-1.34-4.34-.88-.94-2.27-1.43-4.17-1.43h-7.26v14.33c0,.54-.23.8-.72.8h-.96c-.49,0-.72-.26-.72-.8l-.02-31.23Z"/></g><g id="g124"><path id="path126" class="cls-1" d="M99.64,120.25c0-.52.23-.78.72-.78h14.39c.49,0,.74.26.74.8v.7c0,.54-.25.81-.74.81h-12.69v12.68h12.69c.49,0,.74.26.74.81v.7c0,.54-.25.82-.74.82h-12.69v13.21h12.69c.49,0,.74.26.74.8v.71c0,.54-.25.8-.74.8h-14.39c-.49,0-.72-.26-.72-.8v-31.25Z"/></g><g id="g128"><path id="path130" class="cls-1" d="M122.93,120.25c0-.52.23-.78.72-.78h14.41c.49,0,.72.26.72.8v.7c0,.54-.23.81-.72.81h-12.71v13.37h12.71c.49,0,.72.26.72.8v.7c0,.54-.23.83-.72.83h-12.71v14.03c0,.54-.25.8-.74.8h-.96c-.49,0-.72-.26-.72-.8v-31.25Z"/></g><g id="g132"><path id="path134" class="cls-1" d="M155.97,150.3c3.74,0,5.62-1.99,5.62-5.99v-16.84c0-3.98-1.88-5.97-5.62-5.97h-3.54c-3.74,0-5.6,1.99-5.6,5.97v16.84c0,4,1.86,5.99,5.6,5.99h3.54ZM144.42,127.51c0-2.71.69-4.78,2.04-6.21,1.35-1.43,3.34-2.15,5.96-2.15h3.54c2.61,0,4.6.7,5.96,2.13,1.35,1.43,2.04,3.5,2.04,6.21v16.84c0,2.71-.68,4.78-2.04,6.21-1.35,1.43-3.34,2.13-5.96,2.13h-3.54c-2.62,0-4.61-.72-5.96-2.15-1.35-1.43-2.04-3.5-2.04-6.21v-16.8Z"/></g><g id="g136"><path id="path138" class="cls-1" d="M181.29,134.89c1.9,0,3.29-.48,4.17-1.43.88-.94,1.33-2.39,1.33-4.34v-1.79c0-1.91-.43-3.31-1.3-4.22-.87-.91-2.24-1.35-4.14-1.35h-7.33v13.1l7.26.02ZM171.63,120.28c0-.54.23-.8.72-.8h9.01c5.22,0,7.84,2.61,7.84,7.84v1.69c0,1.87-.36,3.4-1.1,4.58-.74,1.19-1.83,1.99-3.25,2.41,2.91.76,4.37,3.11,4.37,7.07v8.44c0,.54-.25.8-.74.8h-.94c-.49,0-.72-.26-.72-.8v-8.56c0-1.95-.45-3.4-1.34-4.34s-2.27-1.43-4.17-1.43h-7.26v14.33c0,.54-.23.8-.72.8h-.96c-.49,0-.72-.26-.72-.8l-.02-31.23Z"/></g><g id="g140"><path id="path142" class="cls-1" d="M196.5,120.25c0-.52.23-.78.72-.78h14.39c.49,0,.74.26.74.8v.7c0,.54-.25.81-.74.81h-12.69v12.68h12.69c.49,0,.74.26.74.81v.7c0,.54-.25.82-.74.82h-12.69v13.21h12.69c.49,0,.74.26.74.8v.71c0,.54-.25.8-.74.8h-14.39c-.49,0-.72-.26-.72-.8v-31.25Z"/></g><g id="g144"><path id="path146" class="cls-1" d="M10.73,162.73c-.14-.22-.33-.3-.51-.3h-.89c-.19,0-.37.15-.51.37-.14.22-.24.52-.24.81v118.14c0,.3.09.51.23.74.14.22.33.3.52.3h.89c.19,0,.38-.15.51-.37.14-.22.24-.52.24-.81v-118.14c0-.3-.09-.51-.23-.74"/></g><g id="g148"><path id="path150" class="cls-1" d="M64.24,237.14h25.92l-6.54-26.79c-1.59-6.41-3.71-16.27-6.36-29.52-2.06,10.38-4.24,20.24-6.54,29.59l-6.48,26.72ZM43.27,282.71c-1.36,0-2.42-.44-3.18-1.33-.77-.88-1.12-2.06-1.12-3.46,0-.37.06-.96.24-1.77l26.09-108.5c.88-3.53,2.65-5.3,5.36-5.3h13.13c2.71,0,4.48,1.76,5.3,5.3l25.98,108.36c.18.81.29,1.4.29,1.77,0,1.33-.35,2.43-1.06,3.39-.71.96-1.77,1.4-3.12,1.4h-6.48c-1.47,0-2.59-.44-3.36-1.33-.77-.88-1.35-2.21-1.77-3.97l-6.07-24.22h-32.52l-6.01,24.29c-.41,1.77-1,3.09-1.77,3.97-.77.88-1.88,1.33-3.36,1.33l-6.6.07Z"/></g><g id="g152"><path id="path154" class="cls-1" d="M131.65,282.78c-2.95,0-4.42-1.91-4.42-5.67v-108.58c0-4.05,1.53-6.04,4.65-6.04h9.07c1.59,0,2.83.44,3.71,1.25.88.81,1.65,2.13,2.3,3.97l14.14,37.54,8.72,23.77,8.78-23.77,14.08-37.54c.65-1.77,1.42-3.09,2.24-3.97.83-.88,2.07-1.33,3.65-1.33h9.13c3.12,0,4.65,1.99,4.65,6.04v108.57c0,3.75-1.47,5.67-4.48,5.67h-5.95c-3.01,0-4.48-1.91-4.48-5.67v-54.84c0-10.31.11-19.44.35-27.31-4.48,13.62-8.07,23.63-10.83,30.03l-9.9,23.26c-1.71,3.97-4.13,5.96-7.25,5.96s-5.54-1.99-7.24-5.96l-9.96-23.26c-.77-1.77-1.53-3.61-2.3-5.59-.76-1.99-1.59-4.2-2.42-6.55-.82-2.36-1.47-4.27-2-5.74-.53-1.47-1.24-3.68-2.18-6.55-.94-2.87-1.59-4.79-1.89-5.67.29,7.66.41,16.78.41,27.31v54.84c0,3.75-1.47,5.67-4.48,5.67l-6.13.15Z"/></g><g id="g156"><path id="path158" class="cls-1" d="M251.51,272.17c0-3-1.91-4.48-5.67-4.48h-16.09c-3.75,0-5.67,1.47-5.67,4.42l.15,6.13c0,3,1.91,4.48,5.67,4.48h16.09c3.75,0,5.67-1.47,5.67-4.42l-.15-6.13Z"/></g></g></svg>