<?xml version="1.0" encoding="UTF-8"?><svg id="Calque_2" xmlns="http://www.w3.org/2000/svg" viewBox="0 0 192.49 102.57"><defs><style>.cls-1{fill:#fff;stroke-width:0px;}</style></defs><g id="svg2"><g id="g24"><path id="path26" class="cls-1" d="M84.4,72.37c-1.04.78-2.3,1.21-3.78,1.21s-2.73-.39-3.77-1.21c-1.04-.78-1.82-1.87-2.34-3.17-.52-1.3-.78-2.78-.78-4.38s.26-3.08.78-4.38c.52-1.3,1.3-2.39,2.34-3.21,1.04-.82,2.3-1.21,3.77-1.21s2.73.39,3.78,1.21c1.04.83,1.82,1.87,2.34,3.21.52,1.35.78,2.78.78,4.38s-.26,3.04-.78,4.38c-.52,1.35-1.3,2.39-2.34,3.17M88.83,70.55c.78-1.65,1.21-3.56,1.21-5.73s-.39-4.12-1.21-5.77c-.83-1.65-1.91-2.95-3.3-3.91-1.39-.95-3.04-1.39-4.86-1.39s-3.47.48-4.9,1.39c-1.43.91-2.52,2.21-3.3,3.91-.78,1.65-1.22,3.6-1.22,5.77s.39,4.08,1.22,5.73c.82,1.65,1.91,2.95,3.3,3.91,1.43.95,3.04,1.39,4.9,1.39s3.47-.48,4.9-1.39c1.39-.95,2.47-2.21,3.25-3.91M64.31,75.41v-19.22h4.77v-2.17h-4.73v-2.6c0-1.13.3-2,.87-2.6.56-.61,1.43-.91,2.47-.91.39,0,.74.04,1,.13.26.09.48.13.69.17l.74-2.17c-.26-.09-.61-.22-1.04-.3-.43-.09-.95-.17-1.61-.17-.95,0-1.87.22-2.73.61-.87.39-1.56,1-2.08,1.78-.52.78-.78,1.78-.78,2.91v3.12h-3.3v2.17h3.3v19.22h2.43v.04ZM40.83,62.05c0-1.26.26-2.3.78-3.21.52-.91,1.22-1.61,2.08-2.08.87-.48,1.87-.74,2.99-.74,1.65,0,2.95.52,3.95,1.52.95,1.04,1.48,2.43,1.48,4.17v13.67h2.47v-13.84c0-1.69-.3-3.12-.91-4.25-.61-1.17-1.47-2.04-2.56-2.65-1.09-.61-2.34-.91-3.77-.91-1.56,0-2.87.35-3.95,1-1.04.65-1.82,1.56-2.34,2.65h-.22v-3.34h-2.43v21.35h2.47l-.04-13.32ZM29.29,54.06h2.47v21.35h-2.47v-21.35ZM30.59,46.81c-.52,0-.95.17-1.3.52-.35.35-.56.78-.56,1.26s.17.91.52,1.26c.35.35.78.52,1.3.52s.95-.17,1.3-.52c.35-.35.56-.78.56-1.26s-.17-.91-.52-1.26c-.39-.35-.82-.52-1.3-.52M97.99,93.46c0,.83-.22,1.65-.65,2.39-.43.74-1.04,1.35-1.87,1.78-.82.43-1.82.69-2.95.69s-2.17-.26-2.91-.78c-.78-.52-1.13-1.3-1.13-2.34,0-.74.22-1.35.61-1.78.39-.43.91-.78,1.56-1.04.65-.26,1.39-.39,2.21-.52.35-.04.78-.09,1.3-.17.52-.09,1.04-.13,1.56-.22.52-.09,1.04-.17,1.43-.3.43-.13.69-.26.87-.39l-.04,2.69ZM99.24,80.88c-.83-.52-1.74-.91-2.69-1.09-.95-.17-1.87-.3-2.73-.3-1.3,0-2.52.17-3.69.56-1.17.35-2.21.95-3.08,1.74-.91.82-1.56,1.87-2.04,3.17l3.91.91c.3-.74.87-1.43,1.65-2.04.82-.61,1.91-.91,3.3-.91s2.34.35,3.04,1c.69.65,1.04,1.61,1.04,2.82v.09c0,.48-.17.87-.52,1.09-.35.22-.95.39-1.74.48-.78.09-1.82.22-3.12.39-1,.13-2,.3-2.99.52-.95.22-1.87.56-2.65,1.04s-1.43,1.09-1.87,1.87c-.48.78-.69,1.78-.69,2.99,0,1.39.3,2.6.95,3.56.65.95,1.52,1.69,2.6,2.21,1.09.52,2.3.78,3.69.78,1.17,0,2.17-.17,3.04-.52.82-.35,1.52-.78,2.08-1.3.52-.52.95-1.04,1.21-1.56h.17v2.91h4.08v-14.19c0-1.56-.26-2.82-.82-3.82-.57-1.09-1.26-1.82-2.13-2.39M76.37,80.4c-1.09-.61-2.39-.91-3.82-.91-1.61,0-2.95.35-3.99,1.04-1.04.69-1.82,1.61-2.3,2.73h-.26v-3.47h-3.99v21.35h4.17v-12.67c0-1.13.22-2.08.65-2.91.43-.82,1.04-1.39,1.78-1.82.74-.43,1.61-.61,2.56-.61,1.39,0,2.52.43,3.34,1.3.83.87,1.22,2.08,1.22,3.65v13.11h4.17v-13.58c0-1.78-.3-3.25-.91-4.43-.69-1.26-1.52-2.17-2.6-2.78M51.47,92.29c0,1.21-.26,2.21-.78,2.99-.52.78-1.17,1.39-1.95,1.78-.78.39-1.56.56-2.34.56-1.3,0-2.34-.43-3.13-1.3-.82-.87-1.21-2.04-1.21-3.47v-13.11h-4.17v13.63c0,1.78.3,3.25.91,4.43.61,1.21,1.43,2.08,2.47,2.69,1.04.61,2.26.91,3.65.91,1.61,0,2.95-.39,4.04-1.13,1.08-.74,1.87-1.69,2.34-2.86h.22v3.69h4.08v-21.35h-4.17l.04,12.54ZM28.21,93.46c0,.83-.22,1.65-.65,2.39-.43.74-1.04,1.35-1.87,1.78-.82.43-1.82.69-2.95.69s-2.13-.26-2.91-.78c-.78-.52-1.13-1.3-1.13-2.34,0-.74.17-1.35.61-1.78.43-.43.91-.78,1.61-1.04.65-.26,1.39-.39,2.21-.52.35-.04.78-.09,1.26-.17.52-.09,1.04-.13,1.56-.22.52-.09,1-.17,1.43-.3.43-.13.69-.26.87-.39l-.04,2.69ZM29.51,80.88c-.82-.52-1.74-.91-2.69-1.09-.95-.17-1.87-.3-2.73-.3-1.3,0-2.52.17-3.69.56-1.17.35-2.21.95-3.08,1.74-.91.82-1.56,1.87-2.04,3.17l3.91.91c.3-.74.87-1.43,1.65-2.04.78-.61,1.91-.91,3.3-.91s2.34.35,3.04,1c.69.65,1,1.61,1,2.82v.09c0,.48-.17.87-.52,1.09-.35.22-.95.39-1.74.48-.78.09-1.82.22-3.13.39-1,.13-2,.3-2.99.52-.95.22-1.87.56-2.65,1.04-.78.48-1.43,1.09-1.87,1.87-.48.78-.69,1.78-.69,2.99,0,1.39.3,2.6.95,3.56.65.95,1.52,1.69,2.6,2.21s2.3.78,3.69.78c1.17,0,2.17-.17,3.04-.52.82-.35,1.52-.78,2.08-1.3.52-.52.95-1.04,1.21-1.56h.17v2.91h4.08v-14.19c0-1.56-.26-2.82-.83-3.82-.56-1.09-1.26-1.82-2.08-2.39M9.59,71.33c-1.13,0-2.17.22-3.12.65-.95.43-1.74,1.09-2.3,2-.56.87-.87,2-.87,3.34v2.47H0v3.34h3.3v18.01h4.17v-18.01h4.6v-3.34h-4.69v-1.91c0-.95.22-1.69.65-2.17.43-.48,1.17-.74,2.17-.74.43,0,.82.04,1.13.13.3.09.56.13.74.22l.95-3.38c-.3-.13-.74-.22-1.3-.39-.61-.13-1.3-.22-2.13-.22"/></g><g id="g28"><path id="path30" class="cls-1" d="M163.29,37.05c-.56.91-.3,2.69-.17,4.17.13,1.56.61,3.47,1.69,4.3.04.91.13,1.73.3,2.52.09.43.17.87.22,1.3.04.22,0,.43-.13.61-.39.52-1.43.91-2.73,1.13-.52.09-.91.57-.83,1.13.09.48.48.87,1,.87h.13c.87-.13,1.91-.39,2.78-.91.04,3.3-.61,6.55-1.95,7.38-.87.52-3.21,1.65-6.51,1.04-2.17-.39-4.77-2.91-5.73-5.55-.26-.69-.56-1.82-.26-2.86,2.04,1.13,4.43,1.13,5.51,1.13h.22c.52,0,1-.43,1-1s-.43-1-1-1h-.22c-1.17,0-4.25-.04-5.77-1.87-.82-1-1.08-2.47-.82-4.34,1.3-.35,2.6-1.39,2.86-4.69.3-3.95.3-5.25-1.52-5.25s-4.69.65-5.64,4.9c-.74,3.21.91,4.56,2.34,4.99-.26,2.34.13,4.21,1.3,5.6.04.04.13.13.17.17-.65,1.35-.69,2.99,0,4.82.52,1.39,1.35,2.73,2.39,3.82-1.56.95-3.65,1.26-5.47.78-1.21-.3-2.82-1.13-3.6-3.17-4.25-11.24-.65-18.7,4.17-21.91,2.21-1.52,4.38-2.17,6.34-2.34.65,1.65,1.04,3.08,1.21,4.12.09.48.52.83,1,.83h.17c.52-.09.91-.61.82-1.13-.17-.95-.52-2.26-1.08-3.78,1.65.13,3.04.56,4.12,1-.26.65-.52,1.3-.74,1.95-.17.52.09,1.09.61,1.26.09.04.22.04.35.04.43,0,.78-.26.95-.65.17-.56.43-1.08.61-1.65.78.74,1.43,1.43,1.91,2.26M162.56,63.13c-1.04,3.08-1.74,4.99-3.82,4.99-.35,0-.56-.04-.87-.09-1.22-.22-2.17-.22-4.43,1.26-.22.13-.56.3-1.21.09-2.13-.69-4.9-4.12-6.68-7.25.13.04.26.09.39.13,2.56.65,5.38.13,7.46-1.35,1.09.83,2.21,1.39,3.34,1.61.78.13,1.52.22,2.21.22,1.65,0,2.95-.35,3.99-.74-.13.39-.26.74-.39,1.13M138.78,61.35c-.35.13-.74.3-1.17.48-2.21.91-5.95,2.39-7.68,1.26-.69-.43-1.13-1.35-1.21-2.69-.04-.35.04-.87.13-1.48.3-2.21.83-5.99-1.78-11.63-.35-.78-.52-1.21-.43-1.35,0,0,.17-.3,1.39-.48.52-.09,1.21-.13,2.04-.17,2.6-.17,6.47-.48,9.46-2.21-.87,3.6-.74,7.98.91,13.11l.04.35c.39,2,.56,3.99-1.69,4.82M155.31,80.44c1.13.74,1.95,1.26,2.52,1.56.87.48.78.91.69,1.13-.04.3-.43.87-1.13,1.13-.48.17-1.48-.65-2.34-1.39-.48-.39-.95-.83-1.52-1.17-1.3-.91-3.91-2.47-6.94-4.3-.52-.3-1.09-.65-1.61-1,.48-.48.95-.91,1.39-1.39,3.56,1.95,6.73,3.99,8.94,5.42M135.13,84.61c-.52.48-1.65.61-2,.48l-.43-.78c-.35-.61-.61-1.17-.91-1.74.83-.22,1.61-.43,2.39-.65.48.95.87,1.82,1.09,2.3.04.09.04.17-.13.39M122.63,75.15c-.43.74-1.08,3.64-2.34,10.67l-.17.82c-.09.48-.74.48-1,.43-.22-.04-1-.22-.87-1,.22-1.61,1.95-10.11,2.56-12.24.26-.87,2.78-1.69,5.16-2.43,1.82-.57,3.86-1.26,5.9-2.17.09-.04.22-.09.35-.09.17,0,.35.09.48.35.17.39.22,1.08-.52,1.47-2.39,1.3-4.64,2-6.29,2.52-1.74.56-2.78.87-3.25,1.65M192.37.51c-.26-.48-.87-.65-1.35-.39-14.62,8.16-25.17,19.14-30.72,31.94-1.3-.56-3.3-1.17-5.68-1.17-3.25-7.51-11.07-18.62-26.6-25.17-.52-.22-1.09.04-1.3.52-.22.48.04,1.09.52,1.3,14.58,6.12,22.05,16.36,25.3,23.43-2.08.26-4.3,1-6.64,2.56-1.91,1.26-3.65,3.12-4.9,5.55-2.26,3.6-7.55,3.95-11.07,4.21-.87.04-1.65.13-2.21.22-.95.17-2.26.48-2.82,1.52-.17.35-.22.69-.22,1.09-2.78.74-9.07,2.47-23.56,6.47-.52.13-.82.69-.69,1.21.13.52.69.82,1.21.69,14.32-3.95,20.79-5.73,23.61-6.47,0,.04.04.09.04.09.56,1.22.95,2.34,1.26,3.34-6.25,3.08-20.48,10.03-31.07,14.84-.48.22-.74.83-.48,1.3.17.35.52.56.91.56.13,0,.26-.04.43-.09,10.37-4.73,24.21-11.46,30.68-14.63.35,2.21.13,3.86-.04,5.16-.09.69-.17,1.35-.13,1.91.13,2,.87,3.43,2.13,4.25.78.48,1.74.69,2.69.69,2.3,0,4.86-1.04,6.77-1.78.43-.17.82-.3,1.13-.43,1.74-.65,2.56-1.74,2.91-2.95.91,2.26,3.12,5.99,5.64,8.46-.39.91-1.91,4.12-4.86,6.64-4.34,3.69-12.71,5.73-20.22,6.94.69-3.65,1.17-5.73,1.35-6.12.22-.22,1.3-.56,2.21-.82,1.74-.52,4.12-1.26,6.64-2.65,1.65-.91,2-2.82,1.35-4.12-.65-1.3-2.08-1.82-3.43-1.17-1.91.87-3.91,1.52-5.68,2.08-3.43,1.09-5.9,1.91-6.47,3.78-.48,1.65-1.56,6.64-2.17,9.94-2.78.3-5.21.52-6.77.65-.56.04-.95.52-.91,1.09.04.52.48.91,1,.91h.09c1.95-.17,4.08-.39,6.25-.61-.04.26-.09.48-.09.61-.17,1.43.65,2.47,1.69,2.95l-1.87,11.28-.91-.39c-.22-.09-.43-.09-.65-.04l-3.17.87c-.52.13-.83.69-.69,1.21.13.43.52.74.95.74.09,0,.17,0,.26-.04l2.82-.78,1.78.74c.26.13.61.09.87-.04.26-.13.43-.39.48-.69l2.08-12.59c1.09-.17,1.95-.91,2.13-2l.17-.82c.13-.61.22-1.21.35-1.78,2.47-.39,4.95-.83,7.33-1.39.43.78.82,1.56,1.17,2.17l.48.87c.35.69,1.17.95,2,.95.26,0,.52-.04.78-.09l7.94,15.01c.13.26.35.43.65.48.26.09.56,0,.78-.13l1.3-.87,1.87.91c.13.09.3.09.43.09.35,0,.69-.22.87-.56.26-.48.04-1.09-.43-1.35l-2.39-1.17c-.3-.17-.69-.13-1,.04l-.87.56-7.33-13.84c.91-.69,1.26-1.65.87-2.65-.17-.48-.56-1.26-1.04-2.21,2.82-.95,5.34-2.13,7.33-3.56.74.48,1.52.91,2.26,1.35,2.86,1.74,5.55,3.34,6.81,4.21.48.35.95.74,1.39,1.08,1.17.95,2.26,1.87,3.47,1.87.26,0,.52-.04.78-.13.13-.04.26-.13.39-.17l4.77,15.75c.09.26.3.52.56.65.26.13.56.09.83-.04l1.95-1,3.43,1.09c.09.04.22.04.3.04.43,0,.82-.26.95-.69.17-.52-.13-1.09-.65-1.26l-3.82-1.17c-.26-.09-.52-.04-.74.04l-1.22.65-4.69-15.45c.17-.3.35-.61.39-.95.17-.78.17-2.26-1.69-3.3-.48-.26-1.3-.82-2.39-1.52-2.17-1.43-5.25-3.43-8.81-5.34.95-1.3,1.61-2.52,1.95-3.3.69.52,1.39.91,2.04,1.13.13.04.26.09.39.09,0,.04.04.09.04.13.61,1.52,1.95,2.65,3.34,2.73h.09c.52,0,.95-.39,1-.91.04-.56-.35-1.04-.91-1.08-.52-.04-1.09-.48-1.48-1.13.13-.04.3-.13.43-.22,1.74-1.17,2.26-1.09,2.99-.95.35.04.69.09,1.17.13.26,0,.52-.04.78-.09-.26.56-.65,1.17-1.39,1.74-.43.35-.52.95-.17,1.39.22.26.48.39.78.39.22,0,.43-.04.61-.22,1.65-1.26,2.39-3.04,2.43-4.34,1.39-1.26,2.08-3.34,2.73-5.25.43-1.39.91-2.78,1.61-3.99l-.04-.04c1.69-2.65,1.78-7.46,1.3-10.76-.09-.52-.17-1-.26-1.43-.13-.52-.17-1.09-.22-1.74,1.21-.35,2-1.78,1.04-5.69-.74-2.91-1.87-3.69-2.65-3.82-.65-1.26-1.69-2.39-3.17-3.3,5.38-12.5,15.67-23.22,29.94-31.16.35-.17.52-.78.26-1.3"/></g></g></svg>