<?xml version="1.0" encoding="UTF-8"?><svg id="Calque_2" xmlns="http://www.w3.org/2000/svg" viewBox="0 0 248.3 85.73"><defs><style>.cls-1{fill:#fff;stroke-width:0px;}</style></defs><g id="svg2"><g id="g40"><path id="path42" class="cls-1" d="M49.92,39.15c-3.19,0-5.78,2.58-5.79,5.77,0,3.19,2.58,5.78,5.77,5.79,3.19,0,5.78-2.58,5.79-5.77,0-3.19-2.58-5.78-5.77-5.79M0,37.88c1.39-.46,2.77-.98,4.18-1.41,3.83-1.18,7.74-2.03,11.71-2.55,1.99-.29,4.01-.36,6.01-.19h.09c.97.09.99.1,1.28-.83.63-2.13.85-4.35.67-6.56-.08-1.34-.34-1.09,1.07-1.19,1.86-.06,3.7.41,5.3,1.36.68.44,1.46.72,2.26.81.53.03,1.04-.13,1.46-.46.34-.2.47-.64.29-.99-.21-.46-.47-.9-.76-1.31-1.17-1.68-1.68-3.73-1.45-5.75.3-3.39,1.5-6.63,3.46-9.4.69-1.07,1.48-2.07,2.22-3.1,1.15-1.48,2.01-3.15,2.54-4.94.11-.42.18-.85.28-1.36.18.04.35.11.51.2.24.19.44.43.6.69,1.41,2.28,3.03,4.41,4.86,6.36,2.71,3.29,5.02,6.9,6.86,10.74.42.82.84,1.65,1.24,2.48.07.23.3.36.53.31,1.01-.11,1.99-.39,2.91-.81.71-.36,1.33-.89,1.8-1.53.41-.52.85-1.02,1.31-1.49.35-.36.51-.35.71.11.34.7.57,1.45.69,2.22.29,2.55,1.67,4.85,3.77,6.32.38.27.79.48,1.22.62.18.03.37-.04.49-.18.71-1.72,2.29-2.93,4.13-3.19,2.36-.52,4.78-.72,7.19-.59,2.62.06,5.22.42,7.75,1.07,1.39.32,2.84.23,4.17-.27.16.53.15,1.09-.02,1.61-.31,1.21-.87,2.34-1.63,3.33-1.58,2.09-3.22,4.13-4.85,6.17-1.33,1.64-2.71,3.23-4.07,4.85-.78,1.05-1.73,1.98-2.8,2.73.33.86,1.04,1.51,1.92,1.76.65.14,1.3.24,1.96.29.73.09,1.47.13,2.18.28.34.11.65.31.89.56.2.13.26.41.13.61-.04.07-.1.12-.18.15-.79.55-1.55,1.16-2.39,1.63-1.31.66-2.48,1.56-3.45,2.65-1.03,1.18-1.71,2.63-1.96,4.18-.16.63.07,1.3.58,1.7.56.43,1.11.87,1.69,1.28,2.03,1.43,3.65,3.39,4.66,5.66.59,1.45.9,3,.92,4.56.07,1.54.02,3.1.11,4.64.11.84.26,1.68.46,2.5.12.59.2,1.19.23,1.79.02.63-.11.75-.73.73-1.31-.06-2.63-.09-3.93-.28-4.49-.64-8.91-1.71-13.2-3.18-1.58-.55-3.11-1.24-4.63-1.92-.57-.28-1.1-.63-1.59-1.04-.27-.2-.43-.17-.61.05-.41.5-.82,1.01-1.22,1.52-.49.62-.95,1.28-1.47,1.88-.45.68-1.37.87-2.05.42-.11-.07-.2-.15-.29-.25-.47-.33-.74-.89-.71-1.46.03-5.31.02-10.62.02-15.93v-.57c-.19.04-.32.07-.46.11-4.62,1.31-9.25,2.62-13.87,3.92-.33.09-.49.23-.46.59.03.46.02.92,0,1.38-.03.18.09.36.27.39.02,0,.05,0,.07,0,.24.03.49.07.72.13,2.09.42,3.62,2.23,3.67,4.36.07.67.1,1.35.11,2.03.01,1.95,0,3.9.01,5.86.02.36-.13.71-.39.95-1.18,1.21-2.47,2.32-3.85,3.3-2.49,1.81-5.11,3.44-7.84,4.87-1.87.92-3.87,1.55-5.92,1.87-.29.05-.4-.04-.49-.31-.57-1.71-.94-3.48-1.09-5.28-.19-2.24-.29-4.5-.33-6.75,0-1.97.23-3.93.69-5.84.27-2.17-1.16-4.18-3.3-4.63-.91-.15-1.8-.38-2.68-.67-.2-.07-.4-.17-.58-.29-.29-.1-.45-.42-.35-.71.01-.04.03-.08.06-.12.35-.69.69-1.37,1.07-2.02.36-.61.79-1.17,1.19-1.76.61-.87.9-1.93.82-2.99-.07-.89-.16-1.78-.23-2.68-.61.14-1.15.32-1.72.4-1.76.21-3.55-.09-5.15-.84-2.9-1.3-5.55-3.07-7.86-5.25-2.54-2.3-4.89-4.81-7-7.52-.14-.18-.31-.34-.46-.51v-.09Z"/></g><g id="g44"><path id="path46" class="cls-1" d="M106.94,65.64v-18.19l4.85-.76v18.95h-4.85ZM109.37,45.02c-1.65-.01-2.98-1.35-2.97-3,.01-1.67,1.37-3.01,3.04-3,1.63.01,2.95,1.35,2.93,2.98v.02c0,1.65-1.32,2.99-2.97,3h-.03"/></g><g id="g48"><path id="path50" class="cls-1" d="M127.42,65.64v-12.04c0-2.1-.36-2.71-1.63-2.71-1.28.15-2.47.74-3.36,1.66v13.09h-4.85v-13.42c.02-1.47-.2-2.94-.65-4.34l4.31-1.23c.43.7.66,1.5.69,2.31.68-.5,1.4-.96,2.13-1.38,1.03-.51,2.17-.79,3.33-.8,1.89-.11,3.66.95,4.45,2.68.28.85.4,1.75.36,2.64v13.53h-4.77Z"/></g><g id="g52"><path id="path54" class="cls-1" d="M146.67,42.99c-.6-.37-1.28-.59-1.99-.62-1.05-.07-1.96.71-2.03,1.76,0,.11,0,.22,0,.33v2.64h4.7l-1.23,3.33h-3.45v15.19h-4.74v-15.19h-1.67v-3.33h1.77c-.12-.84-.18-1.68-.18-2.53-.25-2.94,1.93-5.52,4.87-5.76.37-.03.74-.02,1.1.02,1.54-.03,3.05.37,4.38,1.15l-1.55,3Z"/></g><g id="g56"><path id="path58" class="cls-1" d="M158.68,51.31c-.93-1.13-2.6-1.3-3.73-.38-.41.33-.71.78-.86,1.28-.71,2.89-.67,5.92.11,8.79.45.94,1.41,1.54,2.46,1.52,2.1,0,3-1.88,3-6.26.18-1.71-.16-3.44-.98-4.95h0ZM162.62,63.47c-1.53,1.75-3.79,2.7-6.11,2.57-5.03,0-8.32-3.76-8.32-9.58s3.33-9.7,8.32-9.7c2.42-.1,4.75.93,6.29,2.79,1.55,1.9,2.31,4.32,2.13,6.77.19,2.6-.64,5.17-2.31,7.16"/></g><g id="g60"><path id="path62" class="cls-1" d="M187.03,42.99c-.6-.37-1.28-.59-1.99-.62-1.05-.07-1.96.71-2.03,1.76,0,.11,0,.22,0,.33v2.64h4.7l-1.23,3.33h-3.44v15.19h-4.74v-15.19h-1.67v-3.33h1.77c-.12-.84-.18-1.68-.18-2.53-.25-2.94,1.93-5.52,4.87-5.76.37-.03.74-.02,1.1.02,1.54-.03,3.05.37,4.38,1.15l-1.55,3Z"/></g><g id="g64"><path id="path66" class="cls-1" d="M195.42,66.07c-1.82.15-3.55-.86-4.31-2.53-.43-1.34-.58-2.76-.43-4.16v-13.82c.02-1.86-.06-3.72-.25-5.57l4.95-1.12c.23,1.6.31,3.21.25,4.82v14.43c0,3.18.04,3.62.33,4.13.21.33.58.52.98.51.18,0,.37-.02.54-.07l.83,2.89c-.93.33-1.91.5-2.89.48"/></g><g id="g68"><path id="path70" class="cls-1" d="M210.43,51.31c-.93-1.13-2.6-1.3-3.73-.38-.41.33-.71.78-.86,1.28-.71,2.89-.67,5.92.11,8.79.45.94,1.41,1.54,2.46,1.52,2.1,0,3-1.88,3-6.26.18-1.71-.16-3.44-.98-4.95h0ZM214.37,63.47c-1.53,1.75-3.79,2.7-6.11,2.57-5.03,0-8.32-3.76-8.32-9.58s3.33-9.7,8.32-9.7c2.42-.1,4.75.93,6.29,2.79,1.55,1.9,2.31,4.32,2.13,6.77.19,2.6-.64,5.17-2.31,7.16"/></g><g id="g72"><path id="path74" class="cls-1" d="M230.22,51.35c-.43-.25-.92-.37-1.41-.36-1.17.04-2.27.61-2.97,1.55v13.09h-4.85v-12.37c.07-1.83-.17-3.67-.69-5.43l4.34-1.15c.45.81.72,1.71.76,2.64.95-1.51,2.56-2.49,4.34-2.64.63-.02,1.25.12,1.81.4l-1.33,4.27Z"/></g><g id="g76"><path id="path78" class="cls-1" d="M241.6,57.54c-3.36,0-4.52.62-4.52,2.82-.13,1.21.75,2.29,1.96,2.41.06,0,.12.01.17.01.98-.05,1.9-.51,2.53-1.27l.07-3.98h-.21ZM245.73,66.58c-1.1-.43-2.02-1.22-2.6-2.24-.35.35-.72.68-1.12.98-1.11.71-2.41,1.07-3.73,1.01-4.13,0-6.37-2.1-6.37-5.79,0-4.34,3-6.37,8.9-6.37.36,0,.69,0,1.09.04v-.76c0-2.07-.4-2.75-2.17-2.75-1.95.17-3.81.9-5.35,2.1l-2.07-3.47c.95-.6,1.96-1.11,3-1.52,1.59-.71,3.32-1.08,5.06-1.09,3.11,0,5.25,1.15,5.97,3.21.33,1.08.44,2.21.33,3.33l-.11,6.22c-.33,1.6.36,3.25,1.74,4.13l-2.57,2.97Z"/></g></g></svg>