<?xml version="1.0" encoding="UTF-8"?>
<svg id="Calque_1" data-name="Calque 1" xmlns="http://www.w3.org/2000/svg" version="1.1" viewBox="0 0 419 324">
  <defs>
    <style>
      .cls-1, .cls-2, .cls-3, .cls-4 {
        stroke-width: 0px;
      }

      .cls-1, .cls-5 {
        fill: #ed1c24;
      }

      .cls-6, .cls-7, .cls-3 {
        fill: #fddd04;
      }

      .cls-6, .cls-7, .cls-5 {
        stroke: #000;
      }

      .cls-6, .cls-5 {
        stroke-width: .8px;
      }

      .cls-2 {
        fill: #000;
      }

      .cls-7 {
        stroke-width: 1.5px;
      }

      .cls-4 {
        fill: #fff;
      }
    </style>
  </defs>
  <g id="i">
    <path class="cls-2" d="M97,74.1l60.4-13.7-60.4-13.7"/>
    <path class="cls-3" d="M127.3,66.5l26.4-5.8h-25.8M127.9,60.1h25.8c0,.1-26.4-5.6-26.4-5.6"/>
  </g>
  <g id="j">
    <g id="h">
      <path class="cls-2" d="M115,33.3c0-.3,0-1,0-2.4.2-1.1.8-2,1.5-3.1.8-1.1,1.6-2.4,1.9-3.9.3-1.5,0-2.8-.3-4-.4-1.5-.7-3.1,0-5.1,1.2-3.8,4.4-5.8,4.5-5.8l.7-.4-.7-.3c-2.8-1.1-6.5,0-8.7,2.5-1.1,1.4-1.6,3.3-2,5.1-.4,1.6-.8,3.1-1.5,4.2-.7,1-1.6,1.6-2.7,2.3-1.3.9-3,2-4.7,4.1l-19.7,33.8"/>
      <g id="i-2" data-name="i">
        <path class="cls-2" d="M110.7,60.4L97,0l-13.7,60.4"/>
        <path class="cls-3" d="M103.1,30.1l-5.8-26.4v25.8M96.6,29.5V3.7c.1,0-5.6,26.4-5.6,26.4"/>
      </g>
      <path class="cls-3" d="M113.4,34.3l.9-.6c-.1-.4-.2-.9,0-2.9.2-1.2.9-2.3,1.7-3.4.7-1.1,1.5-2.2,1.8-3.6.3-1.3,0-2.5-.3-3.7-.4-1.7-.8-3.3,0-5.6,1-3,3-4.9,4.1-5.7-2.4-.6-5.4.5-7.1,2.6-1,1.2-1.4,3-1.9,4.8-.4,1.6-.8,3.2-1.6,4.4-.8,1.1-1.8,1.7-2.9,2.5-1.5,1-3.1,2.1-4.8,4.5l.6,2.7"/>
    </g>
    <g id="h-2" data-name="h">
      <path class="cls-2" d="M128.9,54c.2-.3.6-.7,1.7-1.6.9-.7,2-.8,3.3-1.1,1.4-.2,2.8-.5,4.1-1.4,1.2-.8,2-2,2.6-3.1.8-1.3,1.7-2.7,3.6-3.7,3.5-1.9,7.2-1,7.2-.9l.7.2-.3-.7c-1.2-2.8-4.6-4.7-8-4.4-1.8.2-3.4,1.2-5.1,2.2-1.4.9-2.7,1.7-4,1.9-1.2.2-2.3,0-3.5-.3-1.6-.3-3.5-.7-6.2-.4l-37.8,10"/>
      <g id="i-3" data-name="i">
        <path class="cls-2" d="M106.7,70.1l33-52.4-52.4,33"/>
        <path class="cls-3" d="M122.7,43.3l14.6-22.7-18.2,18.3M118.6,38.3l18.3-18.2-22.7,14.6"/>
      </g>
      <path class="cls-3" d="M127.1,53.6l1.1.2c.2-.4.5-.8,2.1-2,1-.7,2.2-1,3.6-1.3,1.3-.2,2.7-.5,3.8-1.3,1.1-.8,1.8-1.7,2.4-2.8.9-1.4,1.8-2.9,3.9-4,2.8-1.4,5.6-1.3,7-1.1-1.3-2.1-4.1-3.5-6.8-3.2-1.6.1-3.2,1.1-4.7,2.1-1.4.9-2.8,1.7-4.3,2-1.3.2-2.5,0-3.8-.3-1.8-.3-3.7-.7-6.6-.2l-1.5,2.3"/>
    </g>
  </g>
  <g id="j-2" data-name="j">
    <g id="h-3" data-name="h">
      <path class="cls-2" d="M69.8,42.4c-.3,0-1,0-2.4,0-1.1-.2-2-.8-3.1-1.5-1.1-.8-2.4-1.6-3.9-1.9-1.5-.3-2.8,0-4,.3-1.5.4-3.1.7-5.1,0-3.8-1.2-5.8-4.4-5.8-4.5l-.4-.7-.3.7c-1.1,2.8,0,6.5,2.5,8.7,1.4,1.1,3.3,1.6,5.1,2,1.6.4,3.1.8,4.2,1.5,1,.7,1.6,1.6,2.3,2.7.9,1.3,2,3,4.1,4.7l33.8,19.7"/>
      <g id="i-4" data-name="i">
        <path class="cls-2" d="M97,46.7l-60.4,13.7,60.4,13.7"/>
        <path class="cls-3" d="M66.7,54.3l-26.4,5.8h25.8M66.1,60.8h-25.8c0-.1,26.4,5.6,26.4,5.6"/>
      </g>
      <path class="cls-3" d="M70.9,44l-.6-.9c-.4.1-.9.2-2.9,0-1.2-.2-2.3-.9-3.4-1.7-1.1-.7-2.2-1.5-3.6-1.8-1.3-.3-2.5,0-3.7.3-1.7.4-3.3.8-5.6,0-3-1-4.9-3-5.7-4.1-.6,2.4.5,5.4,2.6,7.1,1.2,1,3,1.4,4.8,1.9,1.6.4,3.2.8,4.4,1.6,1.1.8,1.7,1.8,2.5,2.9,1,1.5,2.1,3.1,4.5,4.8l2.7-.6"/>
    </g>
    <g id="h-4" data-name="h">
      <path class="cls-2" d="M90.6,28.5c-.3-.2-.7-.6-1.6-1.7-.7-.9-.8-2-1.1-3.3-.2-1.4-.5-2.8-1.4-4.1-.8-1.2-2-2-3.1-2.6-1.3-.8-2.7-1.7-3.7-3.6-1.9-3.5-1-7.2-.9-7.2l.2-.7-.7.3c-2.8,1.2-4.7,4.6-4.4,8,.2,1.8,1.2,3.4,2.2,5.1.9,1.4,1.7,2.7,1.9,4,.2,1.2,0,2.3-.3,3.5-.3,1.6-.7,3.5-.4,6.2l10,37.8"/>
      <g id="i-5" data-name="i">
        <path class="cls-2" d="M106.7,50.7L54.3,17.7l33,52.4"/>
        <path class="cls-3" d="M79.8,34.7l-22.7-14.6,18.3,18.2M74.9,38.8l-18.2-18.3,14.6,22.7"/>
      </g>
      <path class="cls-3" d="M90.2,30.3l.2-1.1c-.4-.2-.8-.5-2-2.1-.7-1-1-2.2-1.3-3.6-.2-1.3-.5-2.7-1.3-3.8-.8-1.1-1.7-1.8-2.8-2.4-1.4-.9-2.9-1.8-4-3.9-1.4-2.8-1.3-5.6-1.1-7-2.1,1.3-3.5,4.1-3.2,6.8.1,1.6,1.1,3.2,2.1,4.7.9,1.4,1.7,2.8,2,4.3.2,1.3,0,2.5-.3,3.8-.3,1.8-.7,3.7-.2,6.6l2.3,1.5"/>
    </g>
  </g>
  <g id="h-5" data-name="h">
    <path class="cls-2" d="M90.6,28.5c-.3-.2-.7-.6-1.6-1.7-.7-.9-.8-2-1.1-3.3-.2-1.4-.5-2.8-1.4-4.1-.8-1.2-2-2-3.1-2.6-1.3-.8-2.7-1.7-3.7-3.6-1.9-3.5-1-7.2-.9-7.2l.2-.7-.7.3c-2.8,1.2-4.7,4.6-4.4,8,.2,1.8,1.2,3.4,2.2,5.1.9,1.4,1.7,2.7,1.9,4,.2,1.2,0,2.3-.3,3.5-.3,1.6-.7,3.5-.4,6.2l10,37.8"/>
    <g id="i-6" data-name="i">
      <path class="cls-2" d="M106.7,50.7L54.3,17.7l33,52.4"/>
      <path class="cls-3" d="M79.8,34.7l-22.7-14.6,18.3,18.2M74.9,38.8l-18.2-18.3,14.6,22.7"/>
    </g>
    <path class="cls-3" d="M90.2,30.3l.2-1.1c-.4-.2-.8-.5-2-2.1-.7-1-1-2.2-1.3-3.6-.2-1.3-.5-2.7-1.3-3.8-.8-1.1-1.7-1.8-2.8-2.4-1.4-.9-2.9-1.8-4-3.9-1.4-2.8-1.3-5.6-1.1-7-2.1,1.3-3.5,4.1-3.2,6.8.1,1.6,1.1,3.2,2.1,4.7.9,1.4,1.7,2.8,2,4.3.2,1.3,0,2.5-.3,3.8-.3,1.8-.7,3.7-.2,6.6l2.3,1.5"/>
  </g>
  <path id="f" class="cls-4" d="M92.2,309.5s.2.2.2.4v12.1c0,.1-.2.4-.2.4h7.8v-1.5s-.3.2-.4.2h-5.7c0,0-.2,0-.3-.1v-4.4h4.3c.1,0,.4.2.4.2v-1.7s-.3.2-.4.2h-4.3v-4.5h6c.1,0,.4.2.4.2v-1.5h-7.9Z"/>
  <path id="g" class="cls-4" d="M141.8,309.1c-.6,0-3.1.4-3.1,2.9s1.3,2.7,2.3,3.2c1,.5,3,1.1,3,3.2s-1.8,2.8-2.9,2.8-1.9-.4-2.4-1v2.3s.3-.2.5-.2,1.2.2,1.8.2c1.1,0,4.5-.5,4.5-4.2s-1-3.1-2.8-4.1c-1.7-.9-2.6-1.1-2.6-2.3s1.1-1.6,1.9-1.6,1.4.1,1.9.8v-2s-.2.2-.4.2-1.2-.3-1.8-.3Z"/>
  <circle class="cls-6" cx="97" cy="60.4" r="30.5"/>
  <path class="cls-2" d="M0,189.6C0,215.5,10.1,239.8,28.3,258.1c18.3,18.3,42.6,28.4,68.5,28.4s50.2-10.1,68.5-28.4c18.2-18.3,28.3-42.6,28.3-68.5v-121.7H0s0,121.7,0,121.7Z"/>
  <path class="cls-1" d="M97.4,70.4v213.6c24.9-.1,48.4-9.9,66.2-27.7,17.8-17.8,27.7-41.5,27.7-66.7v-119.2h-93.9Z"/>
  <path class="cls-4" d="M97,36.7c-5.6,0-5.8,3.8-4.6,5.2l-6.7-1.4-2.1,3.4h11.8c-2.9-1.4-1.4-3.7,1.5-3.7s4.5,2.2,1.6,3.7h11.7l-2-3.4-6.7,1.4c1.3-1.4,1-5.2-4.5-5.2h0ZM77.5,46.2l1.3,1.4v14.5l-1.3,1.4h6.2l-1.2-1.4v-14.5l1.2-1.4h-6.2ZM86.9,46.2l1.3,1.4v14.5l-1.3,1.4h6.2l-1.3-1.4v-5.5h6.7v5.5l-1.2,1.4h6.2l-1.3-1.4v-14.5l1.3-1.4h-6.2l1.2,1.4v5.4h-6.7v-5.4l1.3-1.4h-6.2ZM105.5,46.2l4.9,8.7-4.9,8.7h11.3l2-3.6h-7.1l2.9-5-2.9-5h5.7l-2.1-3.7h-9.8ZM221.1,68.3v22.9h3.4v-10.2h2c1.8,0,2.9,0,4,2.2l3.6,7.9h3.9l-4.5-9.1c-.7-1.4-1.2-1.9-2.3-2.3h0c2.8-.5,4.9-2.5,4.9-5.2,0-5.5-4.5-6.2-9.2-6.2h-5.9ZM260.9,68.3v22.9h3.4v-9.2h3.4c4.3,0,8.4-1.8,8.4-6.9s-4-6.9-8.9-6.9h-6.2ZM304.5,68.3v22.9h6.4c4.8,0,9.1-1.2,9.1-6.1s-2.3-5.2-5.5-5.5h0c3-.8,4.9-2.4,4.9-5.5s-3.4-5.8-8.4-5.8h-6.4ZM325.5,68.3v22.9h13.4v-2.9h-10v-20h-3.4ZM342.6,68.3v22.9h3.4v-22.9h-3.4ZM307.9,71h3.6c2,0,4.4.7,4.4,3.4s-2.8,3.7-6.1,3.7h-1.9v-7.1ZM224.6,71.2h3.2c3.1,0,4.8,1.3,4.8,3.4s-1.9,3.6-5.1,3.6h-2.9v-6.9ZM264.3,71.2h2.9c2.1,0,5.2,1,5.2,3.9s-2.7,4.1-4.8,4.1h-3.4v-8ZM307.9,80.8h2.2c2.9,0,6.2.5,6.2,4s-2.8,3.7-5.8,3.7h-2.6v-7.8ZM364.2,91.5l4.4,4h4.2l-5.5-4.8M285.2,106c-7.3,0-12.6,4.7-12.6,11.8s5,11.9,12.6,11.9,3.6-.1,5.4-.8l-.2-3.2c-1.2.7-3.5,1.1-5.2,1.1-5,0-9-3.6-9-8.9s3.6-9,9.1-9,3.4.4,4.9,1.3l.3-3.2c-1.7-.7-3.5-1-5.4-1h0ZM303.9,106.4l-10.2,22.9h3.6l2.4-5.8h11.7l2.4,5.8h3.7l-10.1-22.9h-3.6ZM305.6,109.5l4.8,11.3h-9.5l4.7-11.3ZM292.9,143.1c-7.3,0-12.6,4.7-12.6,11.7s5,11.9,12.5,11.9,6-.6,7.3-1v-11.9h-8.4v2.7h5v6.9c-.9.2-1.5.4-3.8.4-5,0-9-3.6-9-9s3.6-8.9,9.1-8.9,4.9.5,6.6,1.6l.3-3.3c-2-.7-3.5-1.1-7-1.1ZM221.1,143.5v22.9h7c7.8,0,12.7-4,12.7-11.7s-5.6-11.2-12.7-11.2h-7ZM375.5,143.5l9,22.9h4.3l9.1-22.9h-3.6l-7.5,20h0l-7.3-20h-3.8ZM224.6,146.4h4c4.9,0,8.7,3.1,8.7,8.5s-3.3,8.6-9.1,8.6h-3.6v-17.1ZM23.2,308.7c-3.8,0-6.9,3.1-6.9,6.9s3.1,6.9,6.9,6.9,6.9-3.1,6.9-6.9-3.1-6.9-6.9-6.9ZM131.5,309l-5.6,12.9c0,.2-.3.4-.3.4h1.8s-.2-.2-.1-.4l1.3-3h5.9l1.2,3c0,.2-.1.4-.1.4h1.8s-.2-.2-.3-.4l-5.6-12.9ZM79.8,309.1v12.9c0,.1-.2.4-.2.4h1.7s-.2-.3-.2-.4v-9.2l7.9,9.9v-12.8c0-.1.2-.4.2-.4h-1.7s.2.3.2.4v9.1l-7.9-9.9ZM10.6,309.2c-.8,0-1.9.1-2.4.3-.2,0-.4,0-.5,0-.1,0-.3,0-.3,0-.1,0-.4-.2-.4-.2v12.7c0,.1-.2.4-.2.4h1.7s-.2-.3-.2-.4v-4.8c.7.4,1.5.6,2.4.6,2.4,0,4.3-2,4.3-4.3s-1.9-4.3-4.3-4.3ZM107,309.2c-.8,0-1.8.1-2.4.3-.2,0-.4,0-.5,0-.1,0-.3,0-.3,0-.1,0-.4-.2-.4-.2v12.7c0,.1-.2.4-.2.4h5.2c1.9,0,3.9-1.6,3.9-3.9s-.8-2.9-1.9-3.3c.5-.4,1-1,1-1.9,0-2.4-1.6-4.1-4.3-4.1ZM118.8,309.2c-.8,0-1.8.1-2.4.3-.2,0-.4,0-.5,0-.1,0-.4,0-.4,0-.1,0-.4-.2-.4-.2v12.7c0,.1-.2.4-.2.4h1.7s-.2-.3-.2-.4v-11.1c.7-.3,1.6-.4,2.4-.4,2,0,3,1.4,3,3s-1.3,2.3-3,2.3h-.6v1.2c3.6,0,4.5,3.6,4.5,5v.4h1.8s-.4-.6-.4-.7c-.2-1.5-.8-3.9-3-5.1,1.2-.5,2-1.5,2-3,0-2.4-1.4-4.3-4.3-4.3ZM38.8,309.3v1.5s.2-.2.4-.2h3.3v11.4c0,.1-.2.4-.2.4h1.7s-.2-.3-.2-.4v-11.4h3.3c.1,0,.4.2.4.2v-1.5h-8.7ZM57.4,309.3v1.5s.2-.2.4-.2h3.3v11.4c0,.1-.2.4-.2.4h1.7s-.2-.3-.2-.4v-11.4h3.4c.1,0,.4.2.4.2v-1.5h-8.7ZM167.3,309.4s.2.3.2.4v8.4c0,2.5,2,4.5,4.5,4.5s4.5-2,4.5-4.5v-8.4c0-.1.2-.4.2-.4h-1.7s.2.3.2.4v8.4c0,1.8-1.4,3.2-3.2,3.2s-3.2-1.4-3.2-3.2v-8.4c0-.1.2-.4.2-.4h-1.8ZM179.1,309.4s.2.3.3.4l3.3,5.6-3.9,6.5c-.1.2-.4.4-.4.4h1.9s-.2-.2-.1-.4l3.2-5.4,3.2,5.4c0,.2-.1.4-.1.4h1.9s-.2-.2-.4-.4l-3.8-6.5,3.3-5.6c0-.1.4-.4.4-.4h-1.9s.2.3.1.4l-2.6,4.5-2.7-4.5c0-.1.1-.4.1-.4h-1.9ZM158,309.5s.2.3.2.4v12.1c0,.1-.2.4-.2.4h7.9v-1.5s-.3.2-.4.2h-6v-11.2c0-.1.2-.4.2-.4h-1.8ZM23.2,310.1c3.1,0,5.6,2.5,5.6,5.6s-2.5,5.6-5.6,5.6-5.6-2.5-5.6-5.6,2.5-5.6,5.6-5.6ZM10.6,310.5c1.7,0,3,1.4,3,3s-1.3,3-3,3-1.8-.3-2.4-.9v-4.8c.7-.3,1.6-.4,2.4-.4ZM107,310.5c2,0,3,1.1,3,2.8s-.9,1.6-1.9,1.6-.9,0-1.6,0v1.2h2c2.1,0,2.4,1.2,2.4,2.5s-1.2,2.8-3.1,2.8h-3.2v-10.4c.7-.3,1.6-.4,2.4-.4ZM131.5,312.2l2.4,5.6h-4.9l2.4-5.6Z"/>
  <path class="cls-1" d="M56.8,85c-1.4,0-2.7.5-3.6,1.5-1,1-1.6,2.3-1.6,3.7s.6,2.7,1.6,3.7c1,1,2.2,1.5,3.6,1.5h9.2c2.9,0,5.2-2.4,5.2-5.2s-.6-2.7-1.5-3.7c-1-1-2.3-1.5-3.7-1.5s-2.3.4-3.2,1.1c-.4.3-.9.3-1.4.3s-1.1,0-1.4-.3c-.9-.7-2-1.1-3.1-1.1ZM56.8,87c1.9,0,3.1,1.5,3.1,3.1v3.1h-3.1c-.8,0-1.6-.3-2.2-.9-.6-.6-.9-1.4-.9-2.2,0-1.7,1.3-3.1,3-3.1ZM65.9,87c.8,0,1.6.3,2.2.9.6.6.9,1.4.9,2.2s-.3,1.6-.9,2.2c-.6.6-1.3.9-2.2.9h-3.1v-3.1c0-1.7,1.4-3.1,3.1-3.1ZM55.5,96v2.1h11.7v-2.1c-.4,0-.8.1-1.3.1h-9.2c-.4,0-.9,0-1.3-.2ZM42.2,100.5c-.3,0-.7.2-.9.5-.4.5-.4,1.2-.2,2,.6,1.5,2.2,4.2,2.5,5h.4v-.6c0-.8.4-1.8,1.8-1.8h4.5c1.7,0,3.6,1.6,4.3,3.4.6-.5,1.2-.8,1.9-.8s1.5.3,2.1.9c.6.6.9,1.3.9,2.1s-.5,1.7-1,2.3c-1.1,1-2.5,2-4.1,2.2.9.4,2.7.6,3.8,0,.7-.4,1.4-.9,1.9-1.6.3-.4.6-.9.9-1.4.3-.8.5-1.6.5-2.5s0-1-.2-1.4-.3-.9-.5-1.3c-.4-.8-.8-1.4-1.7-2.1-1.9-1.5-6.8-4.8-6.8-4.8h-10.2ZM39.7,110.9c-.1,1.1.1,2,.8,2.8,1.3,1.6,3.7,2,4.8,2,2.4,0,4.2-1.1,5.7-1.9.3-.2.5-.3.8-.4,2.7-1.5,4.1-1.3,4.8-1v-.2c-.4-.3-1.7-.9-3.3-.9s-1.9.3-2.8.7c-1.2.5-2.6,1.1-4.8,1.1-2.9,0-5-1.3-5.8-2.2h0ZM63.9,206.6c-.3.1-.5.3-.6.4-.6.7-11.2,13.4-11.7,13.9l-.2.3-.3-.2c-.3-.2-.8-.5-1.7-1.5-2-2.1-5.1-5.5-7.1-6.6-.8-.4-2.2-.5-3.2.5-1,1-.9,2.6.1,3.6.9.8,1.9.8,2.6.6h.2c0,0,.2,0,.2,0l3,2.8,1.1.9-1.4-.2c-2.4-.3-11.4-.2-11.5-.2h0c-.8-.1-2.2.4-2.6,1.9-.1.6,0,1.3.3,1.9.4.6.9,1,1.6,1.2.6.2,1.3.1,1.9-.3.6-.3,1-.9,1.2-1.5v-.3c0,0,.4,0,.4,0,4.1.3,6.1,1.1,6.2,1.2l.8.3-.8.4-7,2.9c-1.7.4-2.4,1.5-2.3,2.9,0,.7.4,1.3.9,1.7s1.2.6,1.8.6c1.4-.1,2.3-1.3,2.3-2.8v-.3h.2c0,0,.3-.2.3-.2,1.7-.7,5.7-2.4,9.8-2.8,2.5-.2,4.9-.3,7.4-.3s1.1.1,1.4.4c.3.2.4.6.4,1.1,0,.7-.2,2.3-.2,2.3h0c0,.1-.2.2-.2.2-.5.4-.8,1.1-.8,1.8,0,.7.2,1.3.6,1.8,0,0,1.7,1.6,3.3.4,1.3-1,1.2-2.2,1.1-3.4v-.6c0-4.1-1.7-7.2-4.7-8h-.6c0-.1.4-.6.4-.6l10.6-13.2c0,0,.1-.3.2-.6-1.3-.7-2.4-1.5-3.5-2.5h0ZM39,211.5c-1.2,0-2.3.4-3.2,1.1-1.3,1.2-1.7,2.9-1.2,4.6h0c0-.6.3-1.1.8-1.5.6-.5,1.3-.7,2.1-.6,0,0,0,0,.1,0,0-.9.3-1.7.9-2.3.6-.6,1.3-.9,2-1l-1-.4c-.2,0-.4,0-.6,0h0ZM27.4,223.6c-.6,1.6-.2,3.4,1,4.6h0c-.2-.6-.2-1.1,0-1.7.3-.7.9-1.3,1.6-1.5h.4c-.4-.8-.6-1.7-.3-2.5.2-.7.9-1.6,1.4-1.9-1.9,0-3.6,1.4-4.1,2.9ZM32.7,229.6c-1.2.6-2.2,2.6-1.9,4.4.3,1.7,1.5,3,3.1,3.5h0c-.4-.5-.7-1-.8-1.5-.1-.7.1-1.5.6-2-1.7-1-2-3.2-1.1-4.5ZM56.5,235.6c-.6,1.6-2.3,2-3.5,1.4h-.1c1.3,1.5,3.2,2.1,5,1.6,1.4-.4,2.6-1.4,3.1-2.7-1.3,1.3-3.4.8-4.6-.4Z"/>
  <path id="g-2" data-name="g" class="cls-4" d="M34.8,309.1c-.6,0-3.1.4-3.1,2.9s1.3,2.7,2.3,3.2c1,.5,3,1.1,3,3.2s-1.8,2.8-2.9,2.8-1.9-.4-2.4-1v2.3s.3-.2.5-.2,1.2.2,1.8.2c1.1,0,4.5-.5,4.5-4.2s-1-3.1-2.8-4.1c-1.7-.9-2.6-1.1-2.6-2.3s1.1-1.6,1.9-1.6,1.4.1,1.9.8v-2s-.2.2-.4.2-1.2-.3-1.8-.3Z"/>
  <path id="f-2" data-name="f" class="cls-4" d="M68.7,309.5s.2.2.2.4v12.1c0,.1-.2.4-.2.4h7.8v-1.5s-.3.2-.4.2h-5.7c0,0-.2,0-.3-.1v-4.4h4.3c.1,0,.4.2.4.2v-1.7s-.3.2-.4.2h-4.3v-4.5h6c.1,0,.4.2.4.2v-1.5h-7.9Z"/>
  <path id="a" class="cls-4" d="M248.5,143.5v22.9h13.4v-2.9h-9.9v-7.5h9v-2.9h-9v-6.7h9.9v-2.9h-13.4Z"/>
  <path id="a-2" data-name="a" class="cls-4" d="M308.7,143.5v22.9h13.4v-2.9h-9.9v-7.5h9v-2.9h-9v-6.7h9.9v-2.9h-13.4Z"/>
  <path id="a-3" data-name="a" class="cls-4" d="M357.1,143.5v22.9h13.4v-2.9h-9.9v-7.5h9v-2.9h-9v-6.7h9.9v-2.9h-13.4Z"/>
  <path id="a-4" data-name="a" class="cls-4" d="M403.6,143.5v22.9h13.4v-2.9h-9.9v-7.5h9v-2.9h-9v-6.7h9.9v-2.9h-13.4Z"/>
  <path id="a-5" data-name="a" class="cls-4" d="M403.4,68.3v22.9h13.4v-2.9h-9.9v-7.5h9v-2.9h-9v-6.7h9.9v-2.9h-13.4Z"/>
  <path id="a-6" data-name="a" class="cls-4" d="M242.3,68.3v22.9h13.4v-2.9h-9.9v-7.5h9v-2.9h-9v-6.7h9.9v-2.9h-13.4Z"/>
  <path id="a-7" data-name="a" class="cls-4" d="M221.5,106.4v22.9h13.4v-2.9h-9.9v-7.5h9v-2.9h-9v-6.7h9.9v-2.9h-13.4Z"/>
  <path id="b" class="cls-4" d="M322.7,106.4v22.9h3.4v-18.8l10.8,18.8h4.4v-22.9h-3.5v18.4l-10.5-18.4h-4.6Z"/>
  <path id="b-2" data-name="b" class="cls-4" d="M397.9,106.4v22.9h3.4v-18.8l10.8,18.8h4.4v-22.9h-3.5v18.4l-10.5-18.4h-4.6Z"/>
  <path id="b-3" data-name="b" class="cls-4" d="M329.9,143.5v22.9h3.4v-18.8l10.8,18.8h4.4v-22.9h-3.5v18.4l-10.5-18.4h-4.6Z"/>
  <path id="e" class="cls-4" d="M280.1,68.3v13.4c0,6.4,3.4,9.9,9.3,9.9s9.2-3.5,9.2-9.9v-13.4h-3.4v13c0,4.4-1.4,7.4-5.8,7.4s-5.8-3-5.8-7.4v-13h-3.4Z"/>
  <path id="e-2" data-name="e" class="cls-4" d="M378.7,68.3v13.4c0,6.4,3.4,9.9,9.3,9.9s9.2-3.5,9.2-9.9v-13.4h-3.4v13c0,4.4-1.4,7.4-5.8,7.4s-5.8-3-5.8-7.4v-13h-3.4Z"/>
  <path id="d" class="cls-4" d="M239.3,106.4v2.9h7.4v20h3.4v-20h7.4v-2.9h-18.2Z"/>
  <path id="d-2" data-name="d" class="cls-4" d="M346.4,106.4v2.9h7.4v20h3.4v-20h7.4v-2.9h-18.2Z"/>
  <path id="c" class="cls-4" d="M380,106c-7.2,0-11.5,5.1-11.5,11.8s4.2,11.8,11.5,11.8,11.5-4.9,11.5-11.8-4.2-11.8-11.5-11.8ZM380,108.9c5.3,0,7.8,4.3,7.8,9s-2.4,8.9-7.8,8.9-7.9-4.4-7.9-8.9,2.6-9,7.9-9Z"/>
  <path id="c-2" data-name="c" class="cls-4" d="M362.3,67.9c-7.2,0-11.5,5.1-11.5,11.8s4.2,11.8,11.5,11.8,11.5-4.9,11.5-11.8-4.2-11.8-11.5-11.8ZM362.3,70.8c5.3,0,7.8,4.3,7.8,9s-2.4,8.9-7.8,8.9-7.9-4.4-7.9-8.9,2.6-9,7.9-9Z"/>
  <path class="cls-2" d="M143.5,188.6v-96c0-3.5-2.9-6.2-6.2-6.2s-6.2,2.8-6.2,6.2v96"/>
  <g id="k">
    <g id="l">
      <path class="cls-2" d="M157.2,217.8c-8,2.5-17.5,9.3-20.4,21.8h8.7c2-6.2,7.1-11.2,12.8-13.3v2.1c0,2.1,1.7,3.9,3.9,3.9h1c2.2,0,3.8-1.8,3.9-3.9v-3.1c3.8,0,6.8-3.3,6.8-7.2s-3.2-7.2-6.8-7.2v-3.1c0-2.2-1.7-3.9-3.9-3.9h-1c-2.2,0-3.9,1.8-3.9,3.9v1.6"/>
      <path class="cls-3" d="M144.1,238.9c2.5-7,7.8-12.2,14.2-14.3v-5.5c-9.6,2.7-17.1,10.2-19.8,19.8h5.5ZM163.2,230.7c.8,0,2.3-.6,2.3-2.3v-20.6c0-1.3-1-2.3-2.3-2.3h-1c-1.5,0-2.3,1.2-2.3,2.3v20.6c0,1.5,1.3,2.3,2.3,2.3h1ZM167.1,223.7c2.9,0,5.3-2.7,5.3-5.6s-2.4-5.5-5.3-5.7v11.3Z"/>
    </g>
    <g id="l-2" data-name="l">
      <path class="cls-2" d="M137,198.1c2.5,8,9.3,17.5,21.8,20.4v-8.7c-6.2-2-11.2-7.1-13.3-12.8h2.1c2.1,0,3.9-1.7,3.9-3.9v-1c0-2.2-1.8-3.8-3.9-3.9h-3.1c0-3.8-3.3-6.8-7.2-6.8s-7.2,3.2-7.2,6.8h-3.1c-2.2,0-3.9,1.7-3.9,3.9v1c0,2.2,1.8,3.9,3.9,3.9h1.6"/>
      <path class="cls-3" d="M158.1,211.2c-7-2.5-12.2-7.8-14.3-14.2h-5.5c2.7,9.6,10.2,17.1,19.8,19.8v-5.5ZM149.9,192.2c0-.8-.6-2.3-2.3-2.3h-20.6c-1.3,0-2.3,1-2.3,2.3v1c0,1.5,1.2,2.3,2.3,2.3h20.6c1.5,0,2.3-1.3,2.3-2.3v-1ZM142.9,188.3c0-2.9-2.7-5.3-5.6-5.3s-5.5,2.4-5.7,5.3h11.3Z"/>
    </g>
  </g>
  <path class="cls-7" d="M147.5,99.1v14.6h-4.8v16.5h4.8v14.6h8.8v-3.9h5.9v3.9h8.9v-9.5h-4.5v-5.3h4.5v-16.2h-4.5v-5.3h4.5v-9.5h-8.9v3.9h-5.9v-3.9h-8.8ZM156.3,108.7h5.9v10.6h4.1v5.3h-4.1v10.6h-5.9v-10.6h-4.2v-5.3h4.2v-10.6Z"/>
  <g id="k-2" data-name="k">
    <g id="l-3" data-name="l">
      <path class="cls-2" d="M117.3,218.4c8-2.5,17.5-9.3,20.4-21.8h-8.7c-2,6.2-7.1,11.2-12.8,13.3v-2.1c0-2.1-1.7-3.9-3.9-3.9h-1c-2.2,0-3.8,1.8-3.9,3.9v3.1c-3.8,0-6.8,3.3-6.8,7.2s3.2,7.2,6.8,7.2v3.1c0,2.2,1.7,3.9,3.9,3.9h1c2.2,0,3.9-1.8,3.9-3.9v-1.6"/>
      <path class="cls-3" d="M130.4,197.2c-2.5,7-7.8,12.2-14.2,14.3v5.5c9.6-2.7,17.1-10.2,19.8-19.8h-5.5ZM111.4,205.4c-.8,0-2.3.6-2.3,2.3v20.6c0,1.3,1,2.3,2.3,2.3h1c1.5,0,2.3-1.2,2.3-2.3v-20.6c0-1.5-1.3-2.3-2.3-2.3h-1ZM107.5,212.5c-2.9,0-5.3,2.7-5.3,5.6s2.4,5.5,5.3,5.7v-11.3Z"/>
    </g>
    <g id="l-4" data-name="l">
      <path class="cls-2" d="M137.6,238c-2.5-8-9.3-17.5-21.8-20.4v8.7c6.2,2,11.2,7.1,13.3,12.8h-2.1c-2.1,0-3.9,1.7-3.9,3.9v1c0,2.2,1.8,3.8,3.9,3.9h3.1c0,3.8,3.3,6.8,7.2,6.8s7.2-3.2,7.2-6.8h3.1c2.2,0,3.9-1.7,3.9-3.9v-1c0-2.2-1.8-3.9-3.9-3.9h-1.6"/>
      <path class="cls-3" d="M116.4,224.9c7,2.5,12.2,7.8,14.3,14.2h5.5c-2.7-9.6-10.2-17.1-19.8-19.8v5.5ZM124.6,244c0,.8.6,2.3,2.3,2.3h20.6c1.3,0,2.3-1,2.3-2.3v-1c0-1.5-1.2-2.3-2.3-2.3h-20.6c-1.5,0-2.3,1.3-2.3,2.3v1ZM131.7,247.9c0,2.9,2.7,5.3,5.6,5.3s5.5-2.4,5.7-5.3h-11.3Z"/>
    </g>
  </g>
  <path class="cls-3" d="M39.2,109.2c1.3,1.8,3.8,3,6.3,3,2,0,3.3-.6,4.5-1,1-.4,1.9-.8,3.2-.8,2.5,0,4.2,1.2,4.2,1.3l.2.2-.8,1.3h-.3c0,0,0-.1,0-.1-.6-.2-1.6-.6-4.4.9-.3.1-.5.3-.8.4-1.5.8-3.5,2-6,2s-4-.5-5.4-2.3c-1.1-1.5-1.1-3.3-.6-4.9h0ZM56.9,100.6v1.7h2.4c0,1.4,1.1,2.5,2.5,2.5s2.5-1.1,2.5-2.5h2.3v-1.7h-9.7ZM137.3,87.8c-2.7,0-4.7,2.2-4.7,4.7v95.8h9.4v-95.8c0-2.5-2-4.7-4.7-4.7ZM65.9,87.8c-1.3,0-2.3,1-2.3,2.4v2.3h2.3c1.3,0,2.3-1,2.3-2.3s-1-2.4-2.3-2.4ZM56.8,87.8c-1.2,0-2.3.9-2.3,2.4s.8,2.3,2.3,2.3h2.3v-2.3c0-1.4-1.1-2.4-2.3-2.4ZM2.5,70.3v119.2c0,25.2,9.9,48.9,27.7,66.7s41.5,27.6,66.4,27.7v-16.5c-4-3.9-6.9-8.8-8-14.4-1.1.6-2.4,1-3.8,1s-2.2-.3-3.1-.7c4.7-6.7,7.7-11.2,7.7-18.7s-.5-3.8-1-5.6c-1,9.2-9.1,14.5-10.5,18-1.3,3.4-1.3,5.9-1.1,8.4-4.5-2.2-7.6-6.8-7.6-12.1s1.2-6.4,3.3-8.8c3.5-4.1,7.1-6.9,9-9.2-3.8,0-7.9,2.7-10.5,5.5-.1-.7-.2-1.4-.2-2.1,0-4.4,2.3-8.1,5.3-10.9,8.8-7.9,9.2-15.2,8.3-22.5-6,2.3-10.1,8.6-10.4,15.4-2.1-.1-4.1-.6-5.9-1.5,0,.2-.2.5-.3.6h0s-10.2,12.8-10.2,12.8c2.2.8,4.7,2.9,4.7,8.2s0,.8,0,1.3c.2,1.5,0,2.9-.8,4.2-.7,1.4-2,2.3-3.4,2.7-2.2.6-4.6-.2-6-2.1l-.2-.3.9-1.1.2.2c.4.3,1,.4,1.5.2.8-.2,1.3-.9,1.3-1.7-.2-.5-.2-1-.2-1.5,0-.8.4-1.6,1-2.2,0-.4.2-1.6.2-2.1s0-.4-.2-.6-.4-.2-.8-.2c-1.1,0-3.4,0-7.3.3-4,.3-7.9,2-9.6,2.7h0c-.1,1.8-1.4,3.2-3.1,3.3-.4,0-.9,0-1.3-.2-.4.4-.7.9-.6,1.6,0,.4.3.9.7,1.1l.3.2-.5,1.2h-.3c-2-.5-3.6-2.2-3.9-4.2-.2-1.3.1-2.7.9-3.8.8-1.1,1.7-1.6,3.2-2.1.3-.1.5-.1,1-.3l5.9-2.5c-.9-.2-2.5-.7-4.7-.8-.3.7-.7,1.3-1.4,1.7-.8.4-1.7.6-2.6.4-.6-.2-1.1-.5-1.5-.9-.8,0-1.4.3-1.7,1.1-.2.4-.1.9,0,1.3v.3c.1,0-.9.8-.9.8l-.2-.2c-1.6-1.4-2.2-3.6-1.5-5.6.5-1.3,1.5-2.3,2.7-2.9,1-.5,1.9-.5,3.6-.4.2,0,.3,0,.5,0,.4,0,7.1,0,10.4.1l-2-1.8c-1.2.3-2.3,0-3.2-.8-.4-.4-.7-1-.9-1.6-.6-.4-1.3-.3-1.8.2-.4.3-.6.8-.6,1.2v.3l-1.3.2v-.3c-.8-1.9-.3-4.1,1.2-5.6,1-.9,2.4-1.4,3.8-1.3,1.3,0,2.5.6,3.4,1.4,0,0,.1,0,.1,0,2.2,1.2,5.3,4.5,7.3,6.8.6.6,1,1,1.3,1.2,1.6-1.9,10.9-13,11.4-13.7.2-.2.4-.4.6-.5-1.4-1.4-2.5-3.1-3.2-4.9-.3,0-.6,0-.9,0-2.1,0-3.9-.9-5.3-2.2,7.4-2.7,9.2-6.7,12.9-11.8,3.2-4.2,7.9-7.4,12.6-9.1l-4.4-12.4c-3,1.9-6.6,3.2-10.4,3.6l.4,9.5c0,5.1-4.6,8.4-8.9,7.7,1.4-8.4,2.1-16,2.2-17.2-1.1-.2-2.3-.4-3.4-.7l-8.4,28.7c-1.5,5.2-6.2,8.9-11.9,8.9s-4.4-.6-6.3-1.7c6.4-6.3,10.2-15.1,13-21l7.9-17.2c-.6-.4-1.3-.7-1.9-1.2l-18.2,20.4c-2.3,2.7-5.7,4.4-9.5,4.4s-7.2-1.6-9.5-4.4c5.5-2.5,8.3-4.8,10.9-6.7,2.5-2,21.3-18.3,21.3-18.3-.5-.5-.8-1-1.2-1.5l-20.5,8.7c-1.4.5-2.8.8-4.4.8-5.8,0-10.6-4-12-9.4,2.8.4,10.1-1,13-1.6,2.9-.6,20.1-4.6,20.6-4.7-.3-.8-.6-1.7-.8-2.5h-21c-7.6,0-13.1-6.6-12.3-13.7,9.9,4,19,5.5,20.7,5.8,1.6.3,10.7,1.5,11.7,1.6h0c0-1,0-1.9.1-2.7l-25.6-11.7c-3.7-2.2-6.2-6.1-6.2-10.7s.7-4.6,1.8-6.5c5.3,5.9,8.7,8.5,14.4,11.8,5.5,3.2,16.8,9.8,17.3,10.2.3-.6.5-1.2.8-1.9h-.2c0-.1-27.2-24-27.2-24-3.1-2.2-4.9-5.9-4.9-9.9s2.4-8.4,6-10.6c1.1,2.9,3.5,7.9,8.1,12.8l36.3,37.9c.7.8,1,1.7,1,2.8,0,2-1.3,3.7-3.1,4.3.8.5,1.7.8,2.6.8,1.5,0,2.7-.7,3.5-1.8,1.4-1.9,3.6-3,6.1-3s3.7.7,5,1.9c-.3-1.2-.4-2.4-.4-3.7,0-3.9,1.3-7.4,3.6-10.2-.7.4-1.3.7-2.3.7s-2-.4-2.8-1c.4-1.3.7-2.7.5-4.1-.4-5.7-5.3-9.9-10.8-9.5-.6,0-1.1.1-1.7.3-1.7.7-3.8.4-5-.4l-.2-.2.2-.3.2-.3.2-.2h.2c1.6,0,2.9-1.1,4.1-2.1.4-.4.7-1.1.7-1.7s-.2-1.1-.6-1.5c-.4-.4-1-.6-1.5-.6s-1.3.3-1.7.9l-.7-.2c-.4-1.8-2.3-3.4-3.8-3.4h-4.5c-.3,0-.6,0-.8.2-.3.2-.2.6-.2.8v1.4h-1.5v-.2c-.2-.1-2.2-3.4-2.8-5.3-.4-1-.3-2,.2-2.7.3-.5.9-.8,1.5-.8h10.7l.9-1.6h.8v-2.3c-.8-.3-1.5-.7-2.1-1.3-1.1-1.1-1.8-2.7-1.8-4.3,0-3.3,2.7-5.9,6-5.9s2.6.4,3.6,1.2c.2.1.5.2,1,.2s.7,0,.9-.2c1.1-.8,2.4-1.2,3.6-1.2s3.1.6,4.2,1.8c1.1,1.1,1.8,2.5,1.8,4.1s-.6,3.2-1.8,4.3c-.6.6-1.3,1.1-2.2,1.4v2.3c12.8.2,13.9,12.8,23.5,12.8h.6c0,.2,0,.4,0,.7,0,1.8-.9,3.3-2.3,4.2,2.7,1.2,5.1,3,6.8,5.4v-50.8H2.5Z"/>
  <circle class="cls-5" cx="61.4" cy="82.1" r="1.8"/>
</svg>