<?xml version="1.0" encoding="UTF-8"?>
<svg id="Calque_2" data-name="Calque 2" xmlns="http://www.w3.org/2000/svg" version="1.1" viewBox="0 0 231.6 78.7">
  <defs>
    <style>
      .cls-1 {
        fill: #ed1c24;
      }

      .cls-1, .cls-2 {
        stroke-width: 0px;
      }

      .cls-2 {
        fill: #fff;
      }
    </style>
  </defs>
  <g id="g20">
    <path id="path22" class="cls-2" d="M39.9,8.7c.4.3.9.4,1.5.4s1.6-.4,1.6-1.4-3.2-1.5-3.2-3.4,1-1.8,2.2-1.8.9,0,1.4.2v.6c-.4-.2-.9-.3-1.4-.3-.7,0-1.5.3-1.5,1.2,0,1.4,3.2,1.4,3.2,3.4s-1.2,2-2.3,2-1.2-.1-1.6-.3c0,0,0-.7,0-.7Z"/>
  </g>
  <g id="g24">
    <path id="path26" class="cls-2" d="M49.1,5.2c-.3-.2-.8-.3-1.1-.3-1.2,0-1.9.9-1.9,2.1s.7,2.1,1.8,2.1.8,0,1.2-.2v.6c-.4.1-.8.2-1.2.2-1.6,0-2.4-1.2-2.4-2.7s1-2.7,2.5-2.7,1,.1,1.2.2c0,0,0,.6,0,.6Z"/>
  </g>
  <g id="g28">
    <path id="path30" class="cls-2" d="M51,2.1h.6v3.3h0c.3-.6.8-1,1.6-1,1.4,0,1.7.9,1.7,2.2v3h-.6v-3c0-.9-.2-1.6-1.2-1.6s-1.5,1.1-1.5,2v2.7h-.6s0-7.5,0-7.5Z"/>
  </g>
  <g id="g32">
    <path id="path34" class="cls-2" d="M62.6,9.6h-.8l-1.4-4.4h0l-1.4,4.4h-.8l-1.6-5.1h.7l1.3,4.4h0l1.4-4.4h.8l1.3,4.4h0l1.4-4.4h.6s-1.7,5.1-1.7,5.1Z"/>
  </g>
  <g id="g36">
    <path id="path38" class="cls-2" d="M69.3,9.4c-.4.2-1,.3-1.5.3-1.7,0-2.3-1.1-2.3-2.7s.9-2.7,2.2-2.7,2,1.2,2,2.5v.3h-3.5c0,1.1.6,2,1.7,2s1.1-.2,1.4-.4v.6ZM69,6.7c0-.9-.4-1.8-1.3-1.8s-1.5.9-1.5,1.8h2.8Z"/>
  </g>
  <path id="path40" class="cls-2" d="M72.3,3.2h-.6v-.8h.6v.8ZM71.7,4.5h.6v5.1h-.6v-5.1Z"/>
  <g id="g42">
    <path id="path44" class="cls-2" d="M74.2,9.1l3.1-4h-2.9v-.5h3.7v.5l-3.1,4h3.1v.5h-3.8v-.5Z"/>
  </g>
  <g id="g46">
    <path id="path48" class="cls-2" d="M83.3,9.4c-.4.2-1,.3-1.5.3-1.7,0-2.3-1.1-2.3-2.7s.9-2.7,2.2-2.7,2,1.2,2,2.5v.3h-3.5c0,1.1.6,2,1.7,2s1.1-.2,1.4-.4v.6ZM83,6.7c0-.9-.4-1.8-1.3-1.8s-1.5.9-1.5,1.8h2.8Z"/>
  </g>
  <g id="g50">
    <path id="path52" class="cls-2" d="M85.7,5.7c0-.6,0-.8,0-1.1h.6v1h0c.2-.6.7-1.1,1.3-1.1s.3,0,.4,0v.7c-.1,0-.3,0-.5,0-1,0-1.3,1.1-1.3,2v2.5h-.6v-4Z"/>
  </g>
  <path id="path54" class="cls-2" d="M90.4,3.2h-.6v-.8h.6v.8ZM89.8,4.5h.6v5.1h-.6v-5.1Z"/>
  <g id="g56">
    <path id="path58" class="cls-2" d="M92.4,8.9c.4.2.8.3,1.3.3s1.1-.3,1.1-.9c0-1.2-2.4-1-2.4-2.5s.8-1.4,1.7-1.4.8,0,1.3.2v.6c-.4-.2-.8-.2-1.2-.2-.7,0-1.1.2-1.1.8,0,.9,2.5.8,2.5,2.5s-1,1.4-1.8,1.4-1,0-1.4-.2v-.6q0,0,0,0Z"/>
  </g>
  <g id="g60">
    <path id="path62" class="cls-2" d="M100.8,5.2c-.3-.2-.8-.3-1.1-.3-1.2,0-1.9.9-1.9,2.1s.7,2.1,1.8,2.1.8,0,1.2-.2v.6c-.4.1-.8.2-1.2.2-1.6,0-2.4-1.2-2.4-2.7s1-2.7,2.5-2.7,1.1.1,1.2.2c0,0,0,.6,0,.6Z"/>
  </g>
  <g id="g64">
    <path id="path66" class="cls-2" d="M102.7,2.1h.6v3.3h0c.3-.6.8-1,1.6-1,1.4,0,1.7.9,1.7,2.2v3h-.6v-3c0-.9-.2-1.6-1.2-1.6s-1.5,1.1-1.5,2v2.7h-.6s0-7.5,0-7.5Z"/>
  </g>
  <g id="g68">
    <path id="path70" class="cls-2" d="M112.5,9.4c-.4.2-1,.3-1.5.3-1.7,0-2.3-1.1-2.3-2.7s.9-2.7,2.2-2.7,2,1.2,2,2.5v.3h-3.5c0,1.1.6,2,1.7,2s1.1-.2,1.4-.4v.6ZM112.2,6.7c0-.9-.4-1.8-1.3-1.8s-1.5.9-1.5,1.8h2.8Z"/>
  </g>
  <g id="g72">
    <path id="path74" class="cls-2" d="M118.2,2.6h3.4v.6h-2.7v2.5h2.6v.6h-2.6v2.7h2.8v.6h-3.5s0-7,0-7Z"/>
  </g>
  <path id="path76" class="cls-2" d="M124.5,3.2h-.6v-.8h.6v.8ZM123.9,4.5h.6v5.1h-.6v-5.1Z"/>
  <g id="g78">
    <path id="path80" class="cls-2" d="M130.9,9.6h-.6v-.8h0c-.3.6-.9.9-1.6.9-1.4,0-2.1-1.2-2.1-2.7s.6-2.7,2.1-2.7,1.5.7,1.6,1h0v-3.3h.6v7.5ZM128.8,9.2c1.1,0,1.5-1.2,1.5-2.1s-.4-2.1-1.5-2.1-1.5,1.1-1.5,2.1.3,2.1,1.5,2.1"/>
  </g>
  <g id="g82">
    <path id="path84" class="cls-2" d="M137.3,9.2c0,1.4-.6,2.6-2.4,2.6s-1.3-.2-1.5-.3v-.6c.4.2,1,.4,1.6.4,1.6,0,1.8-1.2,1.8-2.6h0c-.3.7-.9,1-1.6,1-1.6,0-2.1-1.4-2.1-2.6s.6-2.7,2.1-2.7,1.1,0,1.6.7h0v-.6h.6v4.7h0ZM135.1,9.1c1.1,0,1.6-1.1,1.6-2s-.4-2.1-1.5-2.1-1.5,1.1-1.5,2.1.4,2,1.5,2"/>
  </g>
  <g id="g86">
    <path id="path88" class="cls-2" d="M143,9.4c-.4.2-1,.3-1.5.3-1.7,0-2.3-1.1-2.3-2.7s.9-2.7,2.1-2.7,2,1.2,2,2.5v.3h-3.5c0,1.1.6,2,1.7,2s1.1-.2,1.4-.4v.6h0ZM142.7,6.7c0-.9-.4-1.8-1.3-1.8s-1.5.9-1.5,1.8h2.8Z"/>
  </g>
  <g id="g90">
    <path id="path92" class="cls-2" d="M145.4,5.7c0-.4,0-.8,0-1.2h.6v.9h0c.2-.5.6-1,1.6-1s1.7.8,1.7,2v3.3h-.6v-3.1c0-1-.3-1.6-1.2-1.6s-1.5,1-1.5,1.9v2.8h-.6v-3.9Z"/>
  </g>
  <g id="g94">
    <path id="path96" class="cls-2" d="M153.7,4.4c1.6,0,2.4,1.3,2.4,2.7s-.7,2.7-2.4,2.7-2.4-1.3-2.4-2.7.7-2.7,2.4-2.7M153.7,9.2c1.1,0,1.7-.9,1.7-2.1s-.6-2.1-1.7-2.1-1.7.9-1.7,2.1.6,2.1,1.7,2.1"/>
  </g>
  <g id="g98">
    <path id="path100" class="cls-2" d="M157.6,8.9c.4.2.8.3,1.3.3s1.1-.3,1.1-.9c0-1.2-2.4-1-2.4-2.5s.8-1.4,1.7-1.4.8,0,1.3.2v.6c-.4-.2-.8-.2-1.2-.2-.6,0-1.1.2-1.1.8,0,.9,2.5.8,2.5,2.5s-1,1.4-1.8,1.4-1,0-1.4-.2c0,0,0-.6,0-.6Z"/>
  </g>
  <g id="g102">
    <path id="path104" class="cls-2" d="M162.3,8.9c.4.2.8.3,1.3.3s1.1-.3,1.1-.9c0-1.2-2.4-1-2.4-2.5s.8-1.4,1.7-1.4.8,0,1.3.2v.6c-.4-.2-.8-.2-1.2-.2-.6,0-1.1.2-1.1.8,0,.9,2.5.8,2.5,2.5s-1,1.4-1.8,1.4-1,0-1.4-.2c0,0,0-.6,0-.6Z"/>
  </g>
  <g id="g106">
    <path id="path108" class="cls-2" d="M170.8,9.4c-.4.2-1,.3-1.5.3-1.7,0-2.3-1.1-2.3-2.7s.9-2.7,2.1-2.7,2,1.2,2,2.5v.3h-3.5c0,1.1.6,2,1.7,2s1.1-.2,1.4-.4v.6h0ZM170.5,6.7c0-.9-.4-1.8-1.3-1.8s-1.5.9-1.5,1.8h2.8Z"/>
  </g>
  <g id="g110">
    <path id="path112" class="cls-2" d="M173.2,5.7c0-.4,0-.8,0-1.2h.6v.9h0c.2-.5.6-1,1.6-1s1.7.8,1.7,2v3.3h-.6v-3.1c0-1-.3-1.6-1.2-1.6s-1.5,1-1.5,1.9v2.8h-.6v-3.9Z"/>
  </g>
  <g id="g114">
    <path id="path116" class="cls-2" d="M179.1,8.9c.4.2.8.3,1.3.3s1.1-.3,1.1-.9c0-1.2-2.4-1-2.4-2.5s.8-1.4,1.7-1.4.8,0,1.3.2v.6c-.4-.2-.8-.2-1.2-.2-.6,0-1.1.2-1.1.8,0,.9,2.5.8,2.5,2.5s-1,1.4-1.8,1.4-1,0-1.4-.2c0,0,0-.6,0-.6Z"/>
  </g>
  <g id="g118">
    <path id="path120" class="cls-2" d="M187.5,5.2c-.3-.2-.8-.3-1.1-.3-1.2,0-1.9.9-1.9,2.1s.7,2.1,1.9,2.1.8,0,1.1-.2v.6c-.4.1-.8.2-1.2.2-1.6,0-2.4-1.2-2.4-2.7s1-2.7,2.5-2.7,1.1.1,1.2.2c0,0,0,.6,0,.6Z"/>
  </g>
  <g id="g122">
    <path id="path124" class="cls-2" d="M189.4,2.1h.6v3.3h0c.3-.6.8-1,1.6-1,1.4,0,1.7.9,1.7,2.2v3h-.6v-3c0-.9-.2-1.6-1.2-1.6s-1.5,1.1-1.5,2v2.7h-.6V2.1Z"/>
  </g>
  <g id="g126">
    <path id="path128" class="cls-2" d="M198.7,8.8h0c-.3.6-1,.9-1.6.9-1.4,0-1.7-1-1.7-1.4,0-1.7,1.8-1.8,3.1-1.8h.1v-.3c0-.9-.3-1.3-1.2-1.3s-1,.1-1.5.4v-.6c.4-.2,1.1-.3,1.5-.3,1.3,0,1.8.6,1.8,1.9v2.2c0,.4,0,.7,0,1.1h-.6s0-.8,0-.8ZM198.6,7h-.2c-1.1,0-2.4.1-2.4,1.2s.5.9,1.1.9c1.5,0,1.5-1.3,1.5-1.8v-.3Z"/>
  </g>
  <g id="g130">
    <path id="path132" class="cls-2" d="M202,5.1h-1v-.5h1v-.4c0-1.1,0-2.2,1.4-2.2s.5,0,.6,0v.5c-.2,0-.4-.1-.5-.1-.9,0-.8.9-.8,1.5v.4h1.1v.5h-1.1v4.6h-.6v-4.6Z"/>
  </g>
  <g id="g134">
    <path id="path136" class="cls-2" d="M207.9,5.1h-1.2v3.3c0,.5.2.8.7.8s.4,0,.6-.1v.5c-.1,0-.4.1-.7.1-1.1,0-1.2-.8-1.2-1.7v-3h-1v-.5h1v-1.2l.6-.2v1.5h1.2v.5h0Z"/>
  </g>
  <g id="g138">
    <path id="path140" class="cls-2" d="M44.8,17.2c-.4-.2-1.1-.3-1.6-.3-1.8,0-2.8,1.3-2.8,3s1,3,2.8,3,1.2,0,1.6-.3v.6c-.3.2-1.1.3-1.6.3-2.2,0-3.5-1.5-3.5-3.6s1.4-3.6,3.5-3.6,1.2,0,1.6.3c0,0,0,.6,0,.6Z"/>
  </g>
  <g id="g142">
    <path id="path144" class="cls-2" d="M49.1,18.2c1.7,0,2.4,1.3,2.4,2.7s-.7,2.7-2.4,2.7-2.4-1.3-2.4-2.7.7-2.7,2.4-2.7M49.1,23c1.1,0,1.7-1,1.7-2.1s-.6-2.1-1.7-2.1-1.7,1-1.7,2.1.6,2.1,1.7,2.1"/>
  </g>
  <g id="g146">
    <path id="path148" class="cls-2" d="M53.5,19.5c0-.4,0-.8,0-1.2h.6v.9h0c.2-.5.6-1,1.7-1s1.7.8,1.7,2v3.3h-.6v-3.1c0-1-.3-1.6-1.2-1.6s-1.5,1-1.5,1.9v2.8h-.6s0-3.9,0-3.9Z"/>
  </g>
  <g id="g150">
    <path id="path152" class="cls-2" d="M60.2,18.9h-1v-.5h1v-.4c0-1.1,0-2.1,1.3-2.1s.5,0,.6.1v.5c-.2,0-.4-.1-.5-.1-.9,0-.8.9-.8,1.5v.4h1.2v.5h-1.2v4.6h-.6s0-4.6,0-4.6Z"/>
  </g>
  <g id="g154">
    <path id="path156" class="cls-2" d="M67.3,23.2c-.4.2-1,.3-1.5.3-1.7,0-2.3-1.1-2.3-2.7s.9-2.7,2.2-2.7,2,1.2,2,2.5v.3h-3.5c0,1.1.6,2,1.7,2s1.1-.2,1.4-.4c0,0,0,.6,0,.6ZM67,20.5c0-.9-.4-1.8-1.3-1.8s-1.5.9-1.5,1.8h2.8ZM66,16.3h.8l-1.3,1.4h-.5l.9-1.4Z"/>
  </g>
  <g id="g158">
    <path id="path160" class="cls-2" d="M73.8,23.4h-.6v-.8h0c-.3.6-.9.9-1.6.9-1.4,0-2.1-1.2-2.1-2.7s.6-2.7,2.1-2.7,1.5.7,1.6,1h0v-3.3h.6v7.5ZM71.6,23c1.1,0,1.5-1.2,1.5-2.1s-.4-2.1-1.5-2.1-1.5,1.1-1.5,2.1.3,2.1,1.5,2.1"/>
  </g>
  <g id="g162">
    <path id="path164" class="cls-2" d="M79.5,23.2c-.4.2-1,.3-1.5.3-1.7,0-2.3-1.1-2.3-2.7s.9-2.7,2.2-2.7,2,1.2,2,2.5v.3h-3.5c0,1.1.6,2,1.7,2s1.1-.2,1.4-.4c0,0,0,.6,0,.6ZM79.2,20.5c0-.9-.4-1.8-1.3-1.8s-1.5.9-1.5,1.8h2.8ZM78.1,16.3h.8l-1.3,1.4h-.5l.9-1.4Z"/>
  </g>
  <g id="g166">
    <path id="path168" class="cls-2" d="M81.8,19.5c0-.6,0-.8,0-1.1h.6v1h0c.2-.6.7-1.1,1.3-1.1s.3,0,.4,0v.7c-.1,0-.3,0-.5,0-1,0-1.3,1.1-1.3,2v2.5h-.6v-4Z"/>
  </g>
  <g id="g170">
    <path id="path172" class="cls-2" d="M88.9,22.6h0c-.3.6-1,.9-1.6.9-1.4,0-1.7-1-1.7-1.4,0-1.7,1.8-1.8,3.1-1.8h.1v-.3c0-.9-.3-1.3-1.2-1.3s-1,.1-1.5.4v-.6c.4-.2,1.1-.4,1.5-.4,1.3,0,1.8.6,1.8,1.9v2.2c0,.4,0,.7,0,1.1h-.6s0-.8,0-.8ZM88.8,20.8h-.2c-1.1,0-2.4.1-2.4,1.2s.5.9,1.1.9c1.5,0,1.5-1.3,1.5-1.8v-.3Z"/>
  </g>
  <g id="g174">
    <path id="path176" class="cls-2" d="M93.9,18.9h-1.2v3.3c0,.5.2.8.7.8s.4,0,.6-.1v.5c-.1,0-.4.1-.7.1-1.1,0-1.2-.8-1.2-1.7v-3h-1v-.5h1v-1.2l.6-.2v1.5h1.2v.5Z"/>
  </g>
  <path id="path178" class="cls-2" d="M96.5,17h-.6v-.8h.6v.8ZM95.8,18.3h.6v5.1h-.6v-5.1Z"/>
  <g id="g180">
    <path id="path182" class="cls-2" d="M100.8,18.2c1.7,0,2.4,1.3,2.4,2.7s-.7,2.7-2.4,2.7-2.4-1.3-2.4-2.7.7-2.7,2.4-2.7M100.8,23c1.1,0,1.7-1,1.7-2.1s-.6-2.1-1.7-2.1-1.7,1-1.7,2.1.6,2.1,1.7,2.1"/>
  </g>
  <g id="g184">
    <path id="path186" class="cls-2" d="M105.2,19.5c0-.4,0-.8,0-1.2h.6v.9h0c.2-.5.6-1,1.7-1s1.7.8,1.7,2v3.3h-.6v-3.1c0-1-.3-1.6-1.2-1.6s-1.5,1-1.5,1.9v2.8h-.6s0-3.9,0-3.9Z"/>
  </g>
  <g id="g188">
    <path id="path190" class="cls-2" d="M114.6,22.7c.4.2.8.3,1.3.3s1.1-.3,1.1-.9c0-1.2-2.4-1-2.4-2.5s.8-1.4,1.7-1.4.8,0,1.3.2v.5c-.4-.1-.8-.2-1.2-.2-.7,0-1.1.2-1.1.9,0,1,2.5.8,2.5,2.5s-1,1.5-1.8,1.5-1,0-1.4-.2v-.6q0,0,0,0Z"/>
  </g>
  <g id="g192">
    <path id="path194" class="cls-2" d="M123.7,22.2c0,.4,0,.8,0,1.2h-.6v-.9h0c-.2.5-.6,1-1.7,1s-1.7-.8-1.7-2v-3.3h.6v3.1c0,1,.3,1.6,1.2,1.6s1.5-1,1.5-1.9v-2.8h.6v3.9Z"/>
  </g>
  <path id="path196" class="cls-2" d="M126.6,17h-.6v-.8h.6v.8ZM126,18.3h.6v5.1h-.6v-5.1Z"/>
  <g id="g198">
    <path id="path200" class="cls-2" d="M128.6,22.7c.4.2.8.3,1.3.3s1.1-.3,1.1-.9c0-1.2-2.4-1-2.4-2.5s.8-1.4,1.7-1.4.8,0,1.3.2v.5c-.4-.1-.8-.2-1.2-.2-.6,0-1.1.2-1.1.9,0,1,2.5.8,2.5,2.5s-1,1.5-1.8,1.5-1,0-1.4-.2v-.6Z"/>
  </g>
  <g id="g202">
    <path id="path204" class="cls-2" d="M133.3,22.7c.4.2.8.3,1.3.3s1.1-.3,1.1-.9c0-1.2-2.4-1-2.4-2.5s.8-1.4,1.7-1.4.8,0,1.3.2v.5c-.4-.1-.8-.2-1.2-.2-.6,0-1.1.2-1.1.9,0,1,2.5.8,2.5,2.5s-1,1.5-1.8,1.5-1,0-1.4-.2v-.6Z"/>
  </g>
  <g id="g206">
    <path id="path208" class="cls-2" d="M141.8,23.2c-.4.2-1,.3-1.5.3-1.7,0-2.3-1.1-2.3-2.7s.9-2.7,2.1-2.7,2,1.2,2,2.5v.3h-3.5c0,1.1.6,2,1.7,2s1.1-.2,1.4-.4v.6h0ZM141.5,20.5c0-.9-.4-1.8-1.3-1.8s-1.5.9-1.5,1.8h2.8Z"/>
  </g>
  <g id="g210">
    <path id="path212" class="cls-2" d="M44.8,31c-.4-.2-1.1-.3-1.6-.3-1.8,0-2.8,1.3-2.8,3s1,3,2.8,3,1.2,0,1.6-.3v.6c-.3.2-1.1.3-1.6.3-2.2,0-3.5-1.5-3.5-3.6s1.4-3.6,3.5-3.6,1.2,0,1.6.3c0,0,0,.6,0,.6Z"/>
  </g>
  <g id="g214">
    <path id="path216" class="cls-2" d="M49.1,32c1.7,0,2.4,1.3,2.4,2.7s-.7,2.7-2.4,2.7-2.4-1.3-2.4-2.7.7-2.7,2.4-2.7M49.1,36.8c1.1,0,1.7-1,1.7-2.1s-.6-2.1-1.7-2.1-1.7,1-1.7,2.1.6,2.1,1.7,2.1"/>
  </g>
  <g id="g218">
    <path id="path220" class="cls-2" d="M53.5,33.3c0-.4,0-.8,0-1.2h.6v.9h0c.2-.5.6-1,1.7-1s1.7.8,1.7,2v3.3h-.6v-3.1c0-1-.3-1.6-1.2-1.6s-1.5,1-1.5,1.9v2.8h-.6s0-3.9,0-3.9Z"/>
  </g>
  <g id="g222">
    <path id="path224" class="cls-2" d="M60.2,32.7h-1v-.5h1v-.4c0-1.1,0-2.1,1.3-2.1s.5,0,.6.1v.5c-.2,0-.4-.1-.5-.1-.9,0-.8.9-.8,1.5v.4h1.2v.5h-1.2v4.6h-.6s0-4.6,0-4.6Z"/>
  </g>
  <g id="g226">
    <path id="path228" class="cls-2" d="M67.3,37c-.4.2-1,.3-1.5.3-1.7,0-2.3-1.1-2.3-2.7s.9-2.7,2.2-2.7,2,1.2,2,2.5v.3h-3.5c0,1.1.6,2,1.7,2s1.1-.2,1.4-.4v.6ZM67,34.3c0-.9-.4-1.8-1.3-1.8s-1.5.9-1.5,1.8h2.8Z"/>
  </g>
  <g id="g230">
    <path id="path232" class="cls-2" d="M73.8,37.2h-.6v-.8h0c-.3.7-.9.9-1.6.9-1.4,0-2.1-1.2-2.1-2.7s.6-2.7,2.1-2.7,1.5.7,1.6,1h0v-3.3h.6v7.5ZM71.6,36.8c1.1,0,1.5-1.2,1.5-2.1s-.4-2.1-1.5-2.1-1.5,1.1-1.5,2.1.3,2.1,1.5,2.1"/>
  </g>
  <g id="g234">
    <path id="path236" class="cls-2" d="M79.5,37c-.4.2-1,.3-1.5.3-1.7,0-2.3-1.1-2.3-2.7s.9-2.7,2.2-2.7,2,1.2,2,2.5v.3h-3.5c0,1.1.6,2,1.7,2s1.1-.2,1.4-.4v.6ZM79.2,34.3c0-.9-.4-1.8-1.3-1.8s-1.5.9-1.5,1.8h2.8Z"/>
  </g>
  <g id="g238">
    <path id="path240" class="cls-2" d="M81.8,33.2c0-.6,0-.8,0-1.1h.6v1h0c.2-.6.7-1.1,1.3-1.1s.3,0,.4,0v.7c-.1,0-.3,0-.5,0-1,0-1.3,1.1-1.3,2v2.5h-.6v-4Z"/>
  </g>
  <g id="g242">
    <path id="path244" class="cls-2" d="M88.9,36.4h0c-.3.6-1,.9-1.6.9-1.4,0-1.7-1-1.7-1.4,0-1.7,1.8-1.8,3.1-1.8h.1v-.3c0-.9-.3-1.3-1.2-1.3s-1,.1-1.5.4v-.6c.4-.2,1.1-.4,1.5-.4,1.3,0,1.8.6,1.8,1.9v2.2c0,.4,0,.7,0,1.1h-.6s0-.8,0-.8ZM88.8,34.6h-.2c-1.1,0-2.4.1-2.4,1.2s.5.9,1.1.9c1.5,0,1.5-1.3,1.5-1.8,0,0,0-.3,0-.3Z"/>
  </g>
  <g id="g246">
    <path id="path248" class="cls-2" d="M91.3,36.7l3.1-4h-2.9v-.5h3.7v.5l-3.1,4h3.1v.5h-3.8v-.5Z"/>
  </g>
  <path id="path250" class="cls-2" d="M97.6,30.8h-.6v-.8h.6v.8ZM96.9,32.1h.6v5.1h-.6v-5.1Z"/>
  <g id="g252">
    <path id="path254" class="cls-2" d="M101.9,32c1.7,0,2.4,1.3,2.4,2.7s-.7,2.7-2.4,2.7-2.4-1.3-2.4-2.7.7-2.7,2.4-2.7M101.9,36.8c1.1,0,1.7-1,1.7-2.1s-.6-2.1-1.7-2.1-1.7,1-1.7,2.1.6,2.1,1.7,2.1"/>
  </g>
  <g id="g256">
    <path id="path258" class="cls-2" d="M106.3,33.3c0-.4,0-.8,0-1.2h.6v.9h0c.2-.5.6-1,1.7-1s1.7.8,1.7,2v3.3h-.6v-3.1c0-1-.3-1.6-1.2-1.6s-1.5,1-1.5,1.9v2.8h-.6s0-3.9,0-3.9Z"/>
  </g>
  <g id="g260">
    <path id="path262" class="cls-2" d="M116.1,37c-.4.2-1,.3-1.5.3-1.7,0-2.3-1.1-2.3-2.7s.9-2.7,2.2-2.7,2,1.2,2,2.5v.3h-3.5c0,1.1.6,2,1.7,2s1.1-.2,1.4-.4v.6ZM115.8,34.3c0-.9-.4-1.8-1.3-1.8s-1.5.9-1.5,1.8h2.8Z"/>
  </g>
  <g id="g264">
    <path id="path266" class="cls-2" d="M121.8,36.3c.4.3.9.4,1.5.4s1.6-.4,1.6-1.4-3.2-1.5-3.2-3.4,1-1.8,2.2-1.8.9,0,1.4.2v.6c-.4-.2-.9-.3-1.4-.3-.7,0-1.5.3-1.5,1.2,0,1.4,3.2,1.4,3.2,3.5s-1.2,2-2.3,2-1.2-.1-1.6-.3c0,0,0-.7,0-.7Z"/>
  </g>
  <g id="g268">
    <path id="path270" class="cls-2" d="M129.4,37.2h-.7l-1.7-5.1h.7l1.4,4.4h0l1.5-4.4h.7l-1.8,5.1Z"/>
  </g>
  <path id="path272" class="cls-2" d="M133.5,30.8h-.6v-.8h.6v.8ZM132.9,32.1h.6v5.1h-.6v-5.1Z"/>
  <g id="g274">
    <path id="path276" class="cls-2" d="M135.4,36.7l3.1-4h-2.9v-.5h3.7v.5l-3.1,4h3.1v.5h-3.8v-.5Z"/>
  </g>
  <g id="g278">
    <path id="path280" class="cls-2" d="M140.6,36.7l3.1-4h-2.9v-.5h3.7v.5l-3.1,4h3.1v.5h-3.8v-.5Z"/>
  </g>
  <g id="g282">
    <path id="path284" class="cls-2" d="M149.8,37c-.4.2-1,.3-1.5.3-1.7,0-2.3-1.1-2.3-2.7s.9-2.7,2.1-2.7,2,1.2,2,2.5v.3h-3.5c0,1.1.6,2,1.7,2s1.1-.2,1.4-.4v.6h0ZM149.4,34.3c0-.9-.4-1.8-1.3-1.8s-1.5.9-1.5,1.8h2.8Z"/>
  </g>
  <g id="g286">
    <path id="path288" class="cls-2" d="M152.1,33.2c0-.6,0-.8,0-1.1h.6v1h0c.2-.6.7-1.1,1.3-1.1s.3,0,.4,0v.7c-.1,0-.3,0-.5,0-1,0-1.3,1.1-1.3,2v2.5h-.6v-4Z"/>
  </g>
  <g id="g290">
    <path id="path292" class="cls-2" d="M159.2,36.4h0c-.3.6-1,.9-1.6.9-1.4,0-1.7-1-1.7-1.4,0-1.7,1.8-1.8,3.1-1.8h.1v-.3c0-.9-.3-1.3-1.2-1.3s-1,.1-1.5.4v-.6c.4-.2,1.1-.4,1.5-.4,1.3,0,1.8.6,1.8,1.9v2.2c0,.4,0,.7,0,1.1h-.6s0-.8,0-.8ZM159.1,34.6h-.2c-1.1,0-2.4.1-2.4,1.2s.5.9,1.1.9c1.5,0,1.5-1.3,1.5-1.8,0,0,0-.3,0-.3Z"/>
  </g>
  <g id="g294">
    <path id="path296" class="cls-2" d="M44.8,44.8c-.4-.2-1.1-.3-1.6-.3-1.8,0-2.8,1.3-2.8,3s1,3,2.8,3,1.2,0,1.6-.3v.6c-.3.2-1.1.3-1.6.3-2.2,0-3.5-1.5-3.5-3.6s1.4-3.6,3.5-3.6,1.2,0,1.6.3c0,0,0,.6,0,.6Z"/>
  </g>
  <g id="g298">
    <path id="path300" class="cls-2" d="M49.1,45.8c1.7,0,2.4,1.3,2.4,2.7s-.7,2.7-2.4,2.7-2.4-1.3-2.4-2.7.7-2.7,2.4-2.7M49.1,50.6c1.1,0,1.7-1,1.7-2.1s-.6-2.1-1.7-2.1-1.7,1-1.7,2.1.6,2.1,1.7,2.1"/>
  </g>
  <g id="g302">
    <path id="path304" class="cls-2" d="M53.5,47.1c0-.4,0-.8,0-1.2h.6v.9h0c.2-.5.6-1,1.7-1s1.7.8,1.7,2v3.3h-.6v-3.1c0-1-.3-1.6-1.2-1.6s-1.5,1-1.5,1.9v2.8h-.6s0-3.9,0-3.9Z"/>
  </g>
  <g id="g306">
    <path id="path308" class="cls-2" d="M60.2,46.5h-1v-.5h1v-.4c0-1.1,0-2.2,1.3-2.2s.5,0,.6,0v.5c-.2,0-.4-.1-.5-.1-.9,0-.8.9-.8,1.5v.4h1.2v.5h-1.2v4.6h-.6s0-4.6,0-4.6Z"/>
  </g>
  <g id="g310">
    <path id="path312" class="cls-2" d="M67.3,50.8c-.4.2-1,.3-1.5.3-1.7,0-2.3-1.1-2.3-2.7s.9-2.7,2.2-2.7,2,1.2,2,2.5v.3h-3.5c0,1.1.6,2,1.7,2s1.1-.2,1.4-.4v.6ZM67,48.1c0-.9-.4-1.8-1.3-1.8s-1.5.9-1.5,1.8h2.8Z"/>
  </g>
  <g id="g314">
    <path id="path316" class="cls-2" d="M73.8,51h-.6v-.8h0c-.3.7-.9.9-1.6.9-1.4,0-2.1-1.2-2.1-2.7s.6-2.7,2.1-2.7,1.5.7,1.6,1h0v-3.3h.6s0,7.5,0,7.5ZM71.6,50.6c1.1,0,1.5-1.2,1.5-2.1s-.4-2.1-1.5-2.1-1.5,1.1-1.5,2.1.3,2.1,1.5,2.1"/>
  </g>
  <g id="g318">
    <path id="path320" class="cls-2" d="M79.5,50.8c-.4.2-1,.3-1.5.3-1.7,0-2.3-1.1-2.3-2.7s.9-2.7,2.2-2.7,2,1.2,2,2.5v.3h-3.5c0,1.1.6,2,1.7,2s1.1-.2,1.4-.4v.6ZM79.2,48.1c0-.9-.4-1.8-1.3-1.8s-1.5.9-1.5,1.8h2.8Z"/>
  </g>
  <g id="g322">
    <path id="path324" class="cls-2" d="M81.8,47c0-.6,0-.8,0-1.1h.6v1h0c.2-.6.7-1.1,1.3-1.1s.3,0,.4,0v.7c-.1,0-.3,0-.5,0-1,0-1.3,1.1-1.3,2v2.5h-.6v-4Z"/>
  </g>
  <g id="g326">
    <path id="path328" class="cls-2" d="M88.9,50.2h0c-.3.6-1,.9-1.6.9-1.4,0-1.7-1-1.7-1.4,0-1.7,1.8-1.8,3.1-1.8h.1v-.3c0-.9-.3-1.3-1.2-1.3s-1,.1-1.5.4v-.6c.4-.2,1.1-.3,1.5-.3,1.3,0,1.8.6,1.8,1.9v2.2c0,.4,0,.7,0,1.1h-.6v-.8ZM88.8,48.4h-.2c-1.1,0-2.4.1-2.4,1.2s.5.9,1.1.9c1.5,0,1.5-1.3,1.5-1.8,0,0,0-.3,0-.3Z"/>
  </g>
  <g id="g330">
    <path id="path332" class="cls-2" d="M91.3,50.5l3.1-4h-2.9v-.5h3.7v.5l-3.1,4h3.1v.5h-3.8v-.5Z"/>
  </g>
  <path id="path334" class="cls-2" d="M97.6,44.5h-.6v-.8h.6v.8ZM96.9,45.9h.6v5.1h-.6v-5.1Z"/>
  <g id="g336">
    <path id="path338" class="cls-2" d="M103.9,49.8c0,.4,0,.8,0,1.2h-.6v-.9h0c-.2.5-.6,1-1.7,1s-1.7-.8-1.7-2v-3.3h.6v3.1c0,1,.3,1.6,1.2,1.6s1.5-1,1.5-1.9v-2.8h.6s0,3.9,0,3.9Z"/>
  </g>
  <g id="g340">
    <path id="path342" class="cls-2" d="M106.3,47.1c0-.4,0-.8,0-1.2h.6v.9h0c.2-.5.6-1,1.7-1s1.7.8,1.7,2v3.3h-.6v-3.1c0-1-.3-1.6-1.2-1.6s-1.5,1-1.5,1.9v2.8h-.6s0-3.9,0-3.9Z"/>
  </g>
  <g id="g344">
    <path id="path346" class="cls-2" d="M115.7,50.3c.4.2.8.3,1.3.3s1.1-.3,1.1-.9c0-1.2-2.4-1-2.4-2.5s.8-1.4,1.7-1.4.8,0,1.3.2v.5c-.4-.2-.8-.2-1.2-.2-.7,0-1.1.2-1.1.8,0,1,2.5.8,2.5,2.5s-1,1.5-1.8,1.5-1,0-1.4-.2v-.6q0,0,0,0Z"/>
  </g>
  <g id="g348">
    <path id="path350" class="cls-2" d="M122.6,51h-.7l-1.7-5.1h.7l1.4,4.4h0l1.5-4.4h.7s-1.8,5.1-1.8,5.1Z"/>
  </g>
  <path id="path352" class="cls-2" d="M126.6,44.5h-.6v-.8h.6v.8ZM126,45.9h.6v5.1h-.6v-5.1Z"/>
  <g id="g354">
    <path id="path356" class="cls-2" d="M128.5,50.5l3.1-4h-2.9v-.5h3.7v.5l-3.1,4h3.1v.5h-3.8v-.5Z"/>
  </g>
  <g id="g358">
    <path id="path360" class="cls-2" d="M134.2,47c0-.6,0-.8,0-1.1h.6v1h0c.2-.6.7-1.1,1.3-1.1s.3,0,.4,0v.7c-.1,0-.3,0-.5,0-1,0-1.3,1.1-1.3,2v2.5h-.6v-4Z"/>
  </g>
  <g id="g362">
    <path id="path364" class="cls-2" d="M141.3,50.2h0c-.3.6-1,.9-1.6.9-1.4,0-1.7-1-1.7-1.4,0-1.7,1.8-1.8,3.1-1.8h.1v-.3c0-.9-.3-1.3-1.2-1.3s-1,.1-1.5.4v-.6c.4-.2,1.1-.3,1.5-.3,1.3,0,1.8.6,1.8,1.9v2.2c0,.4,0,.7,0,1.1h-.6v-.8ZM141.2,48.4h-.2c-1.1,0-2.4.1-2.4,1.2s.5.9,1.1.9c1.5,0,1.5-1.3,1.5-1.8,0,0,0-.3,0-.3Z"/>
  </g>
  <g id="g366">
    <path id="path368" class="cls-2" d="M43,71.5c2.2,0,3.4,1.5,3.4,3.6s-1.2,3.6-3.4,3.6-3.4-1.5-3.4-3.6,1.2-3.6,3.4-3.6M43,77.6c1.4,0,2-1.3,2-2.5s-.6-2.5-2-2.5-2,1.3-2,2.5.5,2.5,2,2.5"/>
  </g>
  <g id="g370">
    <path id="path372" class="cls-2" d="M48.2,74.4h-1v-1h1v-.7c0-1,.6-1.8,1.6-1.8s.7,0,1,.1v1.1c-.2,0-.4-.2-.7-.2-.5,0-.6.4-.6.8v.6h1.2v1h-1.2v4.2h-1.3s0-4.2,0-4.2Z"/>
  </g>
  <g id="g374">
    <path id="path376" class="cls-2" d="M52.1,74.4h-1v-1h1v-.7c0-1,.6-1.8,1.6-1.8s.7,0,1,.1v1.1c-.2,0-.4-.2-.7-.2-.5,0-.6.4-.6.8v.6h1.2v1h-1.2v4.2h-1.3s0-4.2,0-4.2Z"/>
  </g>
  <path id="path378" class="cls-2" d="M55.7,71.2h1.3v1.3h-1.3v-1.3ZM55.7,73.5h1.3v5.2h-1.3v-5.2Z"/>
  <g id="g380">
    <path id="path382" class="cls-2" d="M61.9,74.6c-.2-.1-.5-.2-.9-.2-.8,0-1.4.7-1.4,1.6s.5,1.7,1.4,1.7.8-.1,1-.2v1.1c-.3.1-.7.2-1.3.2-1.7,0-2.5-1.2-2.5-2.7s.9-2.7,2.5-2.7.9,0,1.3.2c0,0-.1,1.1-.1,1.1Z"/>
  </g>
  <g id="g384">
    <path id="path386" class="cls-2" d="M67.3,78.3c-.5.3-1.1.4-1.8.4-1.7,0-2.7-1-2.7-2.7s.8-2.7,2.4-2.7,2.4,1.3,2.4,3.1h-3.6c0,.8.6,1.3,1.5,1.3s1.2-.2,1.7-.5c0,0,0,1.1,0,1.1ZM66.4,75.5c0-.7-.3-1.2-1.1-1.2s-1.1.5-1.2,1.2h2.3Z"/>
  </g>
  <g id="g388">
    <path id="path390" class="cls-2" d="M72.3,74.4h-1v-1h1v-.7c0-1,.6-1.8,1.6-1.8s.7,0,1,.1v1.1c-.2,0-.4-.2-.7-.2-.4,0-.6.4-.6.8v.6h1.2v1h-1.2v4.2h-1.3s0-4.2,0-4.2Z"/>
  </g>
  <g id="g392">
    <path id="path394" class="cls-2" d="M80,78.3c-.5.3-1.1.4-1.8.4-1.7,0-2.7-1-2.7-2.7s.8-2.7,2.4-2.7,2.4,1.3,2.4,3.1h-3.6c0,.8.6,1.3,1.5,1.3s1.2-.2,1.7-.5c0,0,0,1.1,0,1.1ZM79.1,75.5c0-.7-.3-1.2-1.1-1.2s-1.1.5-1.2,1.2h2.3ZM78.1,71.3h1.4l-1.4,1.5h-.8l.8-1.5Z"/>
  </g>
  <g id="g396">
    <path id="path398" class="cls-2" d="M85,78h0c-.4.5-.9.7-1.6.7-1.6,0-2.2-1.3-2.2-2.7s.6-2.7,2.2-2.7,1.1.2,1.5.7h0v-2.9h1.3v7.5h-1.3s0-.6,0-.6ZM83.8,77.7c.9,0,1.2-.9,1.2-1.7s-.3-1.6-1.2-1.6-1.1.9-1.1,1.6.2,1.7,1.1,1.7"/>
  </g>
  <g id="g400">
    <path id="path402" class="cls-2" d="M92,78.3c-.5.3-1.1.4-1.8.4-1.7,0-2.7-1-2.7-2.7s.8-2.7,2.4-2.7,2.4,1.3,2.4,3.1h-3.6c0,.8.6,1.3,1.5,1.3s1.2-.2,1.7-.5c0,0,0,1.1,0,1.1ZM91.1,75.5c0-.7-.3-1.2-1.1-1.2s-1.1.5-1.2,1.2h2.3ZM90,71.3h1.4l-1.4,1.5h-.8l.8-1.5Z"/>
  </g>
  <g id="g404">
    <path id="path406" class="cls-2" d="M93.6,73.5h1.2v1.2h0c0-.5.6-1.3,1.4-1.3s.3,0,.4,0v1.3c-.1,0-.4-.1-.6-.1-1.1,0-1.1,1.4-1.1,2.1v1.9h-1.3v-5.2h0Z"/>
  </g>
  <g id="g408">
    <path id="path410" class="cls-2" d="M97.8,73.7c.5-.2,1.2-.4,1.8-.4,1.6,0,2.2.7,2.2,2.2v.7c0,.5,0,.9,0,1.3,0,.4,0,.8,0,1.2h-1.2c0-.3,0-.6,0-.8h0c-.3.6-1,.9-1.6.9-.9,0-1.8-.6-1.8-1.5s.4-1.2.9-1.5c.5-.2,1.2-.3,1.7-.3h.7c0-.8-.4-1.1-1.2-1.1s-1.1.2-1.6.6v-1.2ZM99.4,77.8c.4,0,.7-.2.9-.5.2-.3.3-.7.3-1.1h-.6c-.6,0-1.5,0-1.5.9s.4.6.8.6"/>
  </g>
  <path id="path412" class="cls-2" d="M103.3,71.1h1.3v7.5h-1.3v-7.5Z"/>
  <g id="g414">
    <path id="path416" class="cls-2" d="M112.6,78h0c-.4.5-.9.7-1.6.7-1.6,0-2.2-1.3-2.2-2.7s.6-2.7,2.2-2.7,1.1.2,1.5.7h0v-2.9h1.3v7.5h-1.3s0-.6,0-.6ZM111.4,77.7c.9,0,1.2-.9,1.2-1.7s-.3-1.6-1.2-1.6-1.1.9-1.1,1.6.2,1.7,1.1,1.7"/>
  </g>
  <g id="g418">
    <path id="path420" class="cls-2" d="M119.6,78.3c-.5.3-1.1.4-1.8.4-1.7,0-2.7-1-2.7-2.7s.8-2.7,2.4-2.7,2.4,1.3,2.4,3.1h-3.6c0,.8.6,1.3,1.5,1.3s1.2-.2,1.7-.5c0,0,0,1.1,0,1.1ZM118.7,75.5c0-.7-.3-1.2-1.1-1.2s-1.1.5-1.2,1.2h2.3Z"/>
  </g>
  <path id="path422" class="cls-2" d="M124.1,71.1h1.3v7.5h-1.3v-7.5Z"/>
  <g id="g424">
    <path id="path426" class="cls-2" d="M127.3,71.6h1.5l-.9,2.5h-1.2s.6-2.5.6-2.5Z"/>
  </g>
  <g id="g428">
    <path id="path430" class="cls-2" d="M134.1,78.3c-.5.3-1.1.4-1.8.4-1.7,0-2.7-1-2.7-2.7s.8-2.7,2.4-2.7,2.4,1.3,2.4,3.1h-3.6c0,.8.6,1.3,1.5,1.3s1.2-.2,1.7-.5c0,0,0,1.1,0,1.1ZM133.2,75.5c0-.7-.3-1.2-1.1-1.2s-1.1.5-1.2,1.2h2.3Z"/>
  </g>
  <g id="g432">
    <path id="path434" class="cls-2" d="M135.7,73.5h1.3v.7h0c.4-.6,1-.8,1.7-.8,1.2,0,1.8.9,1.8,2v3.2h-1.3v-2.8c0-.6,0-1.5-.9-1.5s-1.2,1.1-1.2,1.7v2.5h-1.3v-5.2h0Z"/>
  </g>
  <g id="g436">
    <path id="path438" class="cls-2" d="M141.4,73.5h1.4l1.3,3.8h0l1.2-3.8h1.3l-1.9,5.2h-1.5l-1.9-5.2h0Z"/>
  </g>
  <path id="path440" class="cls-2" d="M147.7,71.2h1.3v1.3h-1.3v-1.3ZM147.7,73.5h1.3v5.2h-1.3v-5.2Z"/>
  <g id="g442">
    <path id="path444" class="cls-2" d="M150.6,73.5h1.2v1.2h0c0-.5.6-1.3,1.4-1.3s.3,0,.4,0v1.3c-.1,0-.4-.1-.6-.1-1.1,0-1.1,1.4-1.1,2.1v1.9h-1.3v-5.2h0Z"/>
  </g>
  <g id="g446">
    <path id="path448" class="cls-2" d="M156.8,73.3c1.5,0,2.7,1,2.7,2.7s-1,2.7-2.7,2.7-2.7-1.2-2.7-2.7,1.2-2.7,2.7-2.7M156.8,77.7c1,0,1.3-.9,1.3-1.8s-.4-1.5-1.3-1.5-1.3.8-1.3,1.5.3,1.8,1.3,1.8"/>
  </g>
  <g id="g450">
    <path id="path452" class="cls-2" d="M160.7,73.5h1.3v.7h0c.4-.6,1-.8,1.7-.8,1.2,0,1.8.9,1.8,2v3.2h-1.3v-2.8c0-.6,0-1.5-.9-1.5s-1.2,1.1-1.2,1.7v2.5h-1.3v-5.2h0Z"/>
  </g>
  <g id="g454">
    <path id="path456" class="cls-2" d="M167,73.5h1.3v.7h0c.4-.6,1-.8,1.7-.8,1.2,0,1.8.9,1.8,2v3.2h-1.3v-2.8c0-.6,0-1.5-.9-1.5s-1.2,1.1-1.2,1.7v2.5h-1.3v-5.2h0Z"/>
  </g>
  <g id="g458">
    <path id="path460" class="cls-2" d="M177.4,78.3c-.5.3-1.1.4-1.8.4-1.7,0-2.7-1-2.7-2.7s.8-2.7,2.4-2.7,2.4,1.3,2.4,3.1h-3.6c0,.8.6,1.3,1.5,1.3s1.2-.2,1.7-.5c0,0,0,1.1,0,1.1ZM176.5,75.5c0-.7-.3-1.2-1.1-1.2s-1.1.5-1.2,1.2h2.3Z"/>
  </g>
  <g id="g462">
    <path id="path464" class="cls-2" d="M178.9,73.5h1.2v.7h0c.4-.6,1-.8,1.5-.8.7,0,1.2.3,1.5.9.3-.6,1-.9,1.6-.9,1.3,0,1.6.9,1.6,2v3.2h-1.3v-3.1c0-.5,0-1.2-.8-1.2s-1,1.1-1,1.7v2.5h-1.3v-3.1c0-.5,0-1.2-.8-1.2s-1,1.1-1,1.7v2.5h-1.3v-5.2h0Z"/>
  </g>
  <g id="g466">
    <path id="path468" class="cls-2" d="M192.1,78.3c-.5.3-1.1.4-1.8.4-1.7,0-2.7-1-2.7-2.7s.8-2.7,2.4-2.7,2.4,1.3,2.4,3.1h-3.6c0,.8.6,1.3,1.5,1.3s1.2-.2,1.7-.5c0,0,0,1.1,0,1.1ZM191.2,75.5c0-.7-.3-1.2-1.1-1.2s-1.1.5-1.2,1.2h2.3Z"/>
  </g>
  <g id="g470">
    <path id="path472" class="cls-2" d="M193.7,73.5h1.3v.7h0c.4-.6,1-.8,1.7-.8,1.2,0,1.8.9,1.8,2v3.2h-1.3v-2.8c0-.6,0-1.5-.9-1.5s-1.2,1.1-1.2,1.7v2.5h-1.3v-5.2h0Z"/>
  </g>
  <g id="g474">
    <path id="path476" class="cls-2" d="M200.4,74.4h-1v-1h1v-1l1.3-.4v1.5h1.2v1h-1.2v2.4c0,.4.1.8.6.8s.5,0,.6-.1v1.1c-.2,0-.6.1-1,.1-1.1,0-1.6-.7-1.6-1.7v-2.6h0Z"/>
  </g>
  <g id="g478">
    <path id="path480" class="cls-2" d="M210.1,71.5c2.2,0,3.4,1.5,3.4,3.6s-1.2,3.6-3.4,3.6-3.4-1.5-3.4-3.6,1.2-3.6,3.4-3.6M210.1,77.6c1.4,0,2-1.3,2-2.5s-.6-2.5-2-2.5-2,1.3-2,2.5.5,2.5,2,2.5"/>
  </g>
  <g id="g482">
    <path id="path484" class="cls-2" d="M215,71.6h3.9v1.1h-2.5v1.7h2.4v1.1h-2.4v3.1h-1.4v-7h0Z"/>
  </g>
  <g id="g486">
    <path id="path488" class="cls-2" d="M220.1,71.6h4.1v1.1h-2.7v1.7h2.5v1.1h-2.5v2h2.7v1.1h-4.1s0-7,0-7Z"/>
  </g>
  <g id="g490">
    <path id="path492" class="cls-2" d="M225.1,71.6h1.5l1.8,5.5h0l1.8-5.5h1.4l-2.4,7h-1.7l-2.4-7Z"/>
  </g>
  <g id="g494">
    <path id="path496" class="cls-1" d="M28.4,2.3S23.1,0,14.2,0h0C5.3,0,0,2.3,0,2.3,0,2.3-.4,12.6,1.6,18.4c3.6,10.2,12.6,13.1,12.6,13.1h0s9.1-2.9,12.6-13.1c2-5.8,1.5-16.1,1.5-16.1"/>
  </g>
  <g id="g498">
    <path id="path500" class="cls-2" d="M23.6,11.2v5.6h-6.6v6.6h-5.6v-6.6h-6.6v-5.6h6.6v-6.6h5.6v6.6h6.6Z"/>
  </g>
</svg>