<?xml version="1.0" encoding="UTF-8"?>
<svg id="Calque_2" data-name="Calque 2" xmlns="http://www.w3.org/2000/svg" xmlns:xlink="http://www.w3.org/1999/xlink" version="1.1" viewBox="0 0 378 105.8">
  <defs>
    <style>
      .cls-1 {
        fill: #f68167;
      }

      .cls-1, .cls-2, .cls-3, .cls-4, .cls-5 {
        stroke-width: 0px;
      }

      .cls-6 {
        clip-path: url(#clippath);
      }

      .cls-2 {
        fill: none;
      }

      .cls-3 {
        fill: #e92426;
      }

      .cls-4 {
        fill: #fcd5c4;
      }

      .cls-5 {
        fill: #fff;
      }
    </style>
    <clipPath id="clippath">
      <rect class="cls-2" x="25.5" y="53.8" width="37.4" height="36.1"/>
    </clipPath>
  </defs>
  <g id="g134">
    <path id="path132" class="cls-3" d="M52.9,0c29.2,0,52.9,23.7,52.9,52.9s-23.7,52.9-52.9,52.9S0,82.2,0,52.9,23.7,0,52.9,0"/>
  </g>
  <g id="g138">
    <path id="path136" class="cls-4" d="M74.3,40.6c3.9-8.7-10.3-20.8-31.7-27-1.6-.5-3.2-.9-4.8-1.3-.2,1.9-.4,3.8-.3,5.8.2,12.5,6.2,23.5,15.4,30.5,10.8,0,19.1-2.9,21.4-8.1h0,0Z"/>
  </g>
  <g id="g142">
    <path id="path140" class="cls-4" d="M74.7,64.5c-2.5-5.1-10.9-7.6-21.7-7.3-9,7.4-14.6,18.6-14.4,31,0,2,.2,3.9.5,5.8,1.6-.4,3.2-.9,4.8-1.4,21.2-7,35-19.6,30.7-28.1h0Z"/>
  </g>
  <g id="g146">
    <path id="path144" class="cls-4" d="M69.9,52.6l-42.7-14.4c-1.6-.5-3.3,0-4.4,1.2-3.1,3.4-5,8.5-4.9,14.2s2.2,10.7,5.4,14c1.2,1.2,2.9,1.6,4.5,1l42.2-15.9h0Z"/>
  </g>
  <g id="g158">
    <g id="g156">
      <g class="cls-6">
        <g id="g154">
          <g id="g152">
            <path id="path150" class="cls-1" d="M25.5,53.8l23.5,7.2c8.4,3.4,13.8,8.7,13.9,14.6,0,5.6-4.4,10.6-11.7,14.3,0,0,21.2-21.9-25.6-36.1h0Z"/>
          </g>
        </g>
      </g>
    </g>
  </g>
  <g id="g162">
    <path id="path160" class="cls-5" d="M90.5,52.1l-6.1-1.8c-.1,0-.2-.1-.3-.3-.3-.8-1.5-3.3-5.4-4.2-4.7-1-7.8,0-7.8,0,0,0-1,.4-1.2,0-.3-.4.4-.8.4-.8h0c2-1.2,3.6-2.7,4.3-4.5,3.5-7.7-7.2-18-24.4-24.6,7.4,3.4,12.1,8.4,12.2,13.9.1,5.9-5.1,11.4-13.3,15.1l-23.3,8c-.4.1-.4.7,0,.8l23.5,7.2c8.4,3.4,13.8,8.7,13.9,14.6,0,5.6-4.4,10.6-11.7,14.3,17-7.2,27.3-17.9,23.6-25.4-.6-1.2-1.6-2.4-2.9-3.3-.2-.2-.2-.5,0-.7,5.2-4.2,12.4-6.4,12.4-6.4l6.3-1.7c.2,0,.2-.3,0-.4h0s0,0,0,0Z"/>
  </g>
  <g id="g166">
    <path id="path164" class="cls-5" d="M136,63.8c-.2,0-.3-.1-.4-.3l-7.1-21.3c0-.2,0-.3.3-.3h3.2c.2,0,.4,0,.4.3l5,15.6h0l4.8-15.6c0-.2.2-.3.4-.3h3.2c.2,0,.3.1.3.3l-7.1,21.3c0,.2-.2.3-.4.3h-2.7,0,0Z"/>
  </g>
  <g id="g170">
    <path id="path168" class="cls-5" d="M161.3,57.9c.3-.8.4-1.9.4-5s-.1-4.2-.4-5c-.6-1.8-1.9-2.9-4.2-2.9s-3.6,1.1-4.2,2.9c-.3.8-.4,1.9-.4,5s.1,4.2.4,5c.6,1.8,1.9,2.9,4.2,2.9s3.6-1.1,4.2-2.9M149.1,58.9c-.5-1.4-.6-2.6-.6-6s.1-4.7.6-6c1.2-3.5,4.1-5.3,7.9-5.3s6.8,1.8,8,5.3c.5,1.4.6,2.6.6,6s-.1,4.7-.6,6c-1.2,3.5-4.1,5.3-8,5.3s-6.8-1.8-7.9-5.3"/>
  </g>
  <g id="g174">
    <path id="path172" class="cls-5" d="M169.6,52.8c0-3.5.1-4.7.6-6,1.2-3.5,4.1-5.3,8-5.3s6.9,2.2,7.8,4.7c0,.2,0,.4-.1.5l-2.8,1.2c-.2,0-.4,0-.4-.2-1-1.8-2.4-2.7-4.5-2.7s-3.6,1.1-4.2,2.9c-.3.8-.4,1.9-.4,5s.1,4.2.4,5c.6,1.8,1.9,2.9,4.2,2.9s3.7-1,4.3-2.8c.2-.7.4-1.6.4-2.8s0-.2-.2-.2h-3.7c-.2,0-.3-.1-.3-.3v-2.6c0-.2.1-.3.3-.3h7.4c.2,0,.3.1.3.3v1.9c0,1.8-.2,3.7-.5,4.8-1.1,3.4-4.1,5.4-7.9,5.4s-6.9-1.8-8-5.3c-.5-1.4-.6-2.6-.6-6h0s0,0,0,0Z"/>
  </g>
  <g id="g178">
    <path id="path176" class="cls-5" d="M191.1,42.2c0-.2.1-.3.3-.3h14.1c.2,0,.3.1.3.3v2.8c0,.2-.1.3-.3.3h-10.3c-.1,0-.2,0-.2.2v5.4c0,.1,0,.2.2.2h8.7c.2,0,.3.1.3.3v2.8c0,.2-.1.3-.3.3h-8.7c-.1,0-.2,0-.2.2v5.6c0,.1,0,.2.2.2h10.3c.2,0,.3.1.3.3v2.8c0,.2-.1.3-.3.3h-14.1c-.2,0-.3-.1-.3-.3v-21.3h0Z"/>
  </g>
  <g id="g182">
    <path id="path180" class="cls-5" d="M210.1,42.2c0-.2.1-.3.3-.3h3.2c.2,0,.3.1.3.3v18c0,.1,0,.2.2.2h10.3c.2,0,.3.1.3.3v2.8c0,.2-.1.3-.3.3h-14.1c-.2,0-.3-.1-.3-.3v-21.3h0Z"/>
  </g>
  <g id="g186">
    <path id="path184" class="cls-5" d="M243.2,63.8c-.2,0-.3-.1-.4-.3l-4.3-15h0l-4.3,15c0,.2-.2.3-.4.3h-2.5c-.2,0-.3-.1-.4-.3l-5.5-21.3c0-.2,0-.3.3-.3h3.1c.2,0,.4.1.4.3l3.6,14.8h0l4.2-14.8c0-.2.2-.3.4-.3h2.3c.2,0,.3.1.4.3l4.3,14.8h0l3.5-14.8c0-.2.2-.3.4-.3h3.1c.2,0,.3.1.3.3l-5.5,21.3c0,.2-.2.3-.4.3h-2.5Z"/>
  </g>
  <g id="g190">
    <path id="path188" class="cls-5" d="M264.3,55.8l-3-8.5h0l-3,8.5h6.1,0ZM259.4,42.2c0-.2.2-.3.4-.3h3c.2,0,.4.1.4.3l7.6,21.3c0,.2,0,.3-.2.3h-3.2c-.2,0-.4,0-.4-.3l-1.5-4.3h-8.5l-1.5,4.3c0,.2-.2.3-.4.3h-3.2c-.2,0-.3-.1-.2-.3l7.7-21.3h0Z"/>
  </g>
  <g id="g194">
    <path id="path192" class="cls-5" d="M286.9,48.4c0-1.9-1.4-3.1-3.4-3.1h-4.8c-.1,0-.2,0-.2.2v5.8c0,.1,0,.2.2.2h4.8c2,0,3.4-1.2,3.4-3.1h0ZM287.3,63.8c-.3,0-.4,0-.5-.3l-4.3-8.6h-3.9c-.1,0-.2,0-.2.2v8.4c0,.2-.1.3-.3.3h-3.2c-.2,0-.3-.1-.3-.3v-21.3c0-.2.1-.3.3-.3h8.7c4.1,0,7.2,2.7,7.2,6.6s-1.7,5.1-4.3,6l4.7,9c.1.2,0,.4-.2.4h-3.7Z"/>
  </g>
  <g id="g198">
    <path id="path196" class="cls-5" d="M300.6,63.8c-.2,0-.3-.1-.3-.3v-18c0-.1,0-.2-.2-.2h-5.9c-.2,0-.3-.1-.3-.3v-2.8c0-.2.1-.3.3-.3h16.1c.2,0,.3.1.3.3v2.8c0,.2-.1.3-.3.3h-5.9c-.1,0-.2,0-.2.2v18c0,.2-.1.3-.3.3h-3.2Z"/>
  </g>
  <g id="g202">
    <path id="path200" class="cls-5" d="M314.3,42.2c0-.2.1-.3.3-.3h14.1c.2,0,.3.1.3.3v2.8c0,.2-.1.3-.3.3h-10.3c-.1,0-.2,0-.2.2v5.4c0,.1,0,.2.2.2h8.7c.2,0,.3.1.3.3v2.8c0,.2-.1.3-.3.3h-8.7c-.1,0-.2,0-.2.2v5.6c0,.1,0,.2.2.2h10.3c.2,0,.3.1.3.3v2.8c0,.2-.1.3-.3.3h-14.1c-.2,0-.3-.1-.3-.3v-21.3h0Z"/>
  </g>
  <g id="g206">
    <path id="path204" class="cls-5" d="M333.6,60.2c0-.2.1-.3.3-.3h3.3c.2,0,.3.1.3.3v3.3c0,.2-.1.3-.3.3h-3.3c-.2,0-.3-.1-.3-.3v-3.3Z"/>
  </g>
  <g id="g210">
    <path id="path208" class="cls-5" d="M341.2,52.8c0-3.5.1-4.6.6-6,1.2-3.6,4-5.4,7.8-5.4s6.3,1.8,7.6,4.7c0,.2,0,.3-.2.4l-2.8,1.3c-.2,0-.4,0-.4-.2-.7-1.5-2-2.8-4.2-2.8s-3.4,1.1-4,2.9c-.3.9-.4,1.8-.4,5s0,4.1.4,5c.6,1.8,1.9,2.9,4,2.9s3.5-1.3,4.2-2.8c0-.2.2-.2.4-.2l2.8,1.3c.2,0,.2.2.2.4-1.3,2.9-4,4.7-7.6,4.7s-6.6-1.8-7.8-5.4c-.5-1.4-.6-2.5-.6-5.9Z"/>
  </g>
  <g id="g214">
    <path id="path212" class="cls-5" d="M361.2,42.2c0-.2.1-.3.3-.3h3.2c.2,0,.3.1.3.3v8.6c0,.1,0,.2.2.2h8.6c.1,0,.2,0,.2-.2v-8.7c0-.2.1-.3.3-.3h3.2c.2,0,.3.1.3.3v21.3c0,.2-.1.3-.3.3h-3.2c-.2,0-.3-.1-.3-.3v-8.8c0-.1,0-.2-.2-.2h-8.6c-.1,0-.2,0-.2.2v8.8c0,.2-.1.3-.3.3h-3.2c-.2,0-.3-.1-.3-.3,0,0,0-21.3,0-21.3Z"/>
  </g>
</svg>